G04 #@! TF.GenerationSoftware,KiCad,Pcbnew,(5.1.0)-1*
G04 #@! TF.CreationDate,2019-06-02T21:22:59+02:00*
G04 #@! TF.ProjectId,ledpwmble,6c656470-776d-4626-9c65-2e6b69636164,rev?*
G04 #@! TF.SameCoordinates,Original*
G04 #@! TF.FileFunction,Soldermask,Bot*
G04 #@! TF.FilePolarity,Negative*
%FSLAX46Y46*%
G04 Gerber Fmt 4.6, Leading zero omitted, Abs format (unit mm)*
G04 Created by KiCad (PCBNEW (5.1.0)-1) date 2019-06-02 21:22:59*
%MOMM*%
%LPD*%
G04 APERTURE LIST*
%ADD10C,0.100000*%
G04 APERTURE END LIST*
D10*
G36*
X162350442Y-106105518D02*
G01*
X162416627Y-106112037D01*
X162586466Y-106163557D01*
X162742991Y-106247222D01*
X162778729Y-106276552D01*
X162880186Y-106359814D01*
X162963448Y-106461271D01*
X162992778Y-106497009D01*
X163076443Y-106653534D01*
X163127963Y-106823373D01*
X163145359Y-107000000D01*
X163127963Y-107176627D01*
X163076443Y-107346466D01*
X162992778Y-107502991D01*
X162963448Y-107538729D01*
X162880186Y-107640186D01*
X162778729Y-107723448D01*
X162742991Y-107752778D01*
X162586466Y-107836443D01*
X162416627Y-107887963D01*
X162350442Y-107894482D01*
X162284260Y-107901000D01*
X162195740Y-107901000D01*
X162129558Y-107894482D01*
X162063373Y-107887963D01*
X161893534Y-107836443D01*
X161737009Y-107752778D01*
X161701271Y-107723448D01*
X161599814Y-107640186D01*
X161516552Y-107538729D01*
X161487222Y-107502991D01*
X161403557Y-107346466D01*
X161352037Y-107176627D01*
X161334641Y-107000000D01*
X161352037Y-106823373D01*
X161403557Y-106653534D01*
X161487222Y-106497009D01*
X161516552Y-106461271D01*
X161599814Y-106359814D01*
X161701271Y-106276552D01*
X161737009Y-106247222D01*
X161893534Y-106163557D01*
X162063373Y-106112037D01*
X162129558Y-106105518D01*
X162195740Y-106099000D01*
X162284260Y-106099000D01*
X162350442Y-106105518D01*
X162350442Y-106105518D01*
G37*
G36*
X164890442Y-106105518D02*
G01*
X164956627Y-106112037D01*
X165126466Y-106163557D01*
X165282991Y-106247222D01*
X165318729Y-106276552D01*
X165420186Y-106359814D01*
X165503448Y-106461271D01*
X165532778Y-106497009D01*
X165616443Y-106653534D01*
X165667963Y-106823373D01*
X165685359Y-107000000D01*
X165667963Y-107176627D01*
X165616443Y-107346466D01*
X165532778Y-107502991D01*
X165503448Y-107538729D01*
X165420186Y-107640186D01*
X165318729Y-107723448D01*
X165282991Y-107752778D01*
X165126466Y-107836443D01*
X164956627Y-107887963D01*
X164890442Y-107894482D01*
X164824260Y-107901000D01*
X164735740Y-107901000D01*
X164669558Y-107894482D01*
X164603373Y-107887963D01*
X164433534Y-107836443D01*
X164277009Y-107752778D01*
X164241271Y-107723448D01*
X164139814Y-107640186D01*
X164056552Y-107538729D01*
X164027222Y-107502991D01*
X163943557Y-107346466D01*
X163892037Y-107176627D01*
X163874641Y-107000000D01*
X163892037Y-106823373D01*
X163943557Y-106653534D01*
X164027222Y-106497009D01*
X164056552Y-106461271D01*
X164139814Y-106359814D01*
X164241271Y-106276552D01*
X164277009Y-106247222D01*
X164433534Y-106163557D01*
X164603373Y-106112037D01*
X164669558Y-106105518D01*
X164735740Y-106099000D01*
X164824260Y-106099000D01*
X164890442Y-106105518D01*
X164890442Y-106105518D01*
G37*
G36*
X159810442Y-106105518D02*
G01*
X159876627Y-106112037D01*
X160046466Y-106163557D01*
X160202991Y-106247222D01*
X160238729Y-106276552D01*
X160340186Y-106359814D01*
X160423448Y-106461271D01*
X160452778Y-106497009D01*
X160536443Y-106653534D01*
X160587963Y-106823373D01*
X160605359Y-107000000D01*
X160587963Y-107176627D01*
X160536443Y-107346466D01*
X160452778Y-107502991D01*
X160423448Y-107538729D01*
X160340186Y-107640186D01*
X160238729Y-107723448D01*
X160202991Y-107752778D01*
X160046466Y-107836443D01*
X159876627Y-107887963D01*
X159810442Y-107894482D01*
X159744260Y-107901000D01*
X159655740Y-107901000D01*
X159589558Y-107894482D01*
X159523373Y-107887963D01*
X159353534Y-107836443D01*
X159197009Y-107752778D01*
X159161271Y-107723448D01*
X159059814Y-107640186D01*
X158976552Y-107538729D01*
X158947222Y-107502991D01*
X158863557Y-107346466D01*
X158812037Y-107176627D01*
X158794641Y-107000000D01*
X158812037Y-106823373D01*
X158863557Y-106653534D01*
X158947222Y-106497009D01*
X158976552Y-106461271D01*
X159059814Y-106359814D01*
X159161271Y-106276552D01*
X159197009Y-106247222D01*
X159353534Y-106163557D01*
X159523373Y-106112037D01*
X159589558Y-106105518D01*
X159655740Y-106099000D01*
X159744260Y-106099000D01*
X159810442Y-106105518D01*
X159810442Y-106105518D01*
G37*
G36*
X157270442Y-106105518D02*
G01*
X157336627Y-106112037D01*
X157506466Y-106163557D01*
X157662991Y-106247222D01*
X157698729Y-106276552D01*
X157800186Y-106359814D01*
X157883448Y-106461271D01*
X157912778Y-106497009D01*
X157996443Y-106653534D01*
X158047963Y-106823373D01*
X158065359Y-107000000D01*
X158047963Y-107176627D01*
X157996443Y-107346466D01*
X157912778Y-107502991D01*
X157883448Y-107538729D01*
X157800186Y-107640186D01*
X157698729Y-107723448D01*
X157662991Y-107752778D01*
X157506466Y-107836443D01*
X157336627Y-107887963D01*
X157270442Y-107894482D01*
X157204260Y-107901000D01*
X157115740Y-107901000D01*
X157049558Y-107894482D01*
X156983373Y-107887963D01*
X156813534Y-107836443D01*
X156657009Y-107752778D01*
X156621271Y-107723448D01*
X156519814Y-107640186D01*
X156436552Y-107538729D01*
X156407222Y-107502991D01*
X156323557Y-107346466D01*
X156272037Y-107176627D01*
X156254641Y-107000000D01*
X156272037Y-106823373D01*
X156323557Y-106653534D01*
X156407222Y-106497009D01*
X156436552Y-106461271D01*
X156519814Y-106359814D01*
X156621271Y-106276552D01*
X156657009Y-106247222D01*
X156813534Y-106163557D01*
X156983373Y-106112037D01*
X157049558Y-106105518D01*
X157115740Y-106099000D01*
X157204260Y-106099000D01*
X157270442Y-106105518D01*
X157270442Y-106105518D01*
G37*
G36*
X154730442Y-106105518D02*
G01*
X154796627Y-106112037D01*
X154966466Y-106163557D01*
X155122991Y-106247222D01*
X155158729Y-106276552D01*
X155260186Y-106359814D01*
X155343448Y-106461271D01*
X155372778Y-106497009D01*
X155456443Y-106653534D01*
X155507963Y-106823373D01*
X155525359Y-107000000D01*
X155507963Y-107176627D01*
X155456443Y-107346466D01*
X155372778Y-107502991D01*
X155343448Y-107538729D01*
X155260186Y-107640186D01*
X155158729Y-107723448D01*
X155122991Y-107752778D01*
X154966466Y-107836443D01*
X154796627Y-107887963D01*
X154730442Y-107894482D01*
X154664260Y-107901000D01*
X154575740Y-107901000D01*
X154509558Y-107894482D01*
X154443373Y-107887963D01*
X154273534Y-107836443D01*
X154117009Y-107752778D01*
X154081271Y-107723448D01*
X153979814Y-107640186D01*
X153896552Y-107538729D01*
X153867222Y-107502991D01*
X153783557Y-107346466D01*
X153732037Y-107176627D01*
X153714641Y-107000000D01*
X153732037Y-106823373D01*
X153783557Y-106653534D01*
X153867222Y-106497009D01*
X153896552Y-106461271D01*
X153979814Y-106359814D01*
X154081271Y-106276552D01*
X154117009Y-106247222D01*
X154273534Y-106163557D01*
X154443373Y-106112037D01*
X154509558Y-106105518D01*
X154575740Y-106099000D01*
X154664260Y-106099000D01*
X154730442Y-106105518D01*
X154730442Y-106105518D01*
G37*
G36*
X152190442Y-106105518D02*
G01*
X152256627Y-106112037D01*
X152426466Y-106163557D01*
X152582991Y-106247222D01*
X152618729Y-106276552D01*
X152720186Y-106359814D01*
X152803448Y-106461271D01*
X152832778Y-106497009D01*
X152916443Y-106653534D01*
X152967963Y-106823373D01*
X152985359Y-107000000D01*
X152967963Y-107176627D01*
X152916443Y-107346466D01*
X152832778Y-107502991D01*
X152803448Y-107538729D01*
X152720186Y-107640186D01*
X152618729Y-107723448D01*
X152582991Y-107752778D01*
X152426466Y-107836443D01*
X152256627Y-107887963D01*
X152190442Y-107894482D01*
X152124260Y-107901000D01*
X152035740Y-107901000D01*
X151969558Y-107894482D01*
X151903373Y-107887963D01*
X151733534Y-107836443D01*
X151577009Y-107752778D01*
X151541271Y-107723448D01*
X151439814Y-107640186D01*
X151356552Y-107538729D01*
X151327222Y-107502991D01*
X151243557Y-107346466D01*
X151192037Y-107176627D01*
X151174641Y-107000000D01*
X151192037Y-106823373D01*
X151243557Y-106653534D01*
X151327222Y-106497009D01*
X151356552Y-106461271D01*
X151439814Y-106359814D01*
X151541271Y-106276552D01*
X151577009Y-106247222D01*
X151733534Y-106163557D01*
X151903373Y-106112037D01*
X151969558Y-106105518D01*
X152035740Y-106099000D01*
X152124260Y-106099000D01*
X152190442Y-106105518D01*
X152190442Y-106105518D01*
G37*
G36*
X149650442Y-106105518D02*
G01*
X149716627Y-106112037D01*
X149886466Y-106163557D01*
X150042991Y-106247222D01*
X150078729Y-106276552D01*
X150180186Y-106359814D01*
X150263448Y-106461271D01*
X150292778Y-106497009D01*
X150376443Y-106653534D01*
X150427963Y-106823373D01*
X150445359Y-107000000D01*
X150427963Y-107176627D01*
X150376443Y-107346466D01*
X150292778Y-107502991D01*
X150263448Y-107538729D01*
X150180186Y-107640186D01*
X150078729Y-107723448D01*
X150042991Y-107752778D01*
X149886466Y-107836443D01*
X149716627Y-107887963D01*
X149650442Y-107894482D01*
X149584260Y-107901000D01*
X149495740Y-107901000D01*
X149429558Y-107894482D01*
X149363373Y-107887963D01*
X149193534Y-107836443D01*
X149037009Y-107752778D01*
X149001271Y-107723448D01*
X148899814Y-107640186D01*
X148816552Y-107538729D01*
X148787222Y-107502991D01*
X148703557Y-107346466D01*
X148652037Y-107176627D01*
X148634641Y-107000000D01*
X148652037Y-106823373D01*
X148703557Y-106653534D01*
X148787222Y-106497009D01*
X148816552Y-106461271D01*
X148899814Y-106359814D01*
X149001271Y-106276552D01*
X149037009Y-106247222D01*
X149193534Y-106163557D01*
X149363373Y-106112037D01*
X149429558Y-106105518D01*
X149495740Y-106099000D01*
X149584260Y-106099000D01*
X149650442Y-106105518D01*
X149650442Y-106105518D01*
G37*
G36*
X147901000Y-107901000D02*
G01*
X146099000Y-107901000D01*
X146099000Y-106099000D01*
X147901000Y-106099000D01*
X147901000Y-107901000D01*
X147901000Y-107901000D01*
G37*
G36*
X130179059Y-105277860D02*
G01*
X130315732Y-105334472D01*
X130438735Y-105416660D01*
X130543340Y-105521265D01*
X130625528Y-105644268D01*
X130682140Y-105780941D01*
X130711000Y-105926033D01*
X130711000Y-106073967D01*
X130682140Y-106219059D01*
X130625528Y-106355732D01*
X130543340Y-106478735D01*
X130438735Y-106583340D01*
X130315732Y-106665528D01*
X130315731Y-106665529D01*
X130315730Y-106665529D01*
X130179059Y-106722140D01*
X130033968Y-106751000D01*
X129886032Y-106751000D01*
X129740941Y-106722140D01*
X129604270Y-106665529D01*
X129604269Y-106665529D01*
X129604268Y-106665528D01*
X129481265Y-106583340D01*
X129376660Y-106478735D01*
X129294472Y-106355732D01*
X129237860Y-106219059D01*
X129209000Y-106073967D01*
X129209000Y-105926033D01*
X129237860Y-105780941D01*
X129294472Y-105644268D01*
X129376660Y-105521265D01*
X129481265Y-105416660D01*
X129604268Y-105334472D01*
X129740941Y-105277860D01*
X129886032Y-105249000D01*
X130033968Y-105249000D01*
X130179059Y-105277860D01*
X130179059Y-105277860D01*
G37*
G36*
X132719059Y-105277860D02*
G01*
X132855732Y-105334472D01*
X132978735Y-105416660D01*
X133083340Y-105521265D01*
X133165528Y-105644268D01*
X133222140Y-105780941D01*
X133251000Y-105926033D01*
X133251000Y-106073967D01*
X133222140Y-106219059D01*
X133165528Y-106355732D01*
X133083340Y-106478735D01*
X132978735Y-106583340D01*
X132855732Y-106665528D01*
X132855731Y-106665529D01*
X132855730Y-106665529D01*
X132719059Y-106722140D01*
X132573968Y-106751000D01*
X132426032Y-106751000D01*
X132280941Y-106722140D01*
X132144270Y-106665529D01*
X132144269Y-106665529D01*
X132144268Y-106665528D01*
X132021265Y-106583340D01*
X131916660Y-106478735D01*
X131834472Y-106355732D01*
X131777860Y-106219059D01*
X131749000Y-106073967D01*
X131749000Y-105926033D01*
X131777860Y-105780941D01*
X131834472Y-105644268D01*
X131916660Y-105521265D01*
X132021265Y-105416660D01*
X132144268Y-105334472D01*
X132280941Y-105277860D01*
X132426032Y-105249000D01*
X132573968Y-105249000D01*
X132719059Y-105277860D01*
X132719059Y-105277860D01*
G37*
G36*
X130179059Y-101277860D02*
G01*
X130315732Y-101334472D01*
X130438735Y-101416660D01*
X130543340Y-101521265D01*
X130625528Y-101644268D01*
X130682140Y-101780941D01*
X130711000Y-101926033D01*
X130711000Y-102073967D01*
X130682140Y-102219059D01*
X130625528Y-102355732D01*
X130543340Y-102478735D01*
X130438735Y-102583340D01*
X130315732Y-102665528D01*
X130315731Y-102665529D01*
X130315730Y-102665529D01*
X130179059Y-102722140D01*
X130033968Y-102751000D01*
X129886032Y-102751000D01*
X129740941Y-102722140D01*
X129604270Y-102665529D01*
X129604269Y-102665529D01*
X129604268Y-102665528D01*
X129481265Y-102583340D01*
X129376660Y-102478735D01*
X129294472Y-102355732D01*
X129237860Y-102219059D01*
X129209000Y-102073967D01*
X129209000Y-101926033D01*
X129237860Y-101780941D01*
X129294472Y-101644268D01*
X129376660Y-101521265D01*
X129481265Y-101416660D01*
X129604268Y-101334472D01*
X129740941Y-101277860D01*
X129886032Y-101249000D01*
X130033968Y-101249000D01*
X130179059Y-101277860D01*
X130179059Y-101277860D01*
G37*
G36*
X132719059Y-101277860D02*
G01*
X132855732Y-101334472D01*
X132978735Y-101416660D01*
X133083340Y-101521265D01*
X133165528Y-101644268D01*
X133222140Y-101780941D01*
X133251000Y-101926033D01*
X133251000Y-102073967D01*
X133222140Y-102219059D01*
X133165528Y-102355732D01*
X133083340Y-102478735D01*
X132978735Y-102583340D01*
X132855732Y-102665528D01*
X132855731Y-102665529D01*
X132855730Y-102665529D01*
X132719059Y-102722140D01*
X132573968Y-102751000D01*
X132426032Y-102751000D01*
X132280941Y-102722140D01*
X132144270Y-102665529D01*
X132144269Y-102665529D01*
X132144268Y-102665528D01*
X132021265Y-102583340D01*
X131916660Y-102478735D01*
X131834472Y-102355732D01*
X131777860Y-102219059D01*
X131749000Y-102073967D01*
X131749000Y-101926033D01*
X131777860Y-101780941D01*
X131834472Y-101644268D01*
X131916660Y-101521265D01*
X132021265Y-101416660D01*
X132144268Y-101334472D01*
X132280941Y-101277860D01*
X132426032Y-101249000D01*
X132573968Y-101249000D01*
X132719059Y-101277860D01*
X132719059Y-101277860D01*
G37*
G36*
X130179059Y-97277860D02*
G01*
X130315732Y-97334472D01*
X130438735Y-97416660D01*
X130543340Y-97521265D01*
X130625528Y-97644268D01*
X130682140Y-97780941D01*
X130711000Y-97926033D01*
X130711000Y-98073967D01*
X130682140Y-98219059D01*
X130625528Y-98355732D01*
X130543340Y-98478735D01*
X130438735Y-98583340D01*
X130315732Y-98665528D01*
X130315731Y-98665529D01*
X130315730Y-98665529D01*
X130179059Y-98722140D01*
X130033968Y-98751000D01*
X129886032Y-98751000D01*
X129740941Y-98722140D01*
X129604270Y-98665529D01*
X129604269Y-98665529D01*
X129604268Y-98665528D01*
X129481265Y-98583340D01*
X129376660Y-98478735D01*
X129294472Y-98355732D01*
X129237860Y-98219059D01*
X129209000Y-98073967D01*
X129209000Y-97926033D01*
X129237860Y-97780941D01*
X129294472Y-97644268D01*
X129376660Y-97521265D01*
X129481265Y-97416660D01*
X129604268Y-97334472D01*
X129740941Y-97277860D01*
X129886032Y-97249000D01*
X130033968Y-97249000D01*
X130179059Y-97277860D01*
X130179059Y-97277860D01*
G37*
G36*
X132719059Y-97277860D02*
G01*
X132855732Y-97334472D01*
X132978735Y-97416660D01*
X133083340Y-97521265D01*
X133165528Y-97644268D01*
X133222140Y-97780941D01*
X133251000Y-97926033D01*
X133251000Y-98073967D01*
X133222140Y-98219059D01*
X133165528Y-98355732D01*
X133083340Y-98478735D01*
X132978735Y-98583340D01*
X132855732Y-98665528D01*
X132855731Y-98665529D01*
X132855730Y-98665529D01*
X132719059Y-98722140D01*
X132573968Y-98751000D01*
X132426032Y-98751000D01*
X132280941Y-98722140D01*
X132144270Y-98665529D01*
X132144269Y-98665529D01*
X132144268Y-98665528D01*
X132021265Y-98583340D01*
X131916660Y-98478735D01*
X131834472Y-98355732D01*
X131777860Y-98219059D01*
X131749000Y-98073967D01*
X131749000Y-97926033D01*
X131777860Y-97780941D01*
X131834472Y-97644268D01*
X131916660Y-97521265D01*
X132021265Y-97416660D01*
X132144268Y-97334472D01*
X132280941Y-97277860D01*
X132426032Y-97249000D01*
X132573968Y-97249000D01*
X132719059Y-97277860D01*
X132719059Y-97277860D01*
G37*
G36*
X179598254Y-91027818D02*
G01*
X179971511Y-91182426D01*
X179971513Y-91182427D01*
X180307436Y-91406884D01*
X180593116Y-91692564D01*
X180817574Y-92028489D01*
X180972182Y-92401746D01*
X181051000Y-92797993D01*
X181051000Y-93202007D01*
X180972182Y-93598254D01*
X180817574Y-93971511D01*
X180817573Y-93971513D01*
X180593116Y-94307436D01*
X180307436Y-94593116D01*
X179971513Y-94817573D01*
X179971512Y-94817574D01*
X179971511Y-94817574D01*
X179598254Y-94972182D01*
X179202007Y-95051000D01*
X178797993Y-95051000D01*
X178401746Y-94972182D01*
X178028489Y-94817574D01*
X178028488Y-94817574D01*
X178028487Y-94817573D01*
X177692564Y-94593116D01*
X177406884Y-94307436D01*
X177182427Y-93971513D01*
X177182426Y-93971511D01*
X177027818Y-93598254D01*
X176949000Y-93202007D01*
X176949000Y-92797993D01*
X177027818Y-92401746D01*
X177182426Y-92028489D01*
X177406884Y-91692564D01*
X177692564Y-91406884D01*
X178028487Y-91182427D01*
X178028489Y-91182426D01*
X178401746Y-91027818D01*
X178797993Y-90949000D01*
X179202007Y-90949000D01*
X179598254Y-91027818D01*
X179598254Y-91027818D01*
G37*
G36*
X179598254Y-83027818D02*
G01*
X179971511Y-83182426D01*
X179971513Y-83182427D01*
X180307436Y-83406884D01*
X180593116Y-83692564D01*
X180817574Y-84028489D01*
X180972182Y-84401746D01*
X181051000Y-84797993D01*
X181051000Y-85202007D01*
X180972182Y-85598254D01*
X180817574Y-85971511D01*
X180817573Y-85971513D01*
X180593116Y-86307436D01*
X180307436Y-86593116D01*
X179971513Y-86817573D01*
X179971512Y-86817574D01*
X179971511Y-86817574D01*
X179598254Y-86972182D01*
X179202007Y-87051000D01*
X178797993Y-87051000D01*
X178401746Y-86972182D01*
X178028489Y-86817574D01*
X178028488Y-86817574D01*
X178028487Y-86817573D01*
X177692564Y-86593116D01*
X177406884Y-86307436D01*
X177182427Y-85971513D01*
X177182426Y-85971511D01*
X177027818Y-85598254D01*
X176949000Y-85202007D01*
X176949000Y-84797993D01*
X177027818Y-84401746D01*
X177182426Y-84028489D01*
X177406884Y-83692564D01*
X177692564Y-83406884D01*
X178028487Y-83182427D01*
X178028489Y-83182426D01*
X178401746Y-83027818D01*
X178797993Y-82949000D01*
X179202007Y-82949000D01*
X179598254Y-83027818D01*
X179598254Y-83027818D01*
G37*
M02*
