M48
; DRILL file {KiCad (5.1.0)-1} date 02-06-2019 21:23:02
; FORMAT={-:-/ absolute / metric / decimal}
; #@! TF.CreationDate,2019-06-02T21:23:02+02:00
; #@! TF.GenerationSoftware,Kicad,Pcbnew,(5.1.0)-1
FMAT,2
METRIC
T1C0.250
T2C0.400
T3C0.800
T4C1.000
T5C3.000
%
G90
G05
T1
X171.9Y-91.0
X172.9Y-91.0
T2
X128.5Y-99.5
X128.5Y-103.5
X128.5Y-108.0
X130.5Y-95.0
X133.0Y-108.0
X134.0Y-92.0
X134.0Y-96.5
X134.0Y-100.5
X134.0Y-105.0
X137.0Y-89.5
X138.5Y-93.5
X139.5Y-92.0
X139.5Y-96.0
X139.5Y-100.0
X139.5Y-104.0
X139.5Y-108.0
X141.0Y-95.5
X142.0Y-104.0
X142.5Y-106.0
X144.5Y-86.5
X144.5Y-108.0
X145.0Y-83.5
X145.5Y-102.5
X146.0Y-88.5
X147.0Y-103.5
X148.0Y-101.5
X148.0Y-105.0
X148.5Y-103.725
X149.5Y-86.0
X150.0Y-83.5
X150.5Y-94.0
X150.5Y-95.5
X150.5Y-99.5
X151.0Y-90.5
X152.987Y-102.987
X153.0Y-86.0
X153.0Y-99.5
X154.0Y-103.0
X154.5Y-90.95
X154.5Y-104.0
X155.0Y-86.0
X155.0Y-100.0
X155.487Y-99.013
X155.5Y-94.5
X156.0Y-90.5
X156.0Y-104.0
X156.5Y-83.5
X157.0Y-103.0
X158.0Y-86.5
X158.0Y-104.5
X158.775Y-100.487
X159.0Y-90.5
X159.0Y-95.0
X159.0Y-104.0
X159.5Y-92.0
X159.5Y-94.0
X159.5Y-99.5
X161.0Y-100.0
X161.0Y-105.5
X161.5Y-83.5
X161.793Y-103.725
X162.5Y-103.0
X163.0Y-86.5
X163.0Y-105.5
X164.0Y-96.5
X164.5Y-90.0
X166.5Y-83.5
X167.0Y-96.0
X167.5Y-87.0
X167.5Y-99.5
X167.558Y-104.725
X168.0Y-88.5
X169.0Y-101.0
X169.0Y-107.5
X169.5Y-105.0
X169.75Y-91.75
X171.0Y-82.5
X171.628Y-93.647
X172.5Y-101.5
X173.0Y-107.5
X173.5Y-100.0
X174.0Y-88.5
X174.0Y-104.0
X174.25Y-93.0
X174.5Y-80.0
X177.0Y-88.5
X177.0Y-97.0
X178.5Y-80.0
X178.5Y-101.5
X178.5Y-104.5
X182.0Y-82.0
X182.0Y-88.0
X182.0Y-97.0
X182.0Y-108.0
T3
X129.96Y-98.0
X132.5Y-98.0
X129.96Y-102.0
X132.5Y-102.0
X129.96Y-106.0
X132.5Y-106.0
T4
X147.0Y-107.0
X149.54Y-107.0
X152.08Y-107.0
X154.62Y-107.0
X157.16Y-107.0
X159.7Y-107.0
X162.24Y-107.0
X164.78Y-107.0
T5
X179.0Y-85.0
X179.0Y-93.0
T0
M30
