G04 #@! TF.GenerationSoftware,KiCad,Pcbnew,(5.1.0)-1*
G04 #@! TF.CreationDate,2019-06-02T21:22:59+02:00*
G04 #@! TF.ProjectId,ledpwmble,6c656470-776d-4626-9c65-2e6b69636164,rev?*
G04 #@! TF.SameCoordinates,Original*
G04 #@! TF.FileFunction,Copper,L2,Bot*
G04 #@! TF.FilePolarity,Positive*
%FSLAX46Y46*%
G04 Gerber Fmt 4.6, Leading zero omitted, Abs format (unit mm)*
G04 Created by KiCad (PCBNEW (5.1.0)-1) date 2019-06-02 21:22:59*
%MOMM*%
%LPD*%
G04 APERTURE LIST*
%ADD10C,4.000000*%
%ADD11R,1.600000X0.900000*%
%ADD12C,0.600000*%
%ADD13O,1.700000X1.700000*%
%ADD14R,1.700000X1.700000*%
%ADD15C,1.400000*%
%ADD16C,0.800000*%
%ADD17C,0.250000*%
%ADD18C,0.254000*%
G04 APERTURE END LIST*
D10*
X179000000Y-85000000D03*
X179000000Y-93000000D03*
D11*
X172400000Y-91000000D03*
D12*
X171900000Y-91000000D03*
X172900000Y-91000000D03*
D13*
X164780000Y-107000000D03*
X162240000Y-107000000D03*
X159700000Y-107000000D03*
X157160000Y-107000000D03*
X154620000Y-107000000D03*
X152080000Y-107000000D03*
X149540000Y-107000000D03*
D14*
X147000000Y-107000000D03*
D15*
X129960000Y-98000000D03*
X132500000Y-98000000D03*
X129960000Y-102000000D03*
X132500000Y-102000000D03*
X129960000Y-106000000D03*
X132500000Y-106000000D03*
D16*
X155000000Y-86000000D03*
X153000000Y-86000000D03*
X159000000Y-95000000D03*
X152987334Y-102987347D03*
X154500000Y-90949989D03*
X182000000Y-97000000D03*
X177000000Y-97000000D03*
X182000000Y-108000000D03*
X169000000Y-107500000D03*
X161000000Y-105500000D03*
X163000000Y-105500000D03*
X158000000Y-104500000D03*
X156000000Y-104000000D03*
X148000000Y-105000000D03*
X144500000Y-108000000D03*
X142500000Y-106000000D03*
X142000000Y-104000000D03*
X145500000Y-102500000D03*
X139500000Y-104000000D03*
X139500000Y-108000000D03*
X133000000Y-108000000D03*
X134000000Y-105000000D03*
X134000000Y-100500000D03*
X134000000Y-96500000D03*
X139500000Y-100000000D03*
X139500000Y-96000000D03*
X138500000Y-93500000D03*
X139500000Y-92000000D03*
X145000000Y-83500000D03*
X137000000Y-89500000D03*
X134000000Y-92000000D03*
X130500000Y-95000000D03*
X128500000Y-99500000D03*
X128500000Y-103500000D03*
X128500000Y-108000000D03*
X150000000Y-83500000D03*
X156500000Y-83500000D03*
X144500000Y-86500000D03*
X149500000Y-86000000D03*
X151000000Y-90500000D03*
X146000000Y-88500000D03*
X155500000Y-94500000D03*
X150500000Y-99500000D03*
X153000000Y-99500000D03*
X150500000Y-95500000D03*
X156000000Y-90500000D03*
X159000000Y-90500000D03*
X158000000Y-86500000D03*
X163000000Y-86500000D03*
X164500000Y-90000000D03*
X168000000Y-88500000D03*
X161500000Y-83500000D03*
X166500000Y-83500000D03*
X171000000Y-82500000D03*
X174500000Y-80000000D03*
X178500000Y-80000000D03*
X182000000Y-82000000D03*
X182000000Y-88000000D03*
X177000000Y-88500000D03*
X174000000Y-88500000D03*
X167500000Y-99500000D03*
X164000000Y-96500000D03*
X173500000Y-100000000D03*
X172500000Y-101500000D03*
X148000000Y-101500000D03*
X157000000Y-103000000D03*
X159500000Y-99500000D03*
X161000000Y-100000000D03*
X167500000Y-87000000D03*
X169500000Y-105000000D03*
X159000000Y-104000000D03*
X159500000Y-94000000D03*
X159500000Y-92000000D03*
X150500000Y-94000000D03*
X162500000Y-103000000D03*
X173000000Y-107500000D03*
X178500000Y-104500000D03*
X169000000Y-101000000D03*
X158774990Y-100487340D03*
X174000000Y-104000000D03*
X178500000Y-101500000D03*
X155487340Y-99012660D03*
X161792885Y-103725010D03*
X167557543Y-104725010D03*
X174250000Y-93000000D03*
X171628032Y-93647287D03*
X154000000Y-103000000D03*
X147000000Y-103500000D03*
X154500000Y-104000000D03*
X148500000Y-103725010D03*
X155000000Y-100000000D03*
X141000000Y-95500000D03*
X169750000Y-91750000D03*
X167000000Y-96000000D03*
D17*
X167500000Y-99500000D02*
X164500000Y-96500000D01*
X164500000Y-96500000D02*
X164000000Y-96500000D01*
X173500000Y-100500000D02*
X172500000Y-101500000D01*
X173500000Y-100000000D02*
X173500000Y-100500000D01*
X148000000Y-101500000D02*
X155000000Y-101500000D01*
X155000000Y-101500000D02*
X155500000Y-101500000D01*
X155500000Y-101500000D02*
X157000000Y-103000000D01*
X159500000Y-99500000D02*
X160500000Y-99500000D01*
X160500000Y-99500000D02*
X161000000Y-100000000D01*
X129960000Y-105010051D02*
X129960000Y-102000000D01*
X129960000Y-106000000D02*
X129960000Y-105010051D01*
X129960000Y-101010051D02*
X129960000Y-98000000D01*
X129960000Y-102000000D02*
X129960000Y-101010051D01*
X164000000Y-85000000D02*
X166000000Y-87000000D01*
X130659999Y-97300001D02*
X130699999Y-97300001D01*
X129960000Y-98000000D02*
X130659999Y-97300001D01*
X130699999Y-97300001D02*
X135000000Y-93000000D01*
X166000000Y-87000000D02*
X167500000Y-87000000D01*
X135000000Y-93000000D02*
X136000000Y-93000000D01*
X136000000Y-93000000D02*
X144000000Y-85000000D01*
X144000000Y-85000000D02*
X164000000Y-85000000D01*
X169500000Y-105000000D02*
X169000000Y-105500000D01*
X169000000Y-105500000D02*
X167000000Y-105500000D01*
X167000000Y-105500000D02*
X166000000Y-104500000D01*
X166000000Y-104500000D02*
X159500000Y-104500000D01*
X159500000Y-104500000D02*
X159000000Y-104000000D01*
X159500000Y-94000000D02*
X159500000Y-92000000D01*
X173000000Y-107500000D02*
X175500000Y-107500000D01*
X175500000Y-107500000D02*
X178500000Y-104500000D01*
X158049988Y-100549988D02*
X158049988Y-100835342D01*
X150500000Y-94000000D02*
X151500000Y-94000000D01*
X160214646Y-103000000D02*
X161934315Y-103000000D01*
X151500000Y-94000000D02*
X158049988Y-100549988D01*
X158049988Y-100835342D02*
X160214646Y-103000000D01*
X161934315Y-103000000D02*
X162500000Y-103000000D01*
X159287650Y-101000000D02*
X159174989Y-100887339D01*
X159174989Y-100887339D02*
X158774990Y-100487340D01*
X169000000Y-101000000D02*
X159287650Y-101000000D01*
X174000000Y-104000000D02*
X176500000Y-101500000D01*
X176500000Y-101500000D02*
X178500000Y-101500000D01*
X155487340Y-99012660D02*
X160199690Y-103725010D01*
X160199690Y-103725010D02*
X161227200Y-103725010D01*
X161227200Y-103725010D02*
X161792885Y-103725010D01*
X168282553Y-104000000D02*
X167957542Y-104325011D01*
X167957542Y-104325011D02*
X167557543Y-104725010D01*
X174000000Y-104000000D02*
X168282553Y-104000000D01*
X174250000Y-93000000D02*
X172275319Y-93000000D01*
X172028031Y-93247288D02*
X171628032Y-93647287D01*
X172275319Y-93000000D02*
X172028031Y-93247288D01*
X154000000Y-103000000D02*
X153000000Y-104000000D01*
X153000000Y-104000000D02*
X151000000Y-104000000D01*
X151000000Y-104000000D02*
X150000000Y-103000000D01*
X150000000Y-103000000D02*
X147500000Y-103000000D01*
X147500000Y-103000000D02*
X147000000Y-103500000D01*
X149225001Y-104450011D02*
X148899999Y-104125009D01*
X148899999Y-104125009D02*
X148500000Y-103725010D01*
X154500000Y-104000000D02*
X154049989Y-104450011D01*
X154049989Y-104450011D02*
X149225001Y-104450011D01*
X155000000Y-100000000D02*
X152000000Y-97000000D01*
X152000000Y-97000000D02*
X142500000Y-97000000D01*
X142500000Y-97000000D02*
X141000000Y-95500000D01*
X169750000Y-91750000D02*
X169750000Y-93250000D01*
X169750000Y-93250000D02*
X167399999Y-95600001D01*
X167399999Y-95600001D02*
X167000000Y-96000000D01*
D18*
G36*
X182557388Y-79412690D02*
G01*
X182564494Y-79414835D01*
X182571047Y-79418320D01*
X182576800Y-79423012D01*
X182581530Y-79428730D01*
X182585063Y-79435263D01*
X182587257Y-79442352D01*
X182590000Y-79468449D01*
X182590001Y-108529941D01*
X182587310Y-108557386D01*
X182585164Y-108564495D01*
X182581681Y-108571046D01*
X182576987Y-108576801D01*
X182571269Y-108581531D01*
X182564738Y-108585063D01*
X182557649Y-108587257D01*
X182531551Y-108590000D01*
X127920049Y-108590000D01*
X127892614Y-108587310D01*
X127885505Y-108585164D01*
X127878954Y-108581681D01*
X127873199Y-108576987D01*
X127868469Y-108571269D01*
X127864937Y-108564738D01*
X127862743Y-108557649D01*
X127859983Y-108531385D01*
X127850165Y-97893137D01*
X128875000Y-97893137D01*
X128875000Y-98106863D01*
X128916696Y-98316483D01*
X128998485Y-98513940D01*
X129117225Y-98691647D01*
X129268353Y-98842775D01*
X129446060Y-98961515D01*
X129450001Y-98963147D01*
X129450000Y-101035098D01*
X129450001Y-101035108D01*
X129450001Y-101036853D01*
X129446060Y-101038485D01*
X129268353Y-101157225D01*
X129117225Y-101308353D01*
X128998485Y-101486060D01*
X128916696Y-101683517D01*
X128875000Y-101893137D01*
X128875000Y-102106863D01*
X128916696Y-102316483D01*
X128998485Y-102513940D01*
X129117225Y-102691647D01*
X129268353Y-102842775D01*
X129446060Y-102961515D01*
X129450001Y-102963147D01*
X129450000Y-105035098D01*
X129450001Y-105035108D01*
X129450001Y-105036853D01*
X129446060Y-105038485D01*
X129268353Y-105157225D01*
X129117225Y-105308353D01*
X128998485Y-105486060D01*
X128916696Y-105683517D01*
X128875000Y-105893137D01*
X128875000Y-106106863D01*
X128916696Y-106316483D01*
X128998485Y-106513940D01*
X129117225Y-106691647D01*
X129268353Y-106842775D01*
X129446060Y-106961515D01*
X129643517Y-107043304D01*
X129853137Y-107085000D01*
X130066863Y-107085000D01*
X130276483Y-107043304D01*
X130473940Y-106961515D01*
X130651647Y-106842775D01*
X130802775Y-106691647D01*
X130921515Y-106513940D01*
X131003304Y-106316483D01*
X131045000Y-106106863D01*
X131045000Y-105893137D01*
X131415000Y-105893137D01*
X131415000Y-106106863D01*
X131456696Y-106316483D01*
X131538485Y-106513940D01*
X131657225Y-106691647D01*
X131808353Y-106842775D01*
X131986060Y-106961515D01*
X132183517Y-107043304D01*
X132393137Y-107085000D01*
X132606863Y-107085000D01*
X132816483Y-107043304D01*
X133013940Y-106961515D01*
X133191647Y-106842775D01*
X133342775Y-106691647D01*
X133461515Y-106513940D01*
X133543304Y-106316483D01*
X133576419Y-106150000D01*
X145763138Y-106150000D01*
X145763138Y-107850000D01*
X145770571Y-107925473D01*
X145792586Y-107998046D01*
X145828336Y-108064929D01*
X145876447Y-108123553D01*
X145935071Y-108171664D01*
X146001954Y-108207414D01*
X146074527Y-108229429D01*
X146150000Y-108236862D01*
X147850000Y-108236862D01*
X147925473Y-108229429D01*
X147998046Y-108207414D01*
X148064929Y-108171664D01*
X148123553Y-108123553D01*
X148171664Y-108064929D01*
X148207414Y-107998046D01*
X148229429Y-107925473D01*
X148236862Y-107850000D01*
X148236862Y-107700114D01*
X148344822Y-107881355D01*
X148539731Y-108097588D01*
X148773080Y-108271641D01*
X149035901Y-108396825D01*
X149183110Y-108441476D01*
X149413000Y-108320155D01*
X149413000Y-107127000D01*
X149393000Y-107127000D01*
X149393000Y-106873000D01*
X149413000Y-106873000D01*
X149413000Y-105679845D01*
X149667000Y-105679845D01*
X149667000Y-106873000D01*
X149687000Y-106873000D01*
X149687000Y-107127000D01*
X149667000Y-107127000D01*
X149667000Y-108320155D01*
X149896890Y-108441476D01*
X150044099Y-108396825D01*
X150306920Y-108271641D01*
X150540269Y-108097588D01*
X150735178Y-107881355D01*
X150884157Y-107631252D01*
X150937174Y-107481795D01*
X151048167Y-107689449D01*
X151202498Y-107877502D01*
X151390551Y-108031833D01*
X151605099Y-108146511D01*
X151837898Y-108217130D01*
X152019335Y-108235000D01*
X152140665Y-108235000D01*
X152322102Y-108217130D01*
X152554901Y-108146511D01*
X152769449Y-108031833D01*
X152957502Y-107877502D01*
X153111833Y-107689449D01*
X153226511Y-107474901D01*
X153297130Y-107242102D01*
X153320975Y-107000000D01*
X153379025Y-107000000D01*
X153402870Y-107242102D01*
X153473489Y-107474901D01*
X153588167Y-107689449D01*
X153742498Y-107877502D01*
X153930551Y-108031833D01*
X154145099Y-108146511D01*
X154377898Y-108217130D01*
X154559335Y-108235000D01*
X154680665Y-108235000D01*
X154862102Y-108217130D01*
X155094901Y-108146511D01*
X155309449Y-108031833D01*
X155497502Y-107877502D01*
X155651833Y-107689449D01*
X155766511Y-107474901D01*
X155837130Y-107242102D01*
X155860975Y-107000000D01*
X155919025Y-107000000D01*
X155942870Y-107242102D01*
X156013489Y-107474901D01*
X156128167Y-107689449D01*
X156282498Y-107877502D01*
X156470551Y-108031833D01*
X156685099Y-108146511D01*
X156917898Y-108217130D01*
X157099335Y-108235000D01*
X157220665Y-108235000D01*
X157402102Y-108217130D01*
X157634901Y-108146511D01*
X157849449Y-108031833D01*
X158037502Y-107877502D01*
X158191833Y-107689449D01*
X158306511Y-107474901D01*
X158377130Y-107242102D01*
X158400975Y-107000000D01*
X158459025Y-107000000D01*
X158482870Y-107242102D01*
X158553489Y-107474901D01*
X158668167Y-107689449D01*
X158822498Y-107877502D01*
X159010551Y-108031833D01*
X159225099Y-108146511D01*
X159457898Y-108217130D01*
X159639335Y-108235000D01*
X159760665Y-108235000D01*
X159942102Y-108217130D01*
X160174901Y-108146511D01*
X160389449Y-108031833D01*
X160577502Y-107877502D01*
X160731833Y-107689449D01*
X160842826Y-107481795D01*
X160895843Y-107631252D01*
X161044822Y-107881355D01*
X161239731Y-108097588D01*
X161473080Y-108271641D01*
X161735901Y-108396825D01*
X161883110Y-108441476D01*
X162113000Y-108320155D01*
X162113000Y-107127000D01*
X162093000Y-107127000D01*
X162093000Y-106873000D01*
X162113000Y-106873000D01*
X162113000Y-105679845D01*
X162367000Y-105679845D01*
X162367000Y-106873000D01*
X162387000Y-106873000D01*
X162387000Y-107127000D01*
X162367000Y-107127000D01*
X162367000Y-108320155D01*
X162596890Y-108441476D01*
X162744099Y-108396825D01*
X163006920Y-108271641D01*
X163240269Y-108097588D01*
X163435178Y-107881355D01*
X163584157Y-107631252D01*
X163637174Y-107481795D01*
X163748167Y-107689449D01*
X163902498Y-107877502D01*
X164090551Y-108031833D01*
X164305099Y-108146511D01*
X164537898Y-108217130D01*
X164719335Y-108235000D01*
X164840665Y-108235000D01*
X165022102Y-108217130D01*
X165254901Y-108146511D01*
X165469449Y-108031833D01*
X165657502Y-107877502D01*
X165811833Y-107689449D01*
X165926511Y-107474901D01*
X165942350Y-107422684D01*
X172215000Y-107422684D01*
X172215000Y-107577316D01*
X172245167Y-107728976D01*
X172304342Y-107871837D01*
X172390251Y-108000408D01*
X172499592Y-108109749D01*
X172628163Y-108195658D01*
X172771024Y-108254833D01*
X172922684Y-108285000D01*
X173077316Y-108285000D01*
X173228976Y-108254833D01*
X173371837Y-108195658D01*
X173500408Y-108109749D01*
X173600157Y-108010000D01*
X175474955Y-108010000D01*
X175500000Y-108012467D01*
X175525045Y-108010000D01*
X175525048Y-108010000D01*
X175599977Y-108002620D01*
X175696113Y-107973458D01*
X175784711Y-107926101D01*
X175862369Y-107862369D01*
X175878341Y-107842907D01*
X178436249Y-105285000D01*
X178577316Y-105285000D01*
X178728976Y-105254833D01*
X178871837Y-105195658D01*
X179000408Y-105109749D01*
X179109749Y-105000408D01*
X179195658Y-104871837D01*
X179254833Y-104728976D01*
X179285000Y-104577316D01*
X179285000Y-104422684D01*
X179254833Y-104271024D01*
X179195658Y-104128163D01*
X179109749Y-103999592D01*
X179000408Y-103890251D01*
X178871837Y-103804342D01*
X178728976Y-103745167D01*
X178577316Y-103715000D01*
X178422684Y-103715000D01*
X178271024Y-103745167D01*
X178128163Y-103804342D01*
X177999592Y-103890251D01*
X177890251Y-103999592D01*
X177804342Y-104128163D01*
X177745167Y-104271024D01*
X177715000Y-104422684D01*
X177715000Y-104563751D01*
X175288752Y-106990000D01*
X173600157Y-106990000D01*
X173500408Y-106890251D01*
X173371837Y-106804342D01*
X173228976Y-106745167D01*
X173077316Y-106715000D01*
X172922684Y-106715000D01*
X172771024Y-106745167D01*
X172628163Y-106804342D01*
X172499592Y-106890251D01*
X172390251Y-106999592D01*
X172304342Y-107128163D01*
X172245167Y-107271024D01*
X172215000Y-107422684D01*
X165942350Y-107422684D01*
X165997130Y-107242102D01*
X166020975Y-107000000D01*
X165997130Y-106757898D01*
X165926511Y-106525099D01*
X165811833Y-106310551D01*
X165657502Y-106122498D01*
X165469449Y-105968167D01*
X165254901Y-105853489D01*
X165022102Y-105782870D01*
X164840665Y-105765000D01*
X164719335Y-105765000D01*
X164537898Y-105782870D01*
X164305099Y-105853489D01*
X164090551Y-105968167D01*
X163902498Y-106122498D01*
X163748167Y-106310551D01*
X163637174Y-106518205D01*
X163584157Y-106368748D01*
X163435178Y-106118645D01*
X163240269Y-105902412D01*
X163006920Y-105728359D01*
X162744099Y-105603175D01*
X162596890Y-105558524D01*
X162367000Y-105679845D01*
X162113000Y-105679845D01*
X161883110Y-105558524D01*
X161735901Y-105603175D01*
X161473080Y-105728359D01*
X161239731Y-105902412D01*
X161044822Y-106118645D01*
X160895843Y-106368748D01*
X160842826Y-106518205D01*
X160731833Y-106310551D01*
X160577502Y-106122498D01*
X160389449Y-105968167D01*
X160174901Y-105853489D01*
X159942102Y-105782870D01*
X159760665Y-105765000D01*
X159639335Y-105765000D01*
X159457898Y-105782870D01*
X159225099Y-105853489D01*
X159010551Y-105968167D01*
X158822498Y-106122498D01*
X158668167Y-106310551D01*
X158553489Y-106525099D01*
X158482870Y-106757898D01*
X158459025Y-107000000D01*
X158400975Y-107000000D01*
X158377130Y-106757898D01*
X158306511Y-106525099D01*
X158191833Y-106310551D01*
X158037502Y-106122498D01*
X157849449Y-105968167D01*
X157634901Y-105853489D01*
X157402102Y-105782870D01*
X157220665Y-105765000D01*
X157099335Y-105765000D01*
X156917898Y-105782870D01*
X156685099Y-105853489D01*
X156470551Y-105968167D01*
X156282498Y-106122498D01*
X156128167Y-106310551D01*
X156013489Y-106525099D01*
X155942870Y-106757898D01*
X155919025Y-107000000D01*
X155860975Y-107000000D01*
X155837130Y-106757898D01*
X155766511Y-106525099D01*
X155651833Y-106310551D01*
X155497502Y-106122498D01*
X155309449Y-105968167D01*
X155094901Y-105853489D01*
X154862102Y-105782870D01*
X154680665Y-105765000D01*
X154559335Y-105765000D01*
X154377898Y-105782870D01*
X154145099Y-105853489D01*
X153930551Y-105968167D01*
X153742498Y-106122498D01*
X153588167Y-106310551D01*
X153473489Y-106525099D01*
X153402870Y-106757898D01*
X153379025Y-107000000D01*
X153320975Y-107000000D01*
X153297130Y-106757898D01*
X153226511Y-106525099D01*
X153111833Y-106310551D01*
X152957502Y-106122498D01*
X152769449Y-105968167D01*
X152554901Y-105853489D01*
X152322102Y-105782870D01*
X152140665Y-105765000D01*
X152019335Y-105765000D01*
X151837898Y-105782870D01*
X151605099Y-105853489D01*
X151390551Y-105968167D01*
X151202498Y-106122498D01*
X151048167Y-106310551D01*
X150937174Y-106518205D01*
X150884157Y-106368748D01*
X150735178Y-106118645D01*
X150540269Y-105902412D01*
X150306920Y-105728359D01*
X150044099Y-105603175D01*
X149896890Y-105558524D01*
X149667000Y-105679845D01*
X149413000Y-105679845D01*
X149183110Y-105558524D01*
X149035901Y-105603175D01*
X148773080Y-105728359D01*
X148539731Y-105902412D01*
X148344822Y-106118645D01*
X148236862Y-106299886D01*
X148236862Y-106150000D01*
X148229429Y-106074527D01*
X148207414Y-106001954D01*
X148171664Y-105935071D01*
X148123553Y-105876447D01*
X148064929Y-105828336D01*
X147998046Y-105792586D01*
X147925473Y-105770571D01*
X147850000Y-105763138D01*
X146150000Y-105763138D01*
X146074527Y-105770571D01*
X146001954Y-105792586D01*
X145935071Y-105828336D01*
X145876447Y-105876447D01*
X145828336Y-105935071D01*
X145792586Y-106001954D01*
X145770571Y-106074527D01*
X145763138Y-106150000D01*
X133576419Y-106150000D01*
X133585000Y-106106863D01*
X133585000Y-105893137D01*
X133543304Y-105683517D01*
X133461515Y-105486060D01*
X133342775Y-105308353D01*
X133191647Y-105157225D01*
X133013940Y-105038485D01*
X132816483Y-104956696D01*
X132606863Y-104915000D01*
X132393137Y-104915000D01*
X132183517Y-104956696D01*
X131986060Y-105038485D01*
X131808353Y-105157225D01*
X131657225Y-105308353D01*
X131538485Y-105486060D01*
X131456696Y-105683517D01*
X131415000Y-105893137D01*
X131045000Y-105893137D01*
X131003304Y-105683517D01*
X130921515Y-105486060D01*
X130802775Y-105308353D01*
X130651647Y-105157225D01*
X130473940Y-105038485D01*
X130470000Y-105036853D01*
X130470000Y-103422684D01*
X146215000Y-103422684D01*
X146215000Y-103577316D01*
X146245167Y-103728976D01*
X146304342Y-103871837D01*
X146390251Y-104000408D01*
X146499592Y-104109749D01*
X146628163Y-104195658D01*
X146771024Y-104254833D01*
X146922684Y-104285000D01*
X147077316Y-104285000D01*
X147228976Y-104254833D01*
X147371837Y-104195658D01*
X147500408Y-104109749D01*
X147609749Y-104000408D01*
X147695658Y-103871837D01*
X147718066Y-103817740D01*
X147745167Y-103953986D01*
X147804342Y-104096847D01*
X147890251Y-104225418D01*
X147999592Y-104334759D01*
X148128163Y-104420668D01*
X148271024Y-104479843D01*
X148422684Y-104510010D01*
X148563752Y-104510010D01*
X148846660Y-104792918D01*
X148862632Y-104812380D01*
X148940290Y-104876112D01*
X149028888Y-104923469D01*
X149125024Y-104952631D01*
X149199953Y-104960011D01*
X149199963Y-104960011D01*
X149225000Y-104962477D01*
X149250038Y-104960011D01*
X154024944Y-104960011D01*
X154049989Y-104962478D01*
X154075034Y-104960011D01*
X154075037Y-104960011D01*
X154149966Y-104952631D01*
X154246102Y-104923469D01*
X154334700Y-104876112D01*
X154412358Y-104812380D01*
X154428330Y-104792919D01*
X154436248Y-104785000D01*
X154577316Y-104785000D01*
X154728976Y-104754833D01*
X154871837Y-104695658D01*
X155000408Y-104609749D01*
X155109749Y-104500408D01*
X155195658Y-104371837D01*
X155254833Y-104228976D01*
X155285000Y-104077316D01*
X155285000Y-103922684D01*
X155254833Y-103771024D01*
X155195658Y-103628163D01*
X155109749Y-103499592D01*
X155000408Y-103390251D01*
X154871837Y-103304342D01*
X154745322Y-103251938D01*
X154754833Y-103228976D01*
X154785000Y-103077316D01*
X154785000Y-102922684D01*
X154754833Y-102771024D01*
X154695658Y-102628163D01*
X154609749Y-102499592D01*
X154500408Y-102390251D01*
X154371837Y-102304342D01*
X154228976Y-102245167D01*
X154077316Y-102215000D01*
X153922684Y-102215000D01*
X153771024Y-102245167D01*
X153628163Y-102304342D01*
X153499592Y-102390251D01*
X153390251Y-102499592D01*
X153304342Y-102628163D01*
X153245167Y-102771024D01*
X153215000Y-102922684D01*
X153215000Y-103063751D01*
X152788752Y-103490000D01*
X151211249Y-103490000D01*
X150378341Y-102657093D01*
X150362369Y-102637631D01*
X150284711Y-102573899D01*
X150196113Y-102526542D01*
X150099977Y-102497380D01*
X150025048Y-102490000D01*
X150025045Y-102490000D01*
X150000000Y-102487533D01*
X149974955Y-102490000D01*
X147525048Y-102490000D01*
X147500000Y-102487533D01*
X147400022Y-102497380D01*
X147345431Y-102513940D01*
X147303887Y-102526542D01*
X147215289Y-102573899D01*
X147137631Y-102637631D01*
X147121665Y-102657086D01*
X147063751Y-102715000D01*
X146922684Y-102715000D01*
X146771024Y-102745167D01*
X146628163Y-102804342D01*
X146499592Y-102890251D01*
X146390251Y-102999592D01*
X146304342Y-103128163D01*
X146245167Y-103271024D01*
X146215000Y-103422684D01*
X130470000Y-103422684D01*
X130470000Y-102963147D01*
X130473940Y-102961515D01*
X130651647Y-102842775D01*
X130802775Y-102691647D01*
X130921515Y-102513940D01*
X131003304Y-102316483D01*
X131045000Y-102106863D01*
X131045000Y-101893137D01*
X131415000Y-101893137D01*
X131415000Y-102106863D01*
X131456696Y-102316483D01*
X131538485Y-102513940D01*
X131657225Y-102691647D01*
X131808353Y-102842775D01*
X131986060Y-102961515D01*
X132183517Y-103043304D01*
X132393137Y-103085000D01*
X132606863Y-103085000D01*
X132816483Y-103043304D01*
X133013940Y-102961515D01*
X133191647Y-102842775D01*
X133342775Y-102691647D01*
X133461515Y-102513940D01*
X133543304Y-102316483D01*
X133585000Y-102106863D01*
X133585000Y-101893137D01*
X133543304Y-101683517D01*
X133461515Y-101486060D01*
X133419169Y-101422684D01*
X147215000Y-101422684D01*
X147215000Y-101577316D01*
X147245167Y-101728976D01*
X147304342Y-101871837D01*
X147390251Y-102000408D01*
X147499592Y-102109749D01*
X147628163Y-102195658D01*
X147771024Y-102254833D01*
X147922684Y-102285000D01*
X148077316Y-102285000D01*
X148228976Y-102254833D01*
X148371837Y-102195658D01*
X148500408Y-102109749D01*
X148600157Y-102010000D01*
X155288752Y-102010000D01*
X156215000Y-102936249D01*
X156215000Y-103077316D01*
X156245167Y-103228976D01*
X156304342Y-103371837D01*
X156390251Y-103500408D01*
X156499592Y-103609749D01*
X156628163Y-103695658D01*
X156771024Y-103754833D01*
X156922684Y-103785000D01*
X157077316Y-103785000D01*
X157228976Y-103754833D01*
X157371837Y-103695658D01*
X157500408Y-103609749D01*
X157609749Y-103500408D01*
X157695658Y-103371837D01*
X157754833Y-103228976D01*
X157785000Y-103077316D01*
X157785000Y-102922684D01*
X157754833Y-102771024D01*
X157695658Y-102628163D01*
X157609749Y-102499592D01*
X157500408Y-102390251D01*
X157371837Y-102304342D01*
X157228976Y-102245167D01*
X157077316Y-102215000D01*
X156936249Y-102215000D01*
X155878341Y-101157093D01*
X155862369Y-101137631D01*
X155784711Y-101073899D01*
X155696113Y-101026542D01*
X155599977Y-100997380D01*
X155525048Y-100990000D01*
X155525045Y-100990000D01*
X155500000Y-100987533D01*
X155474955Y-100990000D01*
X148600157Y-100990000D01*
X148500408Y-100890251D01*
X148371837Y-100804342D01*
X148228976Y-100745167D01*
X148077316Y-100715000D01*
X147922684Y-100715000D01*
X147771024Y-100745167D01*
X147628163Y-100804342D01*
X147499592Y-100890251D01*
X147390251Y-100999592D01*
X147304342Y-101128163D01*
X147245167Y-101271024D01*
X147215000Y-101422684D01*
X133419169Y-101422684D01*
X133342775Y-101308353D01*
X133191647Y-101157225D01*
X133013940Y-101038485D01*
X132816483Y-100956696D01*
X132606863Y-100915000D01*
X132393137Y-100915000D01*
X132183517Y-100956696D01*
X131986060Y-101038485D01*
X131808353Y-101157225D01*
X131657225Y-101308353D01*
X131538485Y-101486060D01*
X131456696Y-101683517D01*
X131415000Y-101893137D01*
X131045000Y-101893137D01*
X131003304Y-101683517D01*
X130921515Y-101486060D01*
X130802775Y-101308353D01*
X130651647Y-101157225D01*
X130473940Y-101038485D01*
X130470000Y-101036853D01*
X130470000Y-98963147D01*
X130473940Y-98961515D01*
X130651647Y-98842775D01*
X130802775Y-98691647D01*
X130921515Y-98513940D01*
X131003304Y-98316483D01*
X131045000Y-98106863D01*
X131045000Y-97893137D01*
X131415000Y-97893137D01*
X131415000Y-98106863D01*
X131456696Y-98316483D01*
X131538485Y-98513940D01*
X131657225Y-98691647D01*
X131808353Y-98842775D01*
X131986060Y-98961515D01*
X132183517Y-99043304D01*
X132393137Y-99085000D01*
X132606863Y-99085000D01*
X132816483Y-99043304D01*
X133013940Y-98961515D01*
X133191647Y-98842775D01*
X133342775Y-98691647D01*
X133461515Y-98513940D01*
X133543304Y-98316483D01*
X133585000Y-98106863D01*
X133585000Y-97893137D01*
X133543304Y-97683517D01*
X133461515Y-97486060D01*
X133342775Y-97308353D01*
X133191647Y-97157225D01*
X133013940Y-97038485D01*
X132816483Y-96956696D01*
X132606863Y-96915000D01*
X132393137Y-96915000D01*
X132183517Y-96956696D01*
X131986060Y-97038485D01*
X131808353Y-97157225D01*
X131657225Y-97308353D01*
X131538485Y-97486060D01*
X131456696Y-97683517D01*
X131415000Y-97893137D01*
X131045000Y-97893137D01*
X131007977Y-97707008D01*
X131062368Y-97662370D01*
X131078340Y-97642908D01*
X133298564Y-95422684D01*
X140215000Y-95422684D01*
X140215000Y-95577316D01*
X140245167Y-95728976D01*
X140304342Y-95871837D01*
X140390251Y-96000408D01*
X140499592Y-96109749D01*
X140628163Y-96195658D01*
X140771024Y-96254833D01*
X140922684Y-96285000D01*
X141063752Y-96285000D01*
X142121663Y-97342912D01*
X142137631Y-97362369D01*
X142215289Y-97426101D01*
X142303887Y-97473458D01*
X142400023Y-97502620D01*
X142474952Y-97510000D01*
X142474961Y-97510000D01*
X142499999Y-97512466D01*
X142525037Y-97510000D01*
X151788752Y-97510000D01*
X154215000Y-99936249D01*
X154215000Y-100077316D01*
X154245167Y-100228976D01*
X154304342Y-100371837D01*
X154390251Y-100500408D01*
X154499592Y-100609749D01*
X154628163Y-100695658D01*
X154771024Y-100754833D01*
X154922684Y-100785000D01*
X155077316Y-100785000D01*
X155228976Y-100754833D01*
X155371837Y-100695658D01*
X155500408Y-100609749D01*
X155609749Y-100500408D01*
X155695658Y-100371837D01*
X155754833Y-100228976D01*
X155785000Y-100077316D01*
X155785000Y-100031568D01*
X158968431Y-103215000D01*
X158922684Y-103215000D01*
X158771024Y-103245167D01*
X158628163Y-103304342D01*
X158499592Y-103390251D01*
X158390251Y-103499592D01*
X158304342Y-103628163D01*
X158245167Y-103771024D01*
X158215000Y-103922684D01*
X158215000Y-104077316D01*
X158245167Y-104228976D01*
X158304342Y-104371837D01*
X158390251Y-104500408D01*
X158499592Y-104609749D01*
X158628163Y-104695658D01*
X158771024Y-104754833D01*
X158922684Y-104785000D01*
X159063751Y-104785000D01*
X159121663Y-104842912D01*
X159137631Y-104862369D01*
X159215289Y-104926101D01*
X159264921Y-104952630D01*
X159303887Y-104973458D01*
X159400022Y-105002620D01*
X159500000Y-105012467D01*
X159525048Y-105010000D01*
X165788752Y-105010000D01*
X166621664Y-105842912D01*
X166637631Y-105862369D01*
X166715289Y-105926101D01*
X166732071Y-105935071D01*
X166803887Y-105973458D01*
X166900022Y-106002620D01*
X167000000Y-106012467D01*
X167025048Y-106010000D01*
X168974955Y-106010000D01*
X169000000Y-106012467D01*
X169025045Y-106010000D01*
X169025048Y-106010000D01*
X169099977Y-106002620D01*
X169196113Y-105973458D01*
X169284711Y-105926101D01*
X169362369Y-105862369D01*
X169378341Y-105842907D01*
X169436248Y-105785000D01*
X169577316Y-105785000D01*
X169728976Y-105754833D01*
X169871837Y-105695658D01*
X170000408Y-105609749D01*
X170109749Y-105500408D01*
X170195658Y-105371837D01*
X170254833Y-105228976D01*
X170285000Y-105077316D01*
X170285000Y-104922684D01*
X170254833Y-104771024D01*
X170195658Y-104628163D01*
X170116703Y-104510000D01*
X173399843Y-104510000D01*
X173499592Y-104609749D01*
X173628163Y-104695658D01*
X173771024Y-104754833D01*
X173922684Y-104785000D01*
X174077316Y-104785000D01*
X174228976Y-104754833D01*
X174371837Y-104695658D01*
X174500408Y-104609749D01*
X174609749Y-104500408D01*
X174695658Y-104371837D01*
X174754833Y-104228976D01*
X174785000Y-104077316D01*
X174785000Y-103936248D01*
X176711249Y-102010000D01*
X177899843Y-102010000D01*
X177999592Y-102109749D01*
X178128163Y-102195658D01*
X178271024Y-102254833D01*
X178422684Y-102285000D01*
X178577316Y-102285000D01*
X178728976Y-102254833D01*
X178871837Y-102195658D01*
X179000408Y-102109749D01*
X179109749Y-102000408D01*
X179195658Y-101871837D01*
X179254833Y-101728976D01*
X179285000Y-101577316D01*
X179285000Y-101422684D01*
X179254833Y-101271024D01*
X179195658Y-101128163D01*
X179109749Y-100999592D01*
X179000408Y-100890251D01*
X178871837Y-100804342D01*
X178728976Y-100745167D01*
X178577316Y-100715000D01*
X178422684Y-100715000D01*
X178271024Y-100745167D01*
X178128163Y-100804342D01*
X177999592Y-100890251D01*
X177899843Y-100990000D01*
X176525048Y-100990000D01*
X176500000Y-100987533D01*
X176400022Y-100997380D01*
X176314093Y-101023446D01*
X176303887Y-101026542D01*
X176215289Y-101073899D01*
X176137631Y-101137631D01*
X176121664Y-101157087D01*
X174063752Y-103215000D01*
X173922684Y-103215000D01*
X173771024Y-103245167D01*
X173628163Y-103304342D01*
X173499592Y-103390251D01*
X173399843Y-103490000D01*
X168307601Y-103490000D01*
X168282553Y-103487533D01*
X168182575Y-103497380D01*
X168086440Y-103526542D01*
X167997842Y-103573899D01*
X167920184Y-103637631D01*
X167904212Y-103657093D01*
X167621295Y-103940010D01*
X167480227Y-103940010D01*
X167328567Y-103970177D01*
X167185706Y-104029352D01*
X167057135Y-104115261D01*
X166947794Y-104224602D01*
X166861885Y-104353173D01*
X166802710Y-104496034D01*
X166788537Y-104567288D01*
X166378341Y-104157093D01*
X166362369Y-104137631D01*
X166284711Y-104073899D01*
X166196113Y-104026542D01*
X166099977Y-103997380D01*
X166025048Y-103990000D01*
X166025045Y-103990000D01*
X166000000Y-103987533D01*
X165974955Y-103990000D01*
X162532801Y-103990000D01*
X162547718Y-103953986D01*
X162577885Y-103802326D01*
X162577885Y-103784887D01*
X162728976Y-103754833D01*
X162871837Y-103695658D01*
X163000408Y-103609749D01*
X163109749Y-103500408D01*
X163195658Y-103371837D01*
X163254833Y-103228976D01*
X163285000Y-103077316D01*
X163285000Y-102922684D01*
X163254833Y-102771024D01*
X163195658Y-102628163D01*
X163109749Y-102499592D01*
X163000408Y-102390251D01*
X162871837Y-102304342D01*
X162728976Y-102245167D01*
X162577316Y-102215000D01*
X162422684Y-102215000D01*
X162271024Y-102245167D01*
X162128163Y-102304342D01*
X161999592Y-102390251D01*
X161899843Y-102490000D01*
X160425895Y-102490000D01*
X159445894Y-101510000D01*
X168399843Y-101510000D01*
X168499592Y-101609749D01*
X168628163Y-101695658D01*
X168771024Y-101754833D01*
X168922684Y-101785000D01*
X169077316Y-101785000D01*
X169228976Y-101754833D01*
X169371837Y-101695658D01*
X169500408Y-101609749D01*
X169609749Y-101500408D01*
X169661682Y-101422684D01*
X171715000Y-101422684D01*
X171715000Y-101577316D01*
X171745167Y-101728976D01*
X171804342Y-101871837D01*
X171890251Y-102000408D01*
X171999592Y-102109749D01*
X172128163Y-102195658D01*
X172271024Y-102254833D01*
X172422684Y-102285000D01*
X172577316Y-102285000D01*
X172728976Y-102254833D01*
X172871837Y-102195658D01*
X173000408Y-102109749D01*
X173109749Y-102000408D01*
X173195658Y-101871837D01*
X173254833Y-101728976D01*
X173285000Y-101577316D01*
X173285000Y-101436248D01*
X173842912Y-100878336D01*
X173862369Y-100862369D01*
X173926101Y-100784711D01*
X173973458Y-100696113D01*
X173999465Y-100610379D01*
X174000408Y-100609749D01*
X174109749Y-100500408D01*
X174195658Y-100371837D01*
X174254833Y-100228976D01*
X174285000Y-100077316D01*
X174285000Y-99922684D01*
X174254833Y-99771024D01*
X174195658Y-99628163D01*
X174109749Y-99499592D01*
X174000408Y-99390251D01*
X173871837Y-99304342D01*
X173728976Y-99245167D01*
X173577316Y-99215000D01*
X173422684Y-99215000D01*
X173271024Y-99245167D01*
X173128163Y-99304342D01*
X172999592Y-99390251D01*
X172890251Y-99499592D01*
X172804342Y-99628163D01*
X172745167Y-99771024D01*
X172715000Y-99922684D01*
X172715000Y-100077316D01*
X172745167Y-100228976D01*
X172804342Y-100371837D01*
X172845427Y-100433324D01*
X172563752Y-100715000D01*
X172422684Y-100715000D01*
X172271024Y-100745167D01*
X172128163Y-100804342D01*
X171999592Y-100890251D01*
X171890251Y-100999592D01*
X171804342Y-101128163D01*
X171745167Y-101271024D01*
X171715000Y-101422684D01*
X169661682Y-101422684D01*
X169695658Y-101371837D01*
X169754833Y-101228976D01*
X169785000Y-101077316D01*
X169785000Y-100922684D01*
X169754833Y-100771024D01*
X169695658Y-100628163D01*
X169609749Y-100499592D01*
X169500408Y-100390251D01*
X169371837Y-100304342D01*
X169228976Y-100245167D01*
X169077316Y-100215000D01*
X168922684Y-100215000D01*
X168771024Y-100245167D01*
X168628163Y-100304342D01*
X168499592Y-100390251D01*
X168399843Y-100490000D01*
X161616703Y-100490000D01*
X161695658Y-100371837D01*
X161754833Y-100228976D01*
X161785000Y-100077316D01*
X161785000Y-99922684D01*
X161754833Y-99771024D01*
X161695658Y-99628163D01*
X161609749Y-99499592D01*
X161500408Y-99390251D01*
X161371837Y-99304342D01*
X161228976Y-99245167D01*
X161077316Y-99215000D01*
X160936248Y-99215000D01*
X160878341Y-99157093D01*
X160862369Y-99137631D01*
X160784711Y-99073899D01*
X160696113Y-99026542D01*
X160599977Y-98997380D01*
X160525048Y-98990000D01*
X160525045Y-98990000D01*
X160500000Y-98987533D01*
X160474955Y-98990000D01*
X160100157Y-98990000D01*
X160000408Y-98890251D01*
X159871837Y-98804342D01*
X159728976Y-98745167D01*
X159577316Y-98715000D01*
X159422684Y-98715000D01*
X159271024Y-98745167D01*
X159128163Y-98804342D01*
X158999592Y-98890251D01*
X158890251Y-98999592D01*
X158804342Y-99128163D01*
X158745167Y-99271024D01*
X158715000Y-99422684D01*
X158715000Y-99577316D01*
X158739869Y-99702340D01*
X158697674Y-99702340D01*
X158546014Y-99732507D01*
X158403153Y-99791682D01*
X158274582Y-99877591D01*
X158186711Y-99965462D01*
X154643933Y-96422684D01*
X163215000Y-96422684D01*
X163215000Y-96577316D01*
X163245167Y-96728976D01*
X163304342Y-96871837D01*
X163390251Y-97000408D01*
X163499592Y-97109749D01*
X163628163Y-97195658D01*
X163771024Y-97254833D01*
X163922684Y-97285000D01*
X164077316Y-97285000D01*
X164228976Y-97254833D01*
X164371837Y-97195658D01*
X164433325Y-97154573D01*
X166715000Y-99436249D01*
X166715000Y-99577316D01*
X166745167Y-99728976D01*
X166804342Y-99871837D01*
X166890251Y-100000408D01*
X166999592Y-100109749D01*
X167128163Y-100195658D01*
X167271024Y-100254833D01*
X167422684Y-100285000D01*
X167577316Y-100285000D01*
X167728976Y-100254833D01*
X167871837Y-100195658D01*
X168000408Y-100109749D01*
X168109749Y-100000408D01*
X168195658Y-99871837D01*
X168254833Y-99728976D01*
X168285000Y-99577316D01*
X168285000Y-99422684D01*
X168254833Y-99271024D01*
X168195658Y-99128163D01*
X168109749Y-98999592D01*
X168000408Y-98890251D01*
X167871837Y-98804342D01*
X167728976Y-98745167D01*
X167577316Y-98715000D01*
X167436249Y-98715000D01*
X164878341Y-96157093D01*
X164862369Y-96137631D01*
X164784711Y-96073899D01*
X164696113Y-96026542D01*
X164610379Y-96000535D01*
X164609749Y-95999592D01*
X164532841Y-95922684D01*
X166215000Y-95922684D01*
X166215000Y-96077316D01*
X166245167Y-96228976D01*
X166304342Y-96371837D01*
X166390251Y-96500408D01*
X166499592Y-96609749D01*
X166628163Y-96695658D01*
X166771024Y-96754833D01*
X166922684Y-96785000D01*
X167077316Y-96785000D01*
X167228976Y-96754833D01*
X167371837Y-96695658D01*
X167500408Y-96609749D01*
X167609749Y-96500408D01*
X167695658Y-96371837D01*
X167754833Y-96228976D01*
X167785000Y-96077316D01*
X167785000Y-95936248D01*
X170092913Y-93628336D01*
X170112369Y-93612369D01*
X170147163Y-93569971D01*
X170843032Y-93569971D01*
X170843032Y-93724603D01*
X170873199Y-93876263D01*
X170932374Y-94019124D01*
X171018283Y-94147695D01*
X171127624Y-94257036D01*
X171256195Y-94342945D01*
X171399056Y-94402120D01*
X171550716Y-94432287D01*
X171705348Y-94432287D01*
X171857008Y-94402120D01*
X171999869Y-94342945D01*
X172128440Y-94257036D01*
X172237781Y-94147695D01*
X172323690Y-94019124D01*
X172382865Y-93876263D01*
X172413032Y-93724603D01*
X172413032Y-93583535D01*
X172486567Y-93510000D01*
X173649843Y-93510000D01*
X173749592Y-93609749D01*
X173878163Y-93695658D01*
X174021024Y-93754833D01*
X174172684Y-93785000D01*
X174327316Y-93785000D01*
X174478976Y-93754833D01*
X174621837Y-93695658D01*
X174750408Y-93609749D01*
X174859749Y-93500408D01*
X174945658Y-93371837D01*
X175004833Y-93228976D01*
X175035000Y-93077316D01*
X175035000Y-92922684D01*
X175004833Y-92771024D01*
X175002379Y-92765098D01*
X176615000Y-92765098D01*
X176615000Y-93234902D01*
X176706654Y-93695679D01*
X176886440Y-94129721D01*
X177147450Y-94520349D01*
X177479651Y-94852550D01*
X177870279Y-95113560D01*
X178304321Y-95293346D01*
X178765098Y-95385000D01*
X179234902Y-95385000D01*
X179695679Y-95293346D01*
X180129721Y-95113560D01*
X180520349Y-94852550D01*
X180852550Y-94520349D01*
X181113560Y-94129721D01*
X181293346Y-93695679D01*
X181385000Y-93234902D01*
X181385000Y-92765098D01*
X181293346Y-92304321D01*
X181113560Y-91870279D01*
X180852550Y-91479651D01*
X180520349Y-91147450D01*
X180129721Y-90886440D01*
X179695679Y-90706654D01*
X179234902Y-90615000D01*
X178765098Y-90615000D01*
X178304321Y-90706654D01*
X177870279Y-90886440D01*
X177479651Y-91147450D01*
X177147450Y-91479651D01*
X176886440Y-91870279D01*
X176706654Y-92304321D01*
X176615000Y-92765098D01*
X175002379Y-92765098D01*
X174945658Y-92628163D01*
X174859749Y-92499592D01*
X174750408Y-92390251D01*
X174621837Y-92304342D01*
X174478976Y-92245167D01*
X174327316Y-92215000D01*
X174172684Y-92215000D01*
X174021024Y-92245167D01*
X173878163Y-92304342D01*
X173749592Y-92390251D01*
X173649843Y-92490000D01*
X172300363Y-92490000D01*
X172275318Y-92487533D01*
X172250273Y-92490000D01*
X172250271Y-92490000D01*
X172175342Y-92497380D01*
X172079206Y-92526542D01*
X171990608Y-92573899D01*
X171912950Y-92637631D01*
X171896978Y-92657093D01*
X171691784Y-92862287D01*
X171550716Y-92862287D01*
X171399056Y-92892454D01*
X171256195Y-92951629D01*
X171127624Y-93037538D01*
X171018283Y-93146879D01*
X170932374Y-93275450D01*
X170873199Y-93418311D01*
X170843032Y-93569971D01*
X170147163Y-93569971D01*
X170176101Y-93534711D01*
X170223458Y-93446113D01*
X170252620Y-93349977D01*
X170260000Y-93275048D01*
X170260000Y-93275039D01*
X170262466Y-93250001D01*
X170260000Y-93224963D01*
X170260000Y-92350157D01*
X170359749Y-92250408D01*
X170445658Y-92121837D01*
X170504833Y-91978976D01*
X170535000Y-91827316D01*
X170535000Y-91672684D01*
X170504833Y-91521024D01*
X170445658Y-91378163D01*
X170359749Y-91249592D01*
X170250408Y-91140251D01*
X170121837Y-91054342D01*
X169978976Y-90995167D01*
X169827316Y-90965000D01*
X169672684Y-90965000D01*
X169521024Y-90995167D01*
X169378163Y-91054342D01*
X169249592Y-91140251D01*
X169140251Y-91249592D01*
X169054342Y-91378163D01*
X168995167Y-91521024D01*
X168965000Y-91672684D01*
X168965000Y-91827316D01*
X168995167Y-91978976D01*
X169054342Y-92121837D01*
X169140251Y-92250408D01*
X169240000Y-92350157D01*
X169240001Y-93038750D01*
X167063752Y-95215000D01*
X166922684Y-95215000D01*
X166771024Y-95245167D01*
X166628163Y-95304342D01*
X166499592Y-95390251D01*
X166390251Y-95499592D01*
X166304342Y-95628163D01*
X166245167Y-95771024D01*
X166215000Y-95922684D01*
X164532841Y-95922684D01*
X164500408Y-95890251D01*
X164371837Y-95804342D01*
X164228976Y-95745167D01*
X164077316Y-95715000D01*
X163922684Y-95715000D01*
X163771024Y-95745167D01*
X163628163Y-95804342D01*
X163499592Y-95890251D01*
X163390251Y-95999592D01*
X163304342Y-96128163D01*
X163245167Y-96271024D01*
X163215000Y-96422684D01*
X154643933Y-96422684D01*
X151878341Y-93657093D01*
X151862369Y-93637631D01*
X151784711Y-93573899D01*
X151696113Y-93526542D01*
X151599977Y-93497380D01*
X151525048Y-93490000D01*
X151525045Y-93490000D01*
X151500000Y-93487533D01*
X151474955Y-93490000D01*
X151100157Y-93490000D01*
X151000408Y-93390251D01*
X150871837Y-93304342D01*
X150728976Y-93245167D01*
X150577316Y-93215000D01*
X150422684Y-93215000D01*
X150271024Y-93245167D01*
X150128163Y-93304342D01*
X149999592Y-93390251D01*
X149890251Y-93499592D01*
X149804342Y-93628163D01*
X149745167Y-93771024D01*
X149715000Y-93922684D01*
X149715000Y-94077316D01*
X149745167Y-94228976D01*
X149804342Y-94371837D01*
X149890251Y-94500408D01*
X149999592Y-94609749D01*
X150128163Y-94695658D01*
X150271024Y-94754833D01*
X150422684Y-94785000D01*
X150577316Y-94785000D01*
X150728976Y-94754833D01*
X150871837Y-94695658D01*
X151000408Y-94609749D01*
X151100157Y-94510000D01*
X151288752Y-94510000D01*
X155103664Y-98324913D01*
X154986932Y-98402911D01*
X154877591Y-98512252D01*
X154791682Y-98640823D01*
X154732507Y-98783684D01*
X154702340Y-98935344D01*
X154702340Y-98981091D01*
X152378341Y-96657093D01*
X152362369Y-96637631D01*
X152284711Y-96573899D01*
X152196113Y-96526542D01*
X152099977Y-96497380D01*
X152025048Y-96490000D01*
X152025045Y-96490000D01*
X152000000Y-96487533D01*
X151974955Y-96490000D01*
X142711249Y-96490000D01*
X141785000Y-95563752D01*
X141785000Y-95422684D01*
X141754833Y-95271024D01*
X141695658Y-95128163D01*
X141609749Y-94999592D01*
X141500408Y-94890251D01*
X141371837Y-94804342D01*
X141228976Y-94745167D01*
X141077316Y-94715000D01*
X140922684Y-94715000D01*
X140771024Y-94745167D01*
X140628163Y-94804342D01*
X140499592Y-94890251D01*
X140390251Y-94999592D01*
X140304342Y-95128163D01*
X140245167Y-95271024D01*
X140215000Y-95422684D01*
X133298564Y-95422684D01*
X135211249Y-93510000D01*
X135974955Y-93510000D01*
X136000000Y-93512467D01*
X136025045Y-93510000D01*
X136025048Y-93510000D01*
X136099977Y-93502620D01*
X136196113Y-93473458D01*
X136284711Y-93426101D01*
X136362369Y-93362369D01*
X136378341Y-93342907D01*
X137798564Y-91922684D01*
X158715000Y-91922684D01*
X158715000Y-92077316D01*
X158745167Y-92228976D01*
X158804342Y-92371837D01*
X158890251Y-92500408D01*
X158990001Y-92600158D01*
X158990000Y-93399843D01*
X158890251Y-93499592D01*
X158804342Y-93628163D01*
X158745167Y-93771024D01*
X158715000Y-93922684D01*
X158715000Y-94077316D01*
X158745167Y-94228976D01*
X158804342Y-94371837D01*
X158890251Y-94500408D01*
X158999592Y-94609749D01*
X159128163Y-94695658D01*
X159271024Y-94754833D01*
X159422684Y-94785000D01*
X159577316Y-94785000D01*
X159728976Y-94754833D01*
X159871837Y-94695658D01*
X160000408Y-94609749D01*
X160109749Y-94500408D01*
X160195658Y-94371837D01*
X160254833Y-94228976D01*
X160285000Y-94077316D01*
X160285000Y-93922684D01*
X160254833Y-93771024D01*
X160195658Y-93628163D01*
X160109749Y-93499592D01*
X160010000Y-93399843D01*
X160010000Y-92600157D01*
X160109749Y-92500408D01*
X160195658Y-92371837D01*
X160254833Y-92228976D01*
X160285000Y-92077316D01*
X160285000Y-91922684D01*
X160254833Y-91771024D01*
X160195658Y-91628163D01*
X160109749Y-91499592D01*
X160000408Y-91390251D01*
X159871837Y-91304342D01*
X159728976Y-91245167D01*
X159577316Y-91215000D01*
X159422684Y-91215000D01*
X159271024Y-91245167D01*
X159128163Y-91304342D01*
X158999592Y-91390251D01*
X158890251Y-91499592D01*
X158804342Y-91628163D01*
X158745167Y-91771024D01*
X158715000Y-91922684D01*
X137798564Y-91922684D01*
X139171248Y-90550000D01*
X170961928Y-90550000D01*
X170965000Y-90714250D01*
X170997243Y-90746493D01*
X170971836Y-90872998D01*
X170965000Y-90872998D01*
X170965000Y-90998534D01*
X170964829Y-91090355D01*
X170965000Y-91091223D01*
X170965000Y-91127002D01*
X170972048Y-91127002D01*
X170997013Y-91253737D01*
X170965000Y-91285750D01*
X170961928Y-91450000D01*
X170974188Y-91574482D01*
X171010498Y-91694180D01*
X171069463Y-91804494D01*
X171148815Y-91901185D01*
X171245506Y-91980537D01*
X171355820Y-92039502D01*
X171475518Y-92075812D01*
X171600000Y-92088072D01*
X172114250Y-92085000D01*
X172273000Y-91926250D01*
X172273000Y-91857571D01*
X172341351Y-91829408D01*
X172344425Y-91827763D01*
X172349751Y-91729857D01*
X172400000Y-91679608D01*
X172450249Y-91729857D01*
X172455575Y-91827763D01*
X172527000Y-91857504D01*
X172527000Y-91926250D01*
X172685750Y-92085000D01*
X173200000Y-92088072D01*
X173324482Y-92075812D01*
X173444180Y-92039502D01*
X173554494Y-91980537D01*
X173651185Y-91901185D01*
X173730537Y-91804494D01*
X173789502Y-91694180D01*
X173825812Y-91574482D01*
X173838072Y-91450000D01*
X173835000Y-91285750D01*
X173802757Y-91253507D01*
X173828164Y-91127002D01*
X173835000Y-91127002D01*
X173835000Y-91001466D01*
X173835171Y-90909645D01*
X173835000Y-90908777D01*
X173835000Y-90872998D01*
X173827952Y-90872998D01*
X173802987Y-90746263D01*
X173835000Y-90714250D01*
X173838072Y-90550000D01*
X173825812Y-90425518D01*
X173789502Y-90305820D01*
X173730537Y-90195506D01*
X173651185Y-90098815D01*
X173554494Y-90019463D01*
X173444180Y-89960498D01*
X173324482Y-89924188D01*
X173200000Y-89911928D01*
X172685750Y-89915000D01*
X172527000Y-90073750D01*
X172527000Y-90142429D01*
X172458649Y-90170592D01*
X172455575Y-90172237D01*
X172450249Y-90270143D01*
X172400000Y-90320392D01*
X172349751Y-90270143D01*
X172344425Y-90172237D01*
X172273000Y-90142496D01*
X172273000Y-90073750D01*
X172114250Y-89915000D01*
X171600000Y-89911928D01*
X171475518Y-89924188D01*
X171355820Y-89960498D01*
X171245506Y-90019463D01*
X171148815Y-90098815D01*
X171069463Y-90195506D01*
X171010498Y-90305820D01*
X170974188Y-90425518D01*
X170961928Y-90550000D01*
X139171248Y-90550000D01*
X144211249Y-85510000D01*
X163788752Y-85510000D01*
X165621659Y-87342907D01*
X165637631Y-87362369D01*
X165715289Y-87426101D01*
X165803887Y-87473458D01*
X165900023Y-87502620D01*
X165974952Y-87510000D01*
X165974954Y-87510000D01*
X165999999Y-87512467D01*
X166025044Y-87510000D01*
X166899843Y-87510000D01*
X166999592Y-87609749D01*
X167128163Y-87695658D01*
X167271024Y-87754833D01*
X167422684Y-87785000D01*
X167577316Y-87785000D01*
X167728976Y-87754833D01*
X167871837Y-87695658D01*
X168000408Y-87609749D01*
X168109749Y-87500408D01*
X168195658Y-87371837D01*
X168254833Y-87228976D01*
X168285000Y-87077316D01*
X168285000Y-86922684D01*
X168254833Y-86771024D01*
X168195658Y-86628163D01*
X168109749Y-86499592D01*
X168000408Y-86390251D01*
X167871837Y-86304342D01*
X167728976Y-86245167D01*
X167577316Y-86215000D01*
X167422684Y-86215000D01*
X167271024Y-86245167D01*
X167128163Y-86304342D01*
X166999592Y-86390251D01*
X166899843Y-86490000D01*
X166211248Y-86490000D01*
X164486346Y-84765098D01*
X176615000Y-84765098D01*
X176615000Y-85234902D01*
X176706654Y-85695679D01*
X176886440Y-86129721D01*
X177147450Y-86520349D01*
X177479651Y-86852550D01*
X177870279Y-87113560D01*
X178304321Y-87293346D01*
X178765098Y-87385000D01*
X179234902Y-87385000D01*
X179695679Y-87293346D01*
X180129721Y-87113560D01*
X180520349Y-86852550D01*
X180852550Y-86520349D01*
X181113560Y-86129721D01*
X181293346Y-85695679D01*
X181385000Y-85234902D01*
X181385000Y-84765098D01*
X181293346Y-84304321D01*
X181113560Y-83870279D01*
X180852550Y-83479651D01*
X180520349Y-83147450D01*
X180129721Y-82886440D01*
X179695679Y-82706654D01*
X179234902Y-82615000D01*
X178765098Y-82615000D01*
X178304321Y-82706654D01*
X177870279Y-82886440D01*
X177479651Y-83147450D01*
X177147450Y-83479651D01*
X176886440Y-83870279D01*
X176706654Y-84304321D01*
X176615000Y-84765098D01*
X164486346Y-84765098D01*
X164378341Y-84657093D01*
X164362369Y-84637631D01*
X164284711Y-84573899D01*
X164196113Y-84526542D01*
X164099977Y-84497380D01*
X164025048Y-84490000D01*
X164025045Y-84490000D01*
X164000000Y-84487533D01*
X163974955Y-84490000D01*
X144025037Y-84490000D01*
X143999999Y-84487534D01*
X143974961Y-84490000D01*
X143974952Y-84490000D01*
X143900023Y-84497380D01*
X143803887Y-84526542D01*
X143715289Y-84573899D01*
X143637631Y-84637631D01*
X143621664Y-84657087D01*
X135788752Y-92490000D01*
X135025048Y-92490000D01*
X135000000Y-92487533D01*
X134900022Y-92497380D01*
X134875453Y-92504833D01*
X134803887Y-92526542D01*
X134715289Y-92573899D01*
X134637631Y-92637631D01*
X134621664Y-92657087D01*
X130438800Y-96839952D01*
X130375288Y-96873900D01*
X130297630Y-96937632D01*
X130281662Y-96957089D01*
X130280423Y-96958328D01*
X130276483Y-96956696D01*
X130066863Y-96915000D01*
X129853137Y-96915000D01*
X129643517Y-96956696D01*
X129446060Y-97038485D01*
X129268353Y-97157225D01*
X129117225Y-97308353D01*
X128998485Y-97486060D01*
X128916696Y-97683517D01*
X128875000Y-97893137D01*
X127850165Y-97893137D01*
X127849359Y-97019864D01*
X127863661Y-96874003D01*
X127900254Y-96752801D01*
X127959689Y-96641020D01*
X128042204Y-96539845D01*
X144159928Y-82910000D01*
X169470134Y-82910000D01*
X169486009Y-82908436D01*
X169486253Y-82908439D01*
X169491951Y-82907901D01*
X169508157Y-82906255D01*
X169530374Y-82904067D01*
X169540190Y-82901089D01*
X169557527Y-82897594D01*
X169594037Y-82890761D01*
X169599514Y-82889128D01*
X169599516Y-82889128D01*
X169599518Y-82889127D01*
X169599522Y-82889126D01*
X169627517Y-82880567D01*
X169661844Y-82866278D01*
X169696328Y-82852485D01*
X169701387Y-82849818D01*
X169701391Y-82849816D01*
X169701394Y-82849814D01*
X169727192Y-82835981D01*
X169758054Y-82815321D01*
X169789236Y-82795071D01*
X169793679Y-82791472D01*
X169793685Y-82791468D01*
X169793690Y-82791463D01*
X169811975Y-82776444D01*
X174147075Y-79410000D01*
X182529951Y-79410000D01*
X182557388Y-79412690D01*
X182557388Y-79412690D01*
G37*
X182557388Y-79412690D02*
X182564494Y-79414835D01*
X182571047Y-79418320D01*
X182576800Y-79423012D01*
X182581530Y-79428730D01*
X182585063Y-79435263D01*
X182587257Y-79442352D01*
X182590000Y-79468449D01*
X182590001Y-108529941D01*
X182587310Y-108557386D01*
X182585164Y-108564495D01*
X182581681Y-108571046D01*
X182576987Y-108576801D01*
X182571269Y-108581531D01*
X182564738Y-108585063D01*
X182557649Y-108587257D01*
X182531551Y-108590000D01*
X127920049Y-108590000D01*
X127892614Y-108587310D01*
X127885505Y-108585164D01*
X127878954Y-108581681D01*
X127873199Y-108576987D01*
X127868469Y-108571269D01*
X127864937Y-108564738D01*
X127862743Y-108557649D01*
X127859983Y-108531385D01*
X127850165Y-97893137D01*
X128875000Y-97893137D01*
X128875000Y-98106863D01*
X128916696Y-98316483D01*
X128998485Y-98513940D01*
X129117225Y-98691647D01*
X129268353Y-98842775D01*
X129446060Y-98961515D01*
X129450001Y-98963147D01*
X129450000Y-101035098D01*
X129450001Y-101035108D01*
X129450001Y-101036853D01*
X129446060Y-101038485D01*
X129268353Y-101157225D01*
X129117225Y-101308353D01*
X128998485Y-101486060D01*
X128916696Y-101683517D01*
X128875000Y-101893137D01*
X128875000Y-102106863D01*
X128916696Y-102316483D01*
X128998485Y-102513940D01*
X129117225Y-102691647D01*
X129268353Y-102842775D01*
X129446060Y-102961515D01*
X129450001Y-102963147D01*
X129450000Y-105035098D01*
X129450001Y-105035108D01*
X129450001Y-105036853D01*
X129446060Y-105038485D01*
X129268353Y-105157225D01*
X129117225Y-105308353D01*
X128998485Y-105486060D01*
X128916696Y-105683517D01*
X128875000Y-105893137D01*
X128875000Y-106106863D01*
X128916696Y-106316483D01*
X128998485Y-106513940D01*
X129117225Y-106691647D01*
X129268353Y-106842775D01*
X129446060Y-106961515D01*
X129643517Y-107043304D01*
X129853137Y-107085000D01*
X130066863Y-107085000D01*
X130276483Y-107043304D01*
X130473940Y-106961515D01*
X130651647Y-106842775D01*
X130802775Y-106691647D01*
X130921515Y-106513940D01*
X131003304Y-106316483D01*
X131045000Y-106106863D01*
X131045000Y-105893137D01*
X131415000Y-105893137D01*
X131415000Y-106106863D01*
X131456696Y-106316483D01*
X131538485Y-106513940D01*
X131657225Y-106691647D01*
X131808353Y-106842775D01*
X131986060Y-106961515D01*
X132183517Y-107043304D01*
X132393137Y-107085000D01*
X132606863Y-107085000D01*
X132816483Y-107043304D01*
X133013940Y-106961515D01*
X133191647Y-106842775D01*
X133342775Y-106691647D01*
X133461515Y-106513940D01*
X133543304Y-106316483D01*
X133576419Y-106150000D01*
X145763138Y-106150000D01*
X145763138Y-107850000D01*
X145770571Y-107925473D01*
X145792586Y-107998046D01*
X145828336Y-108064929D01*
X145876447Y-108123553D01*
X145935071Y-108171664D01*
X146001954Y-108207414D01*
X146074527Y-108229429D01*
X146150000Y-108236862D01*
X147850000Y-108236862D01*
X147925473Y-108229429D01*
X147998046Y-108207414D01*
X148064929Y-108171664D01*
X148123553Y-108123553D01*
X148171664Y-108064929D01*
X148207414Y-107998046D01*
X148229429Y-107925473D01*
X148236862Y-107850000D01*
X148236862Y-107700114D01*
X148344822Y-107881355D01*
X148539731Y-108097588D01*
X148773080Y-108271641D01*
X149035901Y-108396825D01*
X149183110Y-108441476D01*
X149413000Y-108320155D01*
X149413000Y-107127000D01*
X149393000Y-107127000D01*
X149393000Y-106873000D01*
X149413000Y-106873000D01*
X149413000Y-105679845D01*
X149667000Y-105679845D01*
X149667000Y-106873000D01*
X149687000Y-106873000D01*
X149687000Y-107127000D01*
X149667000Y-107127000D01*
X149667000Y-108320155D01*
X149896890Y-108441476D01*
X150044099Y-108396825D01*
X150306920Y-108271641D01*
X150540269Y-108097588D01*
X150735178Y-107881355D01*
X150884157Y-107631252D01*
X150937174Y-107481795D01*
X151048167Y-107689449D01*
X151202498Y-107877502D01*
X151390551Y-108031833D01*
X151605099Y-108146511D01*
X151837898Y-108217130D01*
X152019335Y-108235000D01*
X152140665Y-108235000D01*
X152322102Y-108217130D01*
X152554901Y-108146511D01*
X152769449Y-108031833D01*
X152957502Y-107877502D01*
X153111833Y-107689449D01*
X153226511Y-107474901D01*
X153297130Y-107242102D01*
X153320975Y-107000000D01*
X153379025Y-107000000D01*
X153402870Y-107242102D01*
X153473489Y-107474901D01*
X153588167Y-107689449D01*
X153742498Y-107877502D01*
X153930551Y-108031833D01*
X154145099Y-108146511D01*
X154377898Y-108217130D01*
X154559335Y-108235000D01*
X154680665Y-108235000D01*
X154862102Y-108217130D01*
X155094901Y-108146511D01*
X155309449Y-108031833D01*
X155497502Y-107877502D01*
X155651833Y-107689449D01*
X155766511Y-107474901D01*
X155837130Y-107242102D01*
X155860975Y-107000000D01*
X155919025Y-107000000D01*
X155942870Y-107242102D01*
X156013489Y-107474901D01*
X156128167Y-107689449D01*
X156282498Y-107877502D01*
X156470551Y-108031833D01*
X156685099Y-108146511D01*
X156917898Y-108217130D01*
X157099335Y-108235000D01*
X157220665Y-108235000D01*
X157402102Y-108217130D01*
X157634901Y-108146511D01*
X157849449Y-108031833D01*
X158037502Y-107877502D01*
X158191833Y-107689449D01*
X158306511Y-107474901D01*
X158377130Y-107242102D01*
X158400975Y-107000000D01*
X158459025Y-107000000D01*
X158482870Y-107242102D01*
X158553489Y-107474901D01*
X158668167Y-107689449D01*
X158822498Y-107877502D01*
X159010551Y-108031833D01*
X159225099Y-108146511D01*
X159457898Y-108217130D01*
X159639335Y-108235000D01*
X159760665Y-108235000D01*
X159942102Y-108217130D01*
X160174901Y-108146511D01*
X160389449Y-108031833D01*
X160577502Y-107877502D01*
X160731833Y-107689449D01*
X160842826Y-107481795D01*
X160895843Y-107631252D01*
X161044822Y-107881355D01*
X161239731Y-108097588D01*
X161473080Y-108271641D01*
X161735901Y-108396825D01*
X161883110Y-108441476D01*
X162113000Y-108320155D01*
X162113000Y-107127000D01*
X162093000Y-107127000D01*
X162093000Y-106873000D01*
X162113000Y-106873000D01*
X162113000Y-105679845D01*
X162367000Y-105679845D01*
X162367000Y-106873000D01*
X162387000Y-106873000D01*
X162387000Y-107127000D01*
X162367000Y-107127000D01*
X162367000Y-108320155D01*
X162596890Y-108441476D01*
X162744099Y-108396825D01*
X163006920Y-108271641D01*
X163240269Y-108097588D01*
X163435178Y-107881355D01*
X163584157Y-107631252D01*
X163637174Y-107481795D01*
X163748167Y-107689449D01*
X163902498Y-107877502D01*
X164090551Y-108031833D01*
X164305099Y-108146511D01*
X164537898Y-108217130D01*
X164719335Y-108235000D01*
X164840665Y-108235000D01*
X165022102Y-108217130D01*
X165254901Y-108146511D01*
X165469449Y-108031833D01*
X165657502Y-107877502D01*
X165811833Y-107689449D01*
X165926511Y-107474901D01*
X165942350Y-107422684D01*
X172215000Y-107422684D01*
X172215000Y-107577316D01*
X172245167Y-107728976D01*
X172304342Y-107871837D01*
X172390251Y-108000408D01*
X172499592Y-108109749D01*
X172628163Y-108195658D01*
X172771024Y-108254833D01*
X172922684Y-108285000D01*
X173077316Y-108285000D01*
X173228976Y-108254833D01*
X173371837Y-108195658D01*
X173500408Y-108109749D01*
X173600157Y-108010000D01*
X175474955Y-108010000D01*
X175500000Y-108012467D01*
X175525045Y-108010000D01*
X175525048Y-108010000D01*
X175599977Y-108002620D01*
X175696113Y-107973458D01*
X175784711Y-107926101D01*
X175862369Y-107862369D01*
X175878341Y-107842907D01*
X178436249Y-105285000D01*
X178577316Y-105285000D01*
X178728976Y-105254833D01*
X178871837Y-105195658D01*
X179000408Y-105109749D01*
X179109749Y-105000408D01*
X179195658Y-104871837D01*
X179254833Y-104728976D01*
X179285000Y-104577316D01*
X179285000Y-104422684D01*
X179254833Y-104271024D01*
X179195658Y-104128163D01*
X179109749Y-103999592D01*
X179000408Y-103890251D01*
X178871837Y-103804342D01*
X178728976Y-103745167D01*
X178577316Y-103715000D01*
X178422684Y-103715000D01*
X178271024Y-103745167D01*
X178128163Y-103804342D01*
X177999592Y-103890251D01*
X177890251Y-103999592D01*
X177804342Y-104128163D01*
X177745167Y-104271024D01*
X177715000Y-104422684D01*
X177715000Y-104563751D01*
X175288752Y-106990000D01*
X173600157Y-106990000D01*
X173500408Y-106890251D01*
X173371837Y-106804342D01*
X173228976Y-106745167D01*
X173077316Y-106715000D01*
X172922684Y-106715000D01*
X172771024Y-106745167D01*
X172628163Y-106804342D01*
X172499592Y-106890251D01*
X172390251Y-106999592D01*
X172304342Y-107128163D01*
X172245167Y-107271024D01*
X172215000Y-107422684D01*
X165942350Y-107422684D01*
X165997130Y-107242102D01*
X166020975Y-107000000D01*
X165997130Y-106757898D01*
X165926511Y-106525099D01*
X165811833Y-106310551D01*
X165657502Y-106122498D01*
X165469449Y-105968167D01*
X165254901Y-105853489D01*
X165022102Y-105782870D01*
X164840665Y-105765000D01*
X164719335Y-105765000D01*
X164537898Y-105782870D01*
X164305099Y-105853489D01*
X164090551Y-105968167D01*
X163902498Y-106122498D01*
X163748167Y-106310551D01*
X163637174Y-106518205D01*
X163584157Y-106368748D01*
X163435178Y-106118645D01*
X163240269Y-105902412D01*
X163006920Y-105728359D01*
X162744099Y-105603175D01*
X162596890Y-105558524D01*
X162367000Y-105679845D01*
X162113000Y-105679845D01*
X161883110Y-105558524D01*
X161735901Y-105603175D01*
X161473080Y-105728359D01*
X161239731Y-105902412D01*
X161044822Y-106118645D01*
X160895843Y-106368748D01*
X160842826Y-106518205D01*
X160731833Y-106310551D01*
X160577502Y-106122498D01*
X160389449Y-105968167D01*
X160174901Y-105853489D01*
X159942102Y-105782870D01*
X159760665Y-105765000D01*
X159639335Y-105765000D01*
X159457898Y-105782870D01*
X159225099Y-105853489D01*
X159010551Y-105968167D01*
X158822498Y-106122498D01*
X158668167Y-106310551D01*
X158553489Y-106525099D01*
X158482870Y-106757898D01*
X158459025Y-107000000D01*
X158400975Y-107000000D01*
X158377130Y-106757898D01*
X158306511Y-106525099D01*
X158191833Y-106310551D01*
X158037502Y-106122498D01*
X157849449Y-105968167D01*
X157634901Y-105853489D01*
X157402102Y-105782870D01*
X157220665Y-105765000D01*
X157099335Y-105765000D01*
X156917898Y-105782870D01*
X156685099Y-105853489D01*
X156470551Y-105968167D01*
X156282498Y-106122498D01*
X156128167Y-106310551D01*
X156013489Y-106525099D01*
X155942870Y-106757898D01*
X155919025Y-107000000D01*
X155860975Y-107000000D01*
X155837130Y-106757898D01*
X155766511Y-106525099D01*
X155651833Y-106310551D01*
X155497502Y-106122498D01*
X155309449Y-105968167D01*
X155094901Y-105853489D01*
X154862102Y-105782870D01*
X154680665Y-105765000D01*
X154559335Y-105765000D01*
X154377898Y-105782870D01*
X154145099Y-105853489D01*
X153930551Y-105968167D01*
X153742498Y-106122498D01*
X153588167Y-106310551D01*
X153473489Y-106525099D01*
X153402870Y-106757898D01*
X153379025Y-107000000D01*
X153320975Y-107000000D01*
X153297130Y-106757898D01*
X153226511Y-106525099D01*
X153111833Y-106310551D01*
X152957502Y-106122498D01*
X152769449Y-105968167D01*
X152554901Y-105853489D01*
X152322102Y-105782870D01*
X152140665Y-105765000D01*
X152019335Y-105765000D01*
X151837898Y-105782870D01*
X151605099Y-105853489D01*
X151390551Y-105968167D01*
X151202498Y-106122498D01*
X151048167Y-106310551D01*
X150937174Y-106518205D01*
X150884157Y-106368748D01*
X150735178Y-106118645D01*
X150540269Y-105902412D01*
X150306920Y-105728359D01*
X150044099Y-105603175D01*
X149896890Y-105558524D01*
X149667000Y-105679845D01*
X149413000Y-105679845D01*
X149183110Y-105558524D01*
X149035901Y-105603175D01*
X148773080Y-105728359D01*
X148539731Y-105902412D01*
X148344822Y-106118645D01*
X148236862Y-106299886D01*
X148236862Y-106150000D01*
X148229429Y-106074527D01*
X148207414Y-106001954D01*
X148171664Y-105935071D01*
X148123553Y-105876447D01*
X148064929Y-105828336D01*
X147998046Y-105792586D01*
X147925473Y-105770571D01*
X147850000Y-105763138D01*
X146150000Y-105763138D01*
X146074527Y-105770571D01*
X146001954Y-105792586D01*
X145935071Y-105828336D01*
X145876447Y-105876447D01*
X145828336Y-105935071D01*
X145792586Y-106001954D01*
X145770571Y-106074527D01*
X145763138Y-106150000D01*
X133576419Y-106150000D01*
X133585000Y-106106863D01*
X133585000Y-105893137D01*
X133543304Y-105683517D01*
X133461515Y-105486060D01*
X133342775Y-105308353D01*
X133191647Y-105157225D01*
X133013940Y-105038485D01*
X132816483Y-104956696D01*
X132606863Y-104915000D01*
X132393137Y-104915000D01*
X132183517Y-104956696D01*
X131986060Y-105038485D01*
X131808353Y-105157225D01*
X131657225Y-105308353D01*
X131538485Y-105486060D01*
X131456696Y-105683517D01*
X131415000Y-105893137D01*
X131045000Y-105893137D01*
X131003304Y-105683517D01*
X130921515Y-105486060D01*
X130802775Y-105308353D01*
X130651647Y-105157225D01*
X130473940Y-105038485D01*
X130470000Y-105036853D01*
X130470000Y-103422684D01*
X146215000Y-103422684D01*
X146215000Y-103577316D01*
X146245167Y-103728976D01*
X146304342Y-103871837D01*
X146390251Y-104000408D01*
X146499592Y-104109749D01*
X146628163Y-104195658D01*
X146771024Y-104254833D01*
X146922684Y-104285000D01*
X147077316Y-104285000D01*
X147228976Y-104254833D01*
X147371837Y-104195658D01*
X147500408Y-104109749D01*
X147609749Y-104000408D01*
X147695658Y-103871837D01*
X147718066Y-103817740D01*
X147745167Y-103953986D01*
X147804342Y-104096847D01*
X147890251Y-104225418D01*
X147999592Y-104334759D01*
X148128163Y-104420668D01*
X148271024Y-104479843D01*
X148422684Y-104510010D01*
X148563752Y-104510010D01*
X148846660Y-104792918D01*
X148862632Y-104812380D01*
X148940290Y-104876112D01*
X149028888Y-104923469D01*
X149125024Y-104952631D01*
X149199953Y-104960011D01*
X149199963Y-104960011D01*
X149225000Y-104962477D01*
X149250038Y-104960011D01*
X154024944Y-104960011D01*
X154049989Y-104962478D01*
X154075034Y-104960011D01*
X154075037Y-104960011D01*
X154149966Y-104952631D01*
X154246102Y-104923469D01*
X154334700Y-104876112D01*
X154412358Y-104812380D01*
X154428330Y-104792919D01*
X154436248Y-104785000D01*
X154577316Y-104785000D01*
X154728976Y-104754833D01*
X154871837Y-104695658D01*
X155000408Y-104609749D01*
X155109749Y-104500408D01*
X155195658Y-104371837D01*
X155254833Y-104228976D01*
X155285000Y-104077316D01*
X155285000Y-103922684D01*
X155254833Y-103771024D01*
X155195658Y-103628163D01*
X155109749Y-103499592D01*
X155000408Y-103390251D01*
X154871837Y-103304342D01*
X154745322Y-103251938D01*
X154754833Y-103228976D01*
X154785000Y-103077316D01*
X154785000Y-102922684D01*
X154754833Y-102771024D01*
X154695658Y-102628163D01*
X154609749Y-102499592D01*
X154500408Y-102390251D01*
X154371837Y-102304342D01*
X154228976Y-102245167D01*
X154077316Y-102215000D01*
X153922684Y-102215000D01*
X153771024Y-102245167D01*
X153628163Y-102304342D01*
X153499592Y-102390251D01*
X153390251Y-102499592D01*
X153304342Y-102628163D01*
X153245167Y-102771024D01*
X153215000Y-102922684D01*
X153215000Y-103063751D01*
X152788752Y-103490000D01*
X151211249Y-103490000D01*
X150378341Y-102657093D01*
X150362369Y-102637631D01*
X150284711Y-102573899D01*
X150196113Y-102526542D01*
X150099977Y-102497380D01*
X150025048Y-102490000D01*
X150025045Y-102490000D01*
X150000000Y-102487533D01*
X149974955Y-102490000D01*
X147525048Y-102490000D01*
X147500000Y-102487533D01*
X147400022Y-102497380D01*
X147345431Y-102513940D01*
X147303887Y-102526542D01*
X147215289Y-102573899D01*
X147137631Y-102637631D01*
X147121665Y-102657086D01*
X147063751Y-102715000D01*
X146922684Y-102715000D01*
X146771024Y-102745167D01*
X146628163Y-102804342D01*
X146499592Y-102890251D01*
X146390251Y-102999592D01*
X146304342Y-103128163D01*
X146245167Y-103271024D01*
X146215000Y-103422684D01*
X130470000Y-103422684D01*
X130470000Y-102963147D01*
X130473940Y-102961515D01*
X130651647Y-102842775D01*
X130802775Y-102691647D01*
X130921515Y-102513940D01*
X131003304Y-102316483D01*
X131045000Y-102106863D01*
X131045000Y-101893137D01*
X131415000Y-101893137D01*
X131415000Y-102106863D01*
X131456696Y-102316483D01*
X131538485Y-102513940D01*
X131657225Y-102691647D01*
X131808353Y-102842775D01*
X131986060Y-102961515D01*
X132183517Y-103043304D01*
X132393137Y-103085000D01*
X132606863Y-103085000D01*
X132816483Y-103043304D01*
X133013940Y-102961515D01*
X133191647Y-102842775D01*
X133342775Y-102691647D01*
X133461515Y-102513940D01*
X133543304Y-102316483D01*
X133585000Y-102106863D01*
X133585000Y-101893137D01*
X133543304Y-101683517D01*
X133461515Y-101486060D01*
X133419169Y-101422684D01*
X147215000Y-101422684D01*
X147215000Y-101577316D01*
X147245167Y-101728976D01*
X147304342Y-101871837D01*
X147390251Y-102000408D01*
X147499592Y-102109749D01*
X147628163Y-102195658D01*
X147771024Y-102254833D01*
X147922684Y-102285000D01*
X148077316Y-102285000D01*
X148228976Y-102254833D01*
X148371837Y-102195658D01*
X148500408Y-102109749D01*
X148600157Y-102010000D01*
X155288752Y-102010000D01*
X156215000Y-102936249D01*
X156215000Y-103077316D01*
X156245167Y-103228976D01*
X156304342Y-103371837D01*
X156390251Y-103500408D01*
X156499592Y-103609749D01*
X156628163Y-103695658D01*
X156771024Y-103754833D01*
X156922684Y-103785000D01*
X157077316Y-103785000D01*
X157228976Y-103754833D01*
X157371837Y-103695658D01*
X157500408Y-103609749D01*
X157609749Y-103500408D01*
X157695658Y-103371837D01*
X157754833Y-103228976D01*
X157785000Y-103077316D01*
X157785000Y-102922684D01*
X157754833Y-102771024D01*
X157695658Y-102628163D01*
X157609749Y-102499592D01*
X157500408Y-102390251D01*
X157371837Y-102304342D01*
X157228976Y-102245167D01*
X157077316Y-102215000D01*
X156936249Y-102215000D01*
X155878341Y-101157093D01*
X155862369Y-101137631D01*
X155784711Y-101073899D01*
X155696113Y-101026542D01*
X155599977Y-100997380D01*
X155525048Y-100990000D01*
X155525045Y-100990000D01*
X155500000Y-100987533D01*
X155474955Y-100990000D01*
X148600157Y-100990000D01*
X148500408Y-100890251D01*
X148371837Y-100804342D01*
X148228976Y-100745167D01*
X148077316Y-100715000D01*
X147922684Y-100715000D01*
X147771024Y-100745167D01*
X147628163Y-100804342D01*
X147499592Y-100890251D01*
X147390251Y-100999592D01*
X147304342Y-101128163D01*
X147245167Y-101271024D01*
X147215000Y-101422684D01*
X133419169Y-101422684D01*
X133342775Y-101308353D01*
X133191647Y-101157225D01*
X133013940Y-101038485D01*
X132816483Y-100956696D01*
X132606863Y-100915000D01*
X132393137Y-100915000D01*
X132183517Y-100956696D01*
X131986060Y-101038485D01*
X131808353Y-101157225D01*
X131657225Y-101308353D01*
X131538485Y-101486060D01*
X131456696Y-101683517D01*
X131415000Y-101893137D01*
X131045000Y-101893137D01*
X131003304Y-101683517D01*
X130921515Y-101486060D01*
X130802775Y-101308353D01*
X130651647Y-101157225D01*
X130473940Y-101038485D01*
X130470000Y-101036853D01*
X130470000Y-98963147D01*
X130473940Y-98961515D01*
X130651647Y-98842775D01*
X130802775Y-98691647D01*
X130921515Y-98513940D01*
X131003304Y-98316483D01*
X131045000Y-98106863D01*
X131045000Y-97893137D01*
X131415000Y-97893137D01*
X131415000Y-98106863D01*
X131456696Y-98316483D01*
X131538485Y-98513940D01*
X131657225Y-98691647D01*
X131808353Y-98842775D01*
X131986060Y-98961515D01*
X132183517Y-99043304D01*
X132393137Y-99085000D01*
X132606863Y-99085000D01*
X132816483Y-99043304D01*
X133013940Y-98961515D01*
X133191647Y-98842775D01*
X133342775Y-98691647D01*
X133461515Y-98513940D01*
X133543304Y-98316483D01*
X133585000Y-98106863D01*
X133585000Y-97893137D01*
X133543304Y-97683517D01*
X133461515Y-97486060D01*
X133342775Y-97308353D01*
X133191647Y-97157225D01*
X133013940Y-97038485D01*
X132816483Y-96956696D01*
X132606863Y-96915000D01*
X132393137Y-96915000D01*
X132183517Y-96956696D01*
X131986060Y-97038485D01*
X131808353Y-97157225D01*
X131657225Y-97308353D01*
X131538485Y-97486060D01*
X131456696Y-97683517D01*
X131415000Y-97893137D01*
X131045000Y-97893137D01*
X131007977Y-97707008D01*
X131062368Y-97662370D01*
X131078340Y-97642908D01*
X133298564Y-95422684D01*
X140215000Y-95422684D01*
X140215000Y-95577316D01*
X140245167Y-95728976D01*
X140304342Y-95871837D01*
X140390251Y-96000408D01*
X140499592Y-96109749D01*
X140628163Y-96195658D01*
X140771024Y-96254833D01*
X140922684Y-96285000D01*
X141063752Y-96285000D01*
X142121663Y-97342912D01*
X142137631Y-97362369D01*
X142215289Y-97426101D01*
X142303887Y-97473458D01*
X142400023Y-97502620D01*
X142474952Y-97510000D01*
X142474961Y-97510000D01*
X142499999Y-97512466D01*
X142525037Y-97510000D01*
X151788752Y-97510000D01*
X154215000Y-99936249D01*
X154215000Y-100077316D01*
X154245167Y-100228976D01*
X154304342Y-100371837D01*
X154390251Y-100500408D01*
X154499592Y-100609749D01*
X154628163Y-100695658D01*
X154771024Y-100754833D01*
X154922684Y-100785000D01*
X155077316Y-100785000D01*
X155228976Y-100754833D01*
X155371837Y-100695658D01*
X155500408Y-100609749D01*
X155609749Y-100500408D01*
X155695658Y-100371837D01*
X155754833Y-100228976D01*
X155785000Y-100077316D01*
X155785000Y-100031568D01*
X158968431Y-103215000D01*
X158922684Y-103215000D01*
X158771024Y-103245167D01*
X158628163Y-103304342D01*
X158499592Y-103390251D01*
X158390251Y-103499592D01*
X158304342Y-103628163D01*
X158245167Y-103771024D01*
X158215000Y-103922684D01*
X158215000Y-104077316D01*
X158245167Y-104228976D01*
X158304342Y-104371837D01*
X158390251Y-104500408D01*
X158499592Y-104609749D01*
X158628163Y-104695658D01*
X158771024Y-104754833D01*
X158922684Y-104785000D01*
X159063751Y-104785000D01*
X159121663Y-104842912D01*
X159137631Y-104862369D01*
X159215289Y-104926101D01*
X159264921Y-104952630D01*
X159303887Y-104973458D01*
X159400022Y-105002620D01*
X159500000Y-105012467D01*
X159525048Y-105010000D01*
X165788752Y-105010000D01*
X166621664Y-105842912D01*
X166637631Y-105862369D01*
X166715289Y-105926101D01*
X166732071Y-105935071D01*
X166803887Y-105973458D01*
X166900022Y-106002620D01*
X167000000Y-106012467D01*
X167025048Y-106010000D01*
X168974955Y-106010000D01*
X169000000Y-106012467D01*
X169025045Y-106010000D01*
X169025048Y-106010000D01*
X169099977Y-106002620D01*
X169196113Y-105973458D01*
X169284711Y-105926101D01*
X169362369Y-105862369D01*
X169378341Y-105842907D01*
X169436248Y-105785000D01*
X169577316Y-105785000D01*
X169728976Y-105754833D01*
X169871837Y-105695658D01*
X170000408Y-105609749D01*
X170109749Y-105500408D01*
X170195658Y-105371837D01*
X170254833Y-105228976D01*
X170285000Y-105077316D01*
X170285000Y-104922684D01*
X170254833Y-104771024D01*
X170195658Y-104628163D01*
X170116703Y-104510000D01*
X173399843Y-104510000D01*
X173499592Y-104609749D01*
X173628163Y-104695658D01*
X173771024Y-104754833D01*
X173922684Y-104785000D01*
X174077316Y-104785000D01*
X174228976Y-104754833D01*
X174371837Y-104695658D01*
X174500408Y-104609749D01*
X174609749Y-104500408D01*
X174695658Y-104371837D01*
X174754833Y-104228976D01*
X174785000Y-104077316D01*
X174785000Y-103936248D01*
X176711249Y-102010000D01*
X177899843Y-102010000D01*
X177999592Y-102109749D01*
X178128163Y-102195658D01*
X178271024Y-102254833D01*
X178422684Y-102285000D01*
X178577316Y-102285000D01*
X178728976Y-102254833D01*
X178871837Y-102195658D01*
X179000408Y-102109749D01*
X179109749Y-102000408D01*
X179195658Y-101871837D01*
X179254833Y-101728976D01*
X179285000Y-101577316D01*
X179285000Y-101422684D01*
X179254833Y-101271024D01*
X179195658Y-101128163D01*
X179109749Y-100999592D01*
X179000408Y-100890251D01*
X178871837Y-100804342D01*
X178728976Y-100745167D01*
X178577316Y-100715000D01*
X178422684Y-100715000D01*
X178271024Y-100745167D01*
X178128163Y-100804342D01*
X177999592Y-100890251D01*
X177899843Y-100990000D01*
X176525048Y-100990000D01*
X176500000Y-100987533D01*
X176400022Y-100997380D01*
X176314093Y-101023446D01*
X176303887Y-101026542D01*
X176215289Y-101073899D01*
X176137631Y-101137631D01*
X176121664Y-101157087D01*
X174063752Y-103215000D01*
X173922684Y-103215000D01*
X173771024Y-103245167D01*
X173628163Y-103304342D01*
X173499592Y-103390251D01*
X173399843Y-103490000D01*
X168307601Y-103490000D01*
X168282553Y-103487533D01*
X168182575Y-103497380D01*
X168086440Y-103526542D01*
X167997842Y-103573899D01*
X167920184Y-103637631D01*
X167904212Y-103657093D01*
X167621295Y-103940010D01*
X167480227Y-103940010D01*
X167328567Y-103970177D01*
X167185706Y-104029352D01*
X167057135Y-104115261D01*
X166947794Y-104224602D01*
X166861885Y-104353173D01*
X166802710Y-104496034D01*
X166788537Y-104567288D01*
X166378341Y-104157093D01*
X166362369Y-104137631D01*
X166284711Y-104073899D01*
X166196113Y-104026542D01*
X166099977Y-103997380D01*
X166025048Y-103990000D01*
X166025045Y-103990000D01*
X166000000Y-103987533D01*
X165974955Y-103990000D01*
X162532801Y-103990000D01*
X162547718Y-103953986D01*
X162577885Y-103802326D01*
X162577885Y-103784887D01*
X162728976Y-103754833D01*
X162871837Y-103695658D01*
X163000408Y-103609749D01*
X163109749Y-103500408D01*
X163195658Y-103371837D01*
X163254833Y-103228976D01*
X163285000Y-103077316D01*
X163285000Y-102922684D01*
X163254833Y-102771024D01*
X163195658Y-102628163D01*
X163109749Y-102499592D01*
X163000408Y-102390251D01*
X162871837Y-102304342D01*
X162728976Y-102245167D01*
X162577316Y-102215000D01*
X162422684Y-102215000D01*
X162271024Y-102245167D01*
X162128163Y-102304342D01*
X161999592Y-102390251D01*
X161899843Y-102490000D01*
X160425895Y-102490000D01*
X159445894Y-101510000D01*
X168399843Y-101510000D01*
X168499592Y-101609749D01*
X168628163Y-101695658D01*
X168771024Y-101754833D01*
X168922684Y-101785000D01*
X169077316Y-101785000D01*
X169228976Y-101754833D01*
X169371837Y-101695658D01*
X169500408Y-101609749D01*
X169609749Y-101500408D01*
X169661682Y-101422684D01*
X171715000Y-101422684D01*
X171715000Y-101577316D01*
X171745167Y-101728976D01*
X171804342Y-101871837D01*
X171890251Y-102000408D01*
X171999592Y-102109749D01*
X172128163Y-102195658D01*
X172271024Y-102254833D01*
X172422684Y-102285000D01*
X172577316Y-102285000D01*
X172728976Y-102254833D01*
X172871837Y-102195658D01*
X173000408Y-102109749D01*
X173109749Y-102000408D01*
X173195658Y-101871837D01*
X173254833Y-101728976D01*
X173285000Y-101577316D01*
X173285000Y-101436248D01*
X173842912Y-100878336D01*
X173862369Y-100862369D01*
X173926101Y-100784711D01*
X173973458Y-100696113D01*
X173999465Y-100610379D01*
X174000408Y-100609749D01*
X174109749Y-100500408D01*
X174195658Y-100371837D01*
X174254833Y-100228976D01*
X174285000Y-100077316D01*
X174285000Y-99922684D01*
X174254833Y-99771024D01*
X174195658Y-99628163D01*
X174109749Y-99499592D01*
X174000408Y-99390251D01*
X173871837Y-99304342D01*
X173728976Y-99245167D01*
X173577316Y-99215000D01*
X173422684Y-99215000D01*
X173271024Y-99245167D01*
X173128163Y-99304342D01*
X172999592Y-99390251D01*
X172890251Y-99499592D01*
X172804342Y-99628163D01*
X172745167Y-99771024D01*
X172715000Y-99922684D01*
X172715000Y-100077316D01*
X172745167Y-100228976D01*
X172804342Y-100371837D01*
X172845427Y-100433324D01*
X172563752Y-100715000D01*
X172422684Y-100715000D01*
X172271024Y-100745167D01*
X172128163Y-100804342D01*
X171999592Y-100890251D01*
X171890251Y-100999592D01*
X171804342Y-101128163D01*
X171745167Y-101271024D01*
X171715000Y-101422684D01*
X169661682Y-101422684D01*
X169695658Y-101371837D01*
X169754833Y-101228976D01*
X169785000Y-101077316D01*
X169785000Y-100922684D01*
X169754833Y-100771024D01*
X169695658Y-100628163D01*
X169609749Y-100499592D01*
X169500408Y-100390251D01*
X169371837Y-100304342D01*
X169228976Y-100245167D01*
X169077316Y-100215000D01*
X168922684Y-100215000D01*
X168771024Y-100245167D01*
X168628163Y-100304342D01*
X168499592Y-100390251D01*
X168399843Y-100490000D01*
X161616703Y-100490000D01*
X161695658Y-100371837D01*
X161754833Y-100228976D01*
X161785000Y-100077316D01*
X161785000Y-99922684D01*
X161754833Y-99771024D01*
X161695658Y-99628163D01*
X161609749Y-99499592D01*
X161500408Y-99390251D01*
X161371837Y-99304342D01*
X161228976Y-99245167D01*
X161077316Y-99215000D01*
X160936248Y-99215000D01*
X160878341Y-99157093D01*
X160862369Y-99137631D01*
X160784711Y-99073899D01*
X160696113Y-99026542D01*
X160599977Y-98997380D01*
X160525048Y-98990000D01*
X160525045Y-98990000D01*
X160500000Y-98987533D01*
X160474955Y-98990000D01*
X160100157Y-98990000D01*
X160000408Y-98890251D01*
X159871837Y-98804342D01*
X159728976Y-98745167D01*
X159577316Y-98715000D01*
X159422684Y-98715000D01*
X159271024Y-98745167D01*
X159128163Y-98804342D01*
X158999592Y-98890251D01*
X158890251Y-98999592D01*
X158804342Y-99128163D01*
X158745167Y-99271024D01*
X158715000Y-99422684D01*
X158715000Y-99577316D01*
X158739869Y-99702340D01*
X158697674Y-99702340D01*
X158546014Y-99732507D01*
X158403153Y-99791682D01*
X158274582Y-99877591D01*
X158186711Y-99965462D01*
X154643933Y-96422684D01*
X163215000Y-96422684D01*
X163215000Y-96577316D01*
X163245167Y-96728976D01*
X163304342Y-96871837D01*
X163390251Y-97000408D01*
X163499592Y-97109749D01*
X163628163Y-97195658D01*
X163771024Y-97254833D01*
X163922684Y-97285000D01*
X164077316Y-97285000D01*
X164228976Y-97254833D01*
X164371837Y-97195658D01*
X164433325Y-97154573D01*
X166715000Y-99436249D01*
X166715000Y-99577316D01*
X166745167Y-99728976D01*
X166804342Y-99871837D01*
X166890251Y-100000408D01*
X166999592Y-100109749D01*
X167128163Y-100195658D01*
X167271024Y-100254833D01*
X167422684Y-100285000D01*
X167577316Y-100285000D01*
X167728976Y-100254833D01*
X167871837Y-100195658D01*
X168000408Y-100109749D01*
X168109749Y-100000408D01*
X168195658Y-99871837D01*
X168254833Y-99728976D01*
X168285000Y-99577316D01*
X168285000Y-99422684D01*
X168254833Y-99271024D01*
X168195658Y-99128163D01*
X168109749Y-98999592D01*
X168000408Y-98890251D01*
X167871837Y-98804342D01*
X167728976Y-98745167D01*
X167577316Y-98715000D01*
X167436249Y-98715000D01*
X164878341Y-96157093D01*
X164862369Y-96137631D01*
X164784711Y-96073899D01*
X164696113Y-96026542D01*
X164610379Y-96000535D01*
X164609749Y-95999592D01*
X164532841Y-95922684D01*
X166215000Y-95922684D01*
X166215000Y-96077316D01*
X166245167Y-96228976D01*
X166304342Y-96371837D01*
X166390251Y-96500408D01*
X166499592Y-96609749D01*
X166628163Y-96695658D01*
X166771024Y-96754833D01*
X166922684Y-96785000D01*
X167077316Y-96785000D01*
X167228976Y-96754833D01*
X167371837Y-96695658D01*
X167500408Y-96609749D01*
X167609749Y-96500408D01*
X167695658Y-96371837D01*
X167754833Y-96228976D01*
X167785000Y-96077316D01*
X167785000Y-95936248D01*
X170092913Y-93628336D01*
X170112369Y-93612369D01*
X170147163Y-93569971D01*
X170843032Y-93569971D01*
X170843032Y-93724603D01*
X170873199Y-93876263D01*
X170932374Y-94019124D01*
X171018283Y-94147695D01*
X171127624Y-94257036D01*
X171256195Y-94342945D01*
X171399056Y-94402120D01*
X171550716Y-94432287D01*
X171705348Y-94432287D01*
X171857008Y-94402120D01*
X171999869Y-94342945D01*
X172128440Y-94257036D01*
X172237781Y-94147695D01*
X172323690Y-94019124D01*
X172382865Y-93876263D01*
X172413032Y-93724603D01*
X172413032Y-93583535D01*
X172486567Y-93510000D01*
X173649843Y-93510000D01*
X173749592Y-93609749D01*
X173878163Y-93695658D01*
X174021024Y-93754833D01*
X174172684Y-93785000D01*
X174327316Y-93785000D01*
X174478976Y-93754833D01*
X174621837Y-93695658D01*
X174750408Y-93609749D01*
X174859749Y-93500408D01*
X174945658Y-93371837D01*
X175004833Y-93228976D01*
X175035000Y-93077316D01*
X175035000Y-92922684D01*
X175004833Y-92771024D01*
X175002379Y-92765098D01*
X176615000Y-92765098D01*
X176615000Y-93234902D01*
X176706654Y-93695679D01*
X176886440Y-94129721D01*
X177147450Y-94520349D01*
X177479651Y-94852550D01*
X177870279Y-95113560D01*
X178304321Y-95293346D01*
X178765098Y-95385000D01*
X179234902Y-95385000D01*
X179695679Y-95293346D01*
X180129721Y-95113560D01*
X180520349Y-94852550D01*
X180852550Y-94520349D01*
X181113560Y-94129721D01*
X181293346Y-93695679D01*
X181385000Y-93234902D01*
X181385000Y-92765098D01*
X181293346Y-92304321D01*
X181113560Y-91870279D01*
X180852550Y-91479651D01*
X180520349Y-91147450D01*
X180129721Y-90886440D01*
X179695679Y-90706654D01*
X179234902Y-90615000D01*
X178765098Y-90615000D01*
X178304321Y-90706654D01*
X177870279Y-90886440D01*
X177479651Y-91147450D01*
X177147450Y-91479651D01*
X176886440Y-91870279D01*
X176706654Y-92304321D01*
X176615000Y-92765098D01*
X175002379Y-92765098D01*
X174945658Y-92628163D01*
X174859749Y-92499592D01*
X174750408Y-92390251D01*
X174621837Y-92304342D01*
X174478976Y-92245167D01*
X174327316Y-92215000D01*
X174172684Y-92215000D01*
X174021024Y-92245167D01*
X173878163Y-92304342D01*
X173749592Y-92390251D01*
X173649843Y-92490000D01*
X172300363Y-92490000D01*
X172275318Y-92487533D01*
X172250273Y-92490000D01*
X172250271Y-92490000D01*
X172175342Y-92497380D01*
X172079206Y-92526542D01*
X171990608Y-92573899D01*
X171912950Y-92637631D01*
X171896978Y-92657093D01*
X171691784Y-92862287D01*
X171550716Y-92862287D01*
X171399056Y-92892454D01*
X171256195Y-92951629D01*
X171127624Y-93037538D01*
X171018283Y-93146879D01*
X170932374Y-93275450D01*
X170873199Y-93418311D01*
X170843032Y-93569971D01*
X170147163Y-93569971D01*
X170176101Y-93534711D01*
X170223458Y-93446113D01*
X170252620Y-93349977D01*
X170260000Y-93275048D01*
X170260000Y-93275039D01*
X170262466Y-93250001D01*
X170260000Y-93224963D01*
X170260000Y-92350157D01*
X170359749Y-92250408D01*
X170445658Y-92121837D01*
X170504833Y-91978976D01*
X170535000Y-91827316D01*
X170535000Y-91672684D01*
X170504833Y-91521024D01*
X170445658Y-91378163D01*
X170359749Y-91249592D01*
X170250408Y-91140251D01*
X170121837Y-91054342D01*
X169978976Y-90995167D01*
X169827316Y-90965000D01*
X169672684Y-90965000D01*
X169521024Y-90995167D01*
X169378163Y-91054342D01*
X169249592Y-91140251D01*
X169140251Y-91249592D01*
X169054342Y-91378163D01*
X168995167Y-91521024D01*
X168965000Y-91672684D01*
X168965000Y-91827316D01*
X168995167Y-91978976D01*
X169054342Y-92121837D01*
X169140251Y-92250408D01*
X169240000Y-92350157D01*
X169240001Y-93038750D01*
X167063752Y-95215000D01*
X166922684Y-95215000D01*
X166771024Y-95245167D01*
X166628163Y-95304342D01*
X166499592Y-95390251D01*
X166390251Y-95499592D01*
X166304342Y-95628163D01*
X166245167Y-95771024D01*
X166215000Y-95922684D01*
X164532841Y-95922684D01*
X164500408Y-95890251D01*
X164371837Y-95804342D01*
X164228976Y-95745167D01*
X164077316Y-95715000D01*
X163922684Y-95715000D01*
X163771024Y-95745167D01*
X163628163Y-95804342D01*
X163499592Y-95890251D01*
X163390251Y-95999592D01*
X163304342Y-96128163D01*
X163245167Y-96271024D01*
X163215000Y-96422684D01*
X154643933Y-96422684D01*
X151878341Y-93657093D01*
X151862369Y-93637631D01*
X151784711Y-93573899D01*
X151696113Y-93526542D01*
X151599977Y-93497380D01*
X151525048Y-93490000D01*
X151525045Y-93490000D01*
X151500000Y-93487533D01*
X151474955Y-93490000D01*
X151100157Y-93490000D01*
X151000408Y-93390251D01*
X150871837Y-93304342D01*
X150728976Y-93245167D01*
X150577316Y-93215000D01*
X150422684Y-93215000D01*
X150271024Y-93245167D01*
X150128163Y-93304342D01*
X149999592Y-93390251D01*
X149890251Y-93499592D01*
X149804342Y-93628163D01*
X149745167Y-93771024D01*
X149715000Y-93922684D01*
X149715000Y-94077316D01*
X149745167Y-94228976D01*
X149804342Y-94371837D01*
X149890251Y-94500408D01*
X149999592Y-94609749D01*
X150128163Y-94695658D01*
X150271024Y-94754833D01*
X150422684Y-94785000D01*
X150577316Y-94785000D01*
X150728976Y-94754833D01*
X150871837Y-94695658D01*
X151000408Y-94609749D01*
X151100157Y-94510000D01*
X151288752Y-94510000D01*
X155103664Y-98324913D01*
X154986932Y-98402911D01*
X154877591Y-98512252D01*
X154791682Y-98640823D01*
X154732507Y-98783684D01*
X154702340Y-98935344D01*
X154702340Y-98981091D01*
X152378341Y-96657093D01*
X152362369Y-96637631D01*
X152284711Y-96573899D01*
X152196113Y-96526542D01*
X152099977Y-96497380D01*
X152025048Y-96490000D01*
X152025045Y-96490000D01*
X152000000Y-96487533D01*
X151974955Y-96490000D01*
X142711249Y-96490000D01*
X141785000Y-95563752D01*
X141785000Y-95422684D01*
X141754833Y-95271024D01*
X141695658Y-95128163D01*
X141609749Y-94999592D01*
X141500408Y-94890251D01*
X141371837Y-94804342D01*
X141228976Y-94745167D01*
X141077316Y-94715000D01*
X140922684Y-94715000D01*
X140771024Y-94745167D01*
X140628163Y-94804342D01*
X140499592Y-94890251D01*
X140390251Y-94999592D01*
X140304342Y-95128163D01*
X140245167Y-95271024D01*
X140215000Y-95422684D01*
X133298564Y-95422684D01*
X135211249Y-93510000D01*
X135974955Y-93510000D01*
X136000000Y-93512467D01*
X136025045Y-93510000D01*
X136025048Y-93510000D01*
X136099977Y-93502620D01*
X136196113Y-93473458D01*
X136284711Y-93426101D01*
X136362369Y-93362369D01*
X136378341Y-93342907D01*
X137798564Y-91922684D01*
X158715000Y-91922684D01*
X158715000Y-92077316D01*
X158745167Y-92228976D01*
X158804342Y-92371837D01*
X158890251Y-92500408D01*
X158990001Y-92600158D01*
X158990000Y-93399843D01*
X158890251Y-93499592D01*
X158804342Y-93628163D01*
X158745167Y-93771024D01*
X158715000Y-93922684D01*
X158715000Y-94077316D01*
X158745167Y-94228976D01*
X158804342Y-94371837D01*
X158890251Y-94500408D01*
X158999592Y-94609749D01*
X159128163Y-94695658D01*
X159271024Y-94754833D01*
X159422684Y-94785000D01*
X159577316Y-94785000D01*
X159728976Y-94754833D01*
X159871837Y-94695658D01*
X160000408Y-94609749D01*
X160109749Y-94500408D01*
X160195658Y-94371837D01*
X160254833Y-94228976D01*
X160285000Y-94077316D01*
X160285000Y-93922684D01*
X160254833Y-93771024D01*
X160195658Y-93628163D01*
X160109749Y-93499592D01*
X160010000Y-93399843D01*
X160010000Y-92600157D01*
X160109749Y-92500408D01*
X160195658Y-92371837D01*
X160254833Y-92228976D01*
X160285000Y-92077316D01*
X160285000Y-91922684D01*
X160254833Y-91771024D01*
X160195658Y-91628163D01*
X160109749Y-91499592D01*
X160000408Y-91390251D01*
X159871837Y-91304342D01*
X159728976Y-91245167D01*
X159577316Y-91215000D01*
X159422684Y-91215000D01*
X159271024Y-91245167D01*
X159128163Y-91304342D01*
X158999592Y-91390251D01*
X158890251Y-91499592D01*
X158804342Y-91628163D01*
X158745167Y-91771024D01*
X158715000Y-91922684D01*
X137798564Y-91922684D01*
X139171248Y-90550000D01*
X170961928Y-90550000D01*
X170965000Y-90714250D01*
X170997243Y-90746493D01*
X170971836Y-90872998D01*
X170965000Y-90872998D01*
X170965000Y-90998534D01*
X170964829Y-91090355D01*
X170965000Y-91091223D01*
X170965000Y-91127002D01*
X170972048Y-91127002D01*
X170997013Y-91253737D01*
X170965000Y-91285750D01*
X170961928Y-91450000D01*
X170974188Y-91574482D01*
X171010498Y-91694180D01*
X171069463Y-91804494D01*
X171148815Y-91901185D01*
X171245506Y-91980537D01*
X171355820Y-92039502D01*
X171475518Y-92075812D01*
X171600000Y-92088072D01*
X172114250Y-92085000D01*
X172273000Y-91926250D01*
X172273000Y-91857571D01*
X172341351Y-91829408D01*
X172344425Y-91827763D01*
X172349751Y-91729857D01*
X172400000Y-91679608D01*
X172450249Y-91729857D01*
X172455575Y-91827763D01*
X172527000Y-91857504D01*
X172527000Y-91926250D01*
X172685750Y-92085000D01*
X173200000Y-92088072D01*
X173324482Y-92075812D01*
X173444180Y-92039502D01*
X173554494Y-91980537D01*
X173651185Y-91901185D01*
X173730537Y-91804494D01*
X173789502Y-91694180D01*
X173825812Y-91574482D01*
X173838072Y-91450000D01*
X173835000Y-91285750D01*
X173802757Y-91253507D01*
X173828164Y-91127002D01*
X173835000Y-91127002D01*
X173835000Y-91001466D01*
X173835171Y-90909645D01*
X173835000Y-90908777D01*
X173835000Y-90872998D01*
X173827952Y-90872998D01*
X173802987Y-90746263D01*
X173835000Y-90714250D01*
X173838072Y-90550000D01*
X173825812Y-90425518D01*
X173789502Y-90305820D01*
X173730537Y-90195506D01*
X173651185Y-90098815D01*
X173554494Y-90019463D01*
X173444180Y-89960498D01*
X173324482Y-89924188D01*
X173200000Y-89911928D01*
X172685750Y-89915000D01*
X172527000Y-90073750D01*
X172527000Y-90142429D01*
X172458649Y-90170592D01*
X172455575Y-90172237D01*
X172450249Y-90270143D01*
X172400000Y-90320392D01*
X172349751Y-90270143D01*
X172344425Y-90172237D01*
X172273000Y-90142496D01*
X172273000Y-90073750D01*
X172114250Y-89915000D01*
X171600000Y-89911928D01*
X171475518Y-89924188D01*
X171355820Y-89960498D01*
X171245506Y-90019463D01*
X171148815Y-90098815D01*
X171069463Y-90195506D01*
X171010498Y-90305820D01*
X170974188Y-90425518D01*
X170961928Y-90550000D01*
X139171248Y-90550000D01*
X144211249Y-85510000D01*
X163788752Y-85510000D01*
X165621659Y-87342907D01*
X165637631Y-87362369D01*
X165715289Y-87426101D01*
X165803887Y-87473458D01*
X165900023Y-87502620D01*
X165974952Y-87510000D01*
X165974954Y-87510000D01*
X165999999Y-87512467D01*
X166025044Y-87510000D01*
X166899843Y-87510000D01*
X166999592Y-87609749D01*
X167128163Y-87695658D01*
X167271024Y-87754833D01*
X167422684Y-87785000D01*
X167577316Y-87785000D01*
X167728976Y-87754833D01*
X167871837Y-87695658D01*
X168000408Y-87609749D01*
X168109749Y-87500408D01*
X168195658Y-87371837D01*
X168254833Y-87228976D01*
X168285000Y-87077316D01*
X168285000Y-86922684D01*
X168254833Y-86771024D01*
X168195658Y-86628163D01*
X168109749Y-86499592D01*
X168000408Y-86390251D01*
X167871837Y-86304342D01*
X167728976Y-86245167D01*
X167577316Y-86215000D01*
X167422684Y-86215000D01*
X167271024Y-86245167D01*
X167128163Y-86304342D01*
X166999592Y-86390251D01*
X166899843Y-86490000D01*
X166211248Y-86490000D01*
X164486346Y-84765098D01*
X176615000Y-84765098D01*
X176615000Y-85234902D01*
X176706654Y-85695679D01*
X176886440Y-86129721D01*
X177147450Y-86520349D01*
X177479651Y-86852550D01*
X177870279Y-87113560D01*
X178304321Y-87293346D01*
X178765098Y-87385000D01*
X179234902Y-87385000D01*
X179695679Y-87293346D01*
X180129721Y-87113560D01*
X180520349Y-86852550D01*
X180852550Y-86520349D01*
X181113560Y-86129721D01*
X181293346Y-85695679D01*
X181385000Y-85234902D01*
X181385000Y-84765098D01*
X181293346Y-84304321D01*
X181113560Y-83870279D01*
X180852550Y-83479651D01*
X180520349Y-83147450D01*
X180129721Y-82886440D01*
X179695679Y-82706654D01*
X179234902Y-82615000D01*
X178765098Y-82615000D01*
X178304321Y-82706654D01*
X177870279Y-82886440D01*
X177479651Y-83147450D01*
X177147450Y-83479651D01*
X176886440Y-83870279D01*
X176706654Y-84304321D01*
X176615000Y-84765098D01*
X164486346Y-84765098D01*
X164378341Y-84657093D01*
X164362369Y-84637631D01*
X164284711Y-84573899D01*
X164196113Y-84526542D01*
X164099977Y-84497380D01*
X164025048Y-84490000D01*
X164025045Y-84490000D01*
X164000000Y-84487533D01*
X163974955Y-84490000D01*
X144025037Y-84490000D01*
X143999999Y-84487534D01*
X143974961Y-84490000D01*
X143974952Y-84490000D01*
X143900023Y-84497380D01*
X143803887Y-84526542D01*
X143715289Y-84573899D01*
X143637631Y-84637631D01*
X143621664Y-84657087D01*
X135788752Y-92490000D01*
X135025048Y-92490000D01*
X135000000Y-92487533D01*
X134900022Y-92497380D01*
X134875453Y-92504833D01*
X134803887Y-92526542D01*
X134715289Y-92573899D01*
X134637631Y-92637631D01*
X134621664Y-92657087D01*
X130438800Y-96839952D01*
X130375288Y-96873900D01*
X130297630Y-96937632D01*
X130281662Y-96957089D01*
X130280423Y-96958328D01*
X130276483Y-96956696D01*
X130066863Y-96915000D01*
X129853137Y-96915000D01*
X129643517Y-96956696D01*
X129446060Y-97038485D01*
X129268353Y-97157225D01*
X129117225Y-97308353D01*
X128998485Y-97486060D01*
X128916696Y-97683517D01*
X128875000Y-97893137D01*
X127850165Y-97893137D01*
X127849359Y-97019864D01*
X127863661Y-96874003D01*
X127900254Y-96752801D01*
X127959689Y-96641020D01*
X128042204Y-96539845D01*
X144159928Y-82910000D01*
X169470134Y-82910000D01*
X169486009Y-82908436D01*
X169486253Y-82908439D01*
X169491951Y-82907901D01*
X169508157Y-82906255D01*
X169530374Y-82904067D01*
X169540190Y-82901089D01*
X169557527Y-82897594D01*
X169594037Y-82890761D01*
X169599514Y-82889128D01*
X169599516Y-82889128D01*
X169599518Y-82889127D01*
X169599522Y-82889126D01*
X169627517Y-82880567D01*
X169661844Y-82866278D01*
X169696328Y-82852485D01*
X169701387Y-82849818D01*
X169701391Y-82849816D01*
X169701394Y-82849814D01*
X169727192Y-82835981D01*
X169758054Y-82815321D01*
X169789236Y-82795071D01*
X169793679Y-82791472D01*
X169793685Y-82791468D01*
X169793690Y-82791463D01*
X169811975Y-82776444D01*
X174147075Y-79410000D01*
X182529951Y-79410000D01*
X182557388Y-79412690D01*
M02*
