G04 #@! TF.GenerationSoftware,KiCad,Pcbnew,(5.1.0)-1*
G04 #@! TF.CreationDate,2019-06-02T21:22:59+02:00*
G04 #@! TF.ProjectId,ledpwmble,6c656470-776d-4626-9c65-2e6b69636164,rev?*
G04 #@! TF.SameCoordinates,Original*
G04 #@! TF.FileFunction,Soldermask,Top*
G04 #@! TF.FilePolarity,Negative*
%FSLAX46Y46*%
G04 Gerber Fmt 4.6, Leading zero omitted, Abs format (unit mm)*
G04 Created by KiCad (PCBNEW (5.1.0)-1) date 2019-06-02 21:22:59*
%MOMM*%
%LPD*%
G04 APERTURE LIST*
%ADD10C,0.100000*%
G04 APERTURE END LIST*
D10*
G36*
X159810442Y-106105518D02*
G01*
X159876627Y-106112037D01*
X160046466Y-106163557D01*
X160202991Y-106247222D01*
X160238729Y-106276552D01*
X160340186Y-106359814D01*
X160410431Y-106445409D01*
X160452778Y-106497009D01*
X160536443Y-106653534D01*
X160587963Y-106823373D01*
X160605359Y-107000000D01*
X160587963Y-107176627D01*
X160536443Y-107346466D01*
X160452778Y-107502991D01*
X160423448Y-107538729D01*
X160340186Y-107640186D01*
X160238729Y-107723448D01*
X160202991Y-107752778D01*
X160046466Y-107836443D01*
X159876627Y-107887963D01*
X159810442Y-107894482D01*
X159744260Y-107901000D01*
X159655740Y-107901000D01*
X159589558Y-107894482D01*
X159523373Y-107887963D01*
X159353534Y-107836443D01*
X159197009Y-107752778D01*
X159161271Y-107723448D01*
X159059814Y-107640186D01*
X158976552Y-107538729D01*
X158947222Y-107502991D01*
X158863557Y-107346466D01*
X158812037Y-107176627D01*
X158794641Y-107000000D01*
X158812037Y-106823373D01*
X158863557Y-106653534D01*
X158947222Y-106497009D01*
X158989569Y-106445409D01*
X159059814Y-106359814D01*
X159161271Y-106276552D01*
X159197009Y-106247222D01*
X159353534Y-106163557D01*
X159523373Y-106112037D01*
X159589558Y-106105518D01*
X159655740Y-106099000D01*
X159744260Y-106099000D01*
X159810442Y-106105518D01*
X159810442Y-106105518D01*
G37*
G36*
X147901000Y-107901000D02*
G01*
X146099000Y-107901000D01*
X146099000Y-106099000D01*
X147901000Y-106099000D01*
X147901000Y-107901000D01*
X147901000Y-107901000D01*
G37*
G36*
X149650442Y-106105518D02*
G01*
X149716627Y-106112037D01*
X149886466Y-106163557D01*
X150042991Y-106247222D01*
X150078729Y-106276552D01*
X150180186Y-106359814D01*
X150250431Y-106445409D01*
X150292778Y-106497009D01*
X150376443Y-106653534D01*
X150427963Y-106823373D01*
X150445359Y-107000000D01*
X150427963Y-107176627D01*
X150376443Y-107346466D01*
X150292778Y-107502991D01*
X150263448Y-107538729D01*
X150180186Y-107640186D01*
X150078729Y-107723448D01*
X150042991Y-107752778D01*
X149886466Y-107836443D01*
X149716627Y-107887963D01*
X149650442Y-107894482D01*
X149584260Y-107901000D01*
X149495740Y-107901000D01*
X149429558Y-107894482D01*
X149363373Y-107887963D01*
X149193534Y-107836443D01*
X149037009Y-107752778D01*
X149001271Y-107723448D01*
X148899814Y-107640186D01*
X148816552Y-107538729D01*
X148787222Y-107502991D01*
X148703557Y-107346466D01*
X148652037Y-107176627D01*
X148634641Y-107000000D01*
X148652037Y-106823373D01*
X148703557Y-106653534D01*
X148787222Y-106497009D01*
X148829569Y-106445409D01*
X148899814Y-106359814D01*
X149001271Y-106276552D01*
X149037009Y-106247222D01*
X149193534Y-106163557D01*
X149363373Y-106112037D01*
X149429558Y-106105518D01*
X149495740Y-106099000D01*
X149584260Y-106099000D01*
X149650442Y-106105518D01*
X149650442Y-106105518D01*
G37*
G36*
X152190442Y-106105518D02*
G01*
X152256627Y-106112037D01*
X152426466Y-106163557D01*
X152582991Y-106247222D01*
X152618729Y-106276552D01*
X152720186Y-106359814D01*
X152790431Y-106445409D01*
X152832778Y-106497009D01*
X152916443Y-106653534D01*
X152967963Y-106823373D01*
X152985359Y-107000000D01*
X152967963Y-107176627D01*
X152916443Y-107346466D01*
X152832778Y-107502991D01*
X152803448Y-107538729D01*
X152720186Y-107640186D01*
X152618729Y-107723448D01*
X152582991Y-107752778D01*
X152426466Y-107836443D01*
X152256627Y-107887963D01*
X152190442Y-107894482D01*
X152124260Y-107901000D01*
X152035740Y-107901000D01*
X151969558Y-107894482D01*
X151903373Y-107887963D01*
X151733534Y-107836443D01*
X151577009Y-107752778D01*
X151541271Y-107723448D01*
X151439814Y-107640186D01*
X151356552Y-107538729D01*
X151327222Y-107502991D01*
X151243557Y-107346466D01*
X151192037Y-107176627D01*
X151174641Y-107000000D01*
X151192037Y-106823373D01*
X151243557Y-106653534D01*
X151327222Y-106497009D01*
X151369569Y-106445409D01*
X151439814Y-106359814D01*
X151541271Y-106276552D01*
X151577009Y-106247222D01*
X151733534Y-106163557D01*
X151903373Y-106112037D01*
X151969558Y-106105518D01*
X152035740Y-106099000D01*
X152124260Y-106099000D01*
X152190442Y-106105518D01*
X152190442Y-106105518D01*
G37*
G36*
X154730442Y-106105518D02*
G01*
X154796627Y-106112037D01*
X154966466Y-106163557D01*
X155122991Y-106247222D01*
X155158729Y-106276552D01*
X155260186Y-106359814D01*
X155330431Y-106445409D01*
X155372778Y-106497009D01*
X155456443Y-106653534D01*
X155507963Y-106823373D01*
X155525359Y-107000000D01*
X155507963Y-107176627D01*
X155456443Y-107346466D01*
X155372778Y-107502991D01*
X155343448Y-107538729D01*
X155260186Y-107640186D01*
X155158729Y-107723448D01*
X155122991Y-107752778D01*
X154966466Y-107836443D01*
X154796627Y-107887963D01*
X154730442Y-107894482D01*
X154664260Y-107901000D01*
X154575740Y-107901000D01*
X154509558Y-107894482D01*
X154443373Y-107887963D01*
X154273534Y-107836443D01*
X154117009Y-107752778D01*
X154081271Y-107723448D01*
X153979814Y-107640186D01*
X153896552Y-107538729D01*
X153867222Y-107502991D01*
X153783557Y-107346466D01*
X153732037Y-107176627D01*
X153714641Y-107000000D01*
X153732037Y-106823373D01*
X153783557Y-106653534D01*
X153867222Y-106497009D01*
X153909569Y-106445409D01*
X153979814Y-106359814D01*
X154081271Y-106276552D01*
X154117009Y-106247222D01*
X154273534Y-106163557D01*
X154443373Y-106112037D01*
X154509558Y-106105518D01*
X154575740Y-106099000D01*
X154664260Y-106099000D01*
X154730442Y-106105518D01*
X154730442Y-106105518D01*
G37*
G36*
X164890442Y-106105518D02*
G01*
X164956627Y-106112037D01*
X165126466Y-106163557D01*
X165282991Y-106247222D01*
X165318729Y-106276552D01*
X165420186Y-106359814D01*
X165490431Y-106445409D01*
X165532778Y-106497009D01*
X165616443Y-106653534D01*
X165667963Y-106823373D01*
X165685359Y-107000000D01*
X165667963Y-107176627D01*
X165616443Y-107346466D01*
X165532778Y-107502991D01*
X165503448Y-107538729D01*
X165420186Y-107640186D01*
X165318729Y-107723448D01*
X165282991Y-107752778D01*
X165126466Y-107836443D01*
X164956627Y-107887963D01*
X164890442Y-107894482D01*
X164824260Y-107901000D01*
X164735740Y-107901000D01*
X164669558Y-107894482D01*
X164603373Y-107887963D01*
X164433534Y-107836443D01*
X164277009Y-107752778D01*
X164241271Y-107723448D01*
X164139814Y-107640186D01*
X164056552Y-107538729D01*
X164027222Y-107502991D01*
X163943557Y-107346466D01*
X163892037Y-107176627D01*
X163874641Y-107000000D01*
X163892037Y-106823373D01*
X163943557Y-106653534D01*
X164027222Y-106497009D01*
X164069569Y-106445409D01*
X164139814Y-106359814D01*
X164241271Y-106276552D01*
X164277009Y-106247222D01*
X164433534Y-106163557D01*
X164603373Y-106112037D01*
X164669558Y-106105518D01*
X164735740Y-106099000D01*
X164824260Y-106099000D01*
X164890442Y-106105518D01*
X164890442Y-106105518D01*
G37*
G36*
X157270442Y-106105518D02*
G01*
X157336627Y-106112037D01*
X157506466Y-106163557D01*
X157662991Y-106247222D01*
X157698729Y-106276552D01*
X157800186Y-106359814D01*
X157870431Y-106445409D01*
X157912778Y-106497009D01*
X157996443Y-106653534D01*
X158047963Y-106823373D01*
X158065359Y-107000000D01*
X158047963Y-107176627D01*
X157996443Y-107346466D01*
X157912778Y-107502991D01*
X157883448Y-107538729D01*
X157800186Y-107640186D01*
X157698729Y-107723448D01*
X157662991Y-107752778D01*
X157506466Y-107836443D01*
X157336627Y-107887963D01*
X157270442Y-107894482D01*
X157204260Y-107901000D01*
X157115740Y-107901000D01*
X157049558Y-107894482D01*
X156983373Y-107887963D01*
X156813534Y-107836443D01*
X156657009Y-107752778D01*
X156621271Y-107723448D01*
X156519814Y-107640186D01*
X156436552Y-107538729D01*
X156407222Y-107502991D01*
X156323557Y-107346466D01*
X156272037Y-107176627D01*
X156254641Y-107000000D01*
X156272037Y-106823373D01*
X156323557Y-106653534D01*
X156407222Y-106497009D01*
X156449569Y-106445409D01*
X156519814Y-106359814D01*
X156621271Y-106276552D01*
X156657009Y-106247222D01*
X156813534Y-106163557D01*
X156983373Y-106112037D01*
X157049558Y-106105518D01*
X157115740Y-106099000D01*
X157204260Y-106099000D01*
X157270442Y-106105518D01*
X157270442Y-106105518D01*
G37*
G36*
X162350442Y-106105518D02*
G01*
X162416627Y-106112037D01*
X162586466Y-106163557D01*
X162742991Y-106247222D01*
X162778729Y-106276552D01*
X162880186Y-106359814D01*
X162950431Y-106445409D01*
X162992778Y-106497009D01*
X163076443Y-106653534D01*
X163127963Y-106823373D01*
X163145359Y-107000000D01*
X163127963Y-107176627D01*
X163076443Y-107346466D01*
X162992778Y-107502991D01*
X162963448Y-107538729D01*
X162880186Y-107640186D01*
X162778729Y-107723448D01*
X162742991Y-107752778D01*
X162586466Y-107836443D01*
X162416627Y-107887963D01*
X162350442Y-107894482D01*
X162284260Y-107901000D01*
X162195740Y-107901000D01*
X162129558Y-107894482D01*
X162063373Y-107887963D01*
X161893534Y-107836443D01*
X161737009Y-107752778D01*
X161701271Y-107723448D01*
X161599814Y-107640186D01*
X161516552Y-107538729D01*
X161487222Y-107502991D01*
X161403557Y-107346466D01*
X161352037Y-107176627D01*
X161334641Y-107000000D01*
X161352037Y-106823373D01*
X161403557Y-106653534D01*
X161487222Y-106497009D01*
X161529569Y-106445409D01*
X161599814Y-106359814D01*
X161701271Y-106276552D01*
X161737009Y-106247222D01*
X161893534Y-106163557D01*
X162063373Y-106112037D01*
X162129558Y-106105518D01*
X162195740Y-106099000D01*
X162284260Y-106099000D01*
X162350442Y-106105518D01*
X162350442Y-106105518D01*
G37*
G36*
X138501000Y-107401000D02*
G01*
X137499000Y-107401000D01*
X137499000Y-106499000D01*
X138501000Y-106499000D01*
X138501000Y-107401000D01*
X138501000Y-107401000D01*
G37*
G36*
X141379591Y-106303085D02*
G01*
X141413569Y-106313393D01*
X141444890Y-106330134D01*
X141472339Y-106352661D01*
X141494866Y-106380110D01*
X141511607Y-106411431D01*
X141521915Y-106445409D01*
X141526000Y-106486890D01*
X141526000Y-107088110D01*
X141521915Y-107129591D01*
X141511607Y-107163569D01*
X141494866Y-107194890D01*
X141472339Y-107222339D01*
X141444890Y-107244866D01*
X141413569Y-107261607D01*
X141379591Y-107271915D01*
X141338110Y-107276000D01*
X140661890Y-107276000D01*
X140620409Y-107271915D01*
X140586431Y-107261607D01*
X140555110Y-107244866D01*
X140527661Y-107222339D01*
X140505134Y-107194890D01*
X140488393Y-107163569D01*
X140478085Y-107129591D01*
X140474000Y-107088110D01*
X140474000Y-106486890D01*
X140478085Y-106445409D01*
X140488393Y-106411431D01*
X140505134Y-106380110D01*
X140527661Y-106352661D01*
X140555110Y-106330134D01*
X140586431Y-106313393D01*
X140620409Y-106303085D01*
X140661890Y-106299000D01*
X141338110Y-106299000D01*
X141379591Y-106303085D01*
X141379591Y-106303085D01*
G37*
G36*
X171119591Y-105953085D02*
G01*
X171153569Y-105963393D01*
X171184890Y-105980134D01*
X171212339Y-106002661D01*
X171234866Y-106030110D01*
X171251607Y-106061431D01*
X171261915Y-106095409D01*
X171266000Y-106136890D01*
X171266000Y-106738110D01*
X171261915Y-106779591D01*
X171251607Y-106813569D01*
X171234866Y-106844890D01*
X171212339Y-106872339D01*
X171184890Y-106894866D01*
X171153569Y-106911607D01*
X171119591Y-106921915D01*
X171078110Y-106926000D01*
X170401890Y-106926000D01*
X170360409Y-106921915D01*
X170326431Y-106911607D01*
X170295110Y-106894866D01*
X170267661Y-106872339D01*
X170245134Y-106844890D01*
X170228393Y-106813569D01*
X170218085Y-106779591D01*
X170214000Y-106738110D01*
X170214000Y-106136890D01*
X170218085Y-106095409D01*
X170228393Y-106061431D01*
X170245134Y-106030110D01*
X170267661Y-106002661D01*
X170295110Y-105980134D01*
X170326431Y-105963393D01*
X170360409Y-105953085D01*
X170401890Y-105949000D01*
X171078110Y-105949000D01*
X171119591Y-105953085D01*
X171119591Y-105953085D01*
G37*
G36*
X177560000Y-105965001D02*
G01*
X177562402Y-105989387D01*
X177569515Y-106012836D01*
X177581066Y-106034447D01*
X177596611Y-106053389D01*
X177615553Y-106068934D01*
X177637164Y-106080485D01*
X177660613Y-106087598D01*
X177684999Y-106090000D01*
X180760000Y-106090000D01*
X180760000Y-106910000D01*
X176440000Y-106910000D01*
X176440000Y-105984999D01*
X176437598Y-105960613D01*
X176430485Y-105937164D01*
X176418934Y-105915553D01*
X176403389Y-105896611D01*
X176384447Y-105881066D01*
X176362836Y-105869515D01*
X176339387Y-105862402D01*
X176315001Y-105860000D01*
X175440000Y-105860000D01*
X175440000Y-105140000D01*
X177560000Y-105140000D01*
X177560000Y-105965001D01*
X177560000Y-105965001D01*
G37*
G36*
X132719059Y-105277860D02*
G01*
X132855732Y-105334472D01*
X132978735Y-105416660D01*
X133083340Y-105521265D01*
X133128311Y-105588569D01*
X133165529Y-105644270D01*
X133222140Y-105780941D01*
X133251000Y-105926032D01*
X133251000Y-106073968D01*
X133222140Y-106219059D01*
X133171977Y-106340164D01*
X133165528Y-106355732D01*
X133083340Y-106478735D01*
X132978735Y-106583340D01*
X132855732Y-106665528D01*
X132855731Y-106665529D01*
X132855730Y-106665529D01*
X132719059Y-106722140D01*
X132573968Y-106751000D01*
X132426032Y-106751000D01*
X132280941Y-106722140D01*
X132144270Y-106665529D01*
X132144269Y-106665529D01*
X132144268Y-106665528D01*
X132021265Y-106583340D01*
X131916660Y-106478735D01*
X131834472Y-106355732D01*
X131828024Y-106340164D01*
X131777860Y-106219059D01*
X131749000Y-106073968D01*
X131749000Y-105926032D01*
X131777860Y-105780941D01*
X131834471Y-105644270D01*
X131871689Y-105588569D01*
X131916660Y-105521265D01*
X132021265Y-105416660D01*
X132144268Y-105334472D01*
X132280941Y-105277860D01*
X132426032Y-105249000D01*
X132573968Y-105249000D01*
X132719059Y-105277860D01*
X132719059Y-105277860D01*
G37*
G36*
X130179059Y-105277860D02*
G01*
X130315732Y-105334472D01*
X130438735Y-105416660D01*
X130543340Y-105521265D01*
X130588311Y-105588569D01*
X130625529Y-105644270D01*
X130682140Y-105780941D01*
X130711000Y-105926032D01*
X130711000Y-106073968D01*
X130682140Y-106219059D01*
X130631977Y-106340164D01*
X130625528Y-106355732D01*
X130543340Y-106478735D01*
X130438735Y-106583340D01*
X130315732Y-106665528D01*
X130315731Y-106665529D01*
X130315730Y-106665529D01*
X130179059Y-106722140D01*
X130033968Y-106751000D01*
X129886032Y-106751000D01*
X129740941Y-106722140D01*
X129604270Y-106665529D01*
X129604269Y-106665529D01*
X129604268Y-106665528D01*
X129481265Y-106583340D01*
X129376660Y-106478735D01*
X129294472Y-106355732D01*
X129288024Y-106340164D01*
X129237860Y-106219059D01*
X129209000Y-106073968D01*
X129209000Y-105926032D01*
X129237860Y-105780941D01*
X129294471Y-105644270D01*
X129331689Y-105588569D01*
X129376660Y-105521265D01*
X129481265Y-105416660D01*
X129604268Y-105334472D01*
X129740941Y-105277860D01*
X129886032Y-105249000D01*
X130033968Y-105249000D01*
X130179059Y-105277860D01*
X130179059Y-105277860D01*
G37*
G36*
X136501000Y-106451000D02*
G01*
X135499000Y-106451000D01*
X135499000Y-105549000D01*
X136501000Y-105549000D01*
X136501000Y-106451000D01*
X136501000Y-106451000D01*
G37*
G36*
X174329591Y-104658085D02*
G01*
X174363569Y-104668393D01*
X174394890Y-104685134D01*
X174422339Y-104707661D01*
X174444866Y-104735110D01*
X174461607Y-104766431D01*
X174471915Y-104800409D01*
X174476000Y-104841890D01*
X174476000Y-105518110D01*
X174471915Y-105559591D01*
X174461607Y-105593569D01*
X174444866Y-105624890D01*
X174422339Y-105652339D01*
X174394890Y-105674866D01*
X174363569Y-105691607D01*
X174329591Y-105701915D01*
X174288110Y-105706000D01*
X173686890Y-105706000D01*
X173645409Y-105701915D01*
X173611431Y-105691607D01*
X173580110Y-105674866D01*
X173552661Y-105652339D01*
X173530134Y-105624890D01*
X173513393Y-105593569D01*
X173503085Y-105559591D01*
X173499000Y-105518110D01*
X173499000Y-104841890D01*
X173503085Y-104800409D01*
X173513393Y-104766431D01*
X173530134Y-104735110D01*
X173552661Y-104707661D01*
X173580110Y-104685134D01*
X173611431Y-104668393D01*
X173645409Y-104658085D01*
X173686890Y-104654000D01*
X174288110Y-104654000D01*
X174329591Y-104658085D01*
X174329591Y-104658085D01*
G37*
G36*
X172754591Y-104658085D02*
G01*
X172788569Y-104668393D01*
X172819890Y-104685134D01*
X172847339Y-104707661D01*
X172869866Y-104735110D01*
X172886607Y-104766431D01*
X172896915Y-104800409D01*
X172901000Y-104841890D01*
X172901000Y-105518110D01*
X172896915Y-105559591D01*
X172886607Y-105593569D01*
X172869866Y-105624890D01*
X172847339Y-105652339D01*
X172819890Y-105674866D01*
X172788569Y-105691607D01*
X172754591Y-105701915D01*
X172713110Y-105706000D01*
X172111890Y-105706000D01*
X172070409Y-105701915D01*
X172036431Y-105691607D01*
X172005110Y-105674866D01*
X171977661Y-105652339D01*
X171955134Y-105624890D01*
X171938393Y-105593569D01*
X171928085Y-105559591D01*
X171924000Y-105518110D01*
X171924000Y-104841890D01*
X171928085Y-104800409D01*
X171938393Y-104766431D01*
X171955134Y-104735110D01*
X171977661Y-104707661D01*
X172005110Y-104685134D01*
X172036431Y-104668393D01*
X172070409Y-104658085D01*
X172111890Y-104654000D01*
X172713110Y-104654000D01*
X172754591Y-104658085D01*
X172754591Y-104658085D01*
G37*
G36*
X141379591Y-104728085D02*
G01*
X141413569Y-104738393D01*
X141444890Y-104755134D01*
X141472339Y-104777661D01*
X141494866Y-104805110D01*
X141511607Y-104836431D01*
X141521915Y-104870409D01*
X141526000Y-104911890D01*
X141526000Y-105513110D01*
X141521915Y-105554591D01*
X141511607Y-105588569D01*
X141494866Y-105619890D01*
X141472339Y-105647339D01*
X141444890Y-105669866D01*
X141413569Y-105686607D01*
X141379591Y-105696915D01*
X141338110Y-105701000D01*
X140661890Y-105701000D01*
X140620409Y-105696915D01*
X140586431Y-105686607D01*
X140555110Y-105669866D01*
X140527661Y-105647339D01*
X140505134Y-105619890D01*
X140488393Y-105588569D01*
X140478085Y-105554591D01*
X140474000Y-105513110D01*
X140474000Y-104911890D01*
X140478085Y-104870409D01*
X140488393Y-104836431D01*
X140505134Y-104805110D01*
X140527661Y-104777661D01*
X140555110Y-104755134D01*
X140586431Y-104738393D01*
X140620409Y-104728085D01*
X140661890Y-104724000D01*
X141338110Y-104724000D01*
X141379591Y-104728085D01*
X141379591Y-104728085D01*
G37*
G36*
X138501000Y-105501000D02*
G01*
X137499000Y-105501000D01*
X137499000Y-104599000D01*
X138501000Y-104599000D01*
X138501000Y-105501000D01*
X138501000Y-105501000D01*
G37*
G36*
X171119591Y-104378085D02*
G01*
X171153569Y-104388393D01*
X171184890Y-104405134D01*
X171212339Y-104427661D01*
X171234866Y-104455110D01*
X171251607Y-104486431D01*
X171261915Y-104520409D01*
X171266000Y-104561890D01*
X171266000Y-105163110D01*
X171261915Y-105204591D01*
X171251607Y-105238569D01*
X171234866Y-105269890D01*
X171212339Y-105297339D01*
X171184890Y-105319866D01*
X171153569Y-105336607D01*
X171119591Y-105346915D01*
X171078110Y-105351000D01*
X170401890Y-105351000D01*
X170360409Y-105346915D01*
X170326431Y-105336607D01*
X170295110Y-105319866D01*
X170267661Y-105297339D01*
X170245134Y-105269890D01*
X170228393Y-105238569D01*
X170218085Y-105204591D01*
X170214000Y-105163110D01*
X170214000Y-104561890D01*
X170218085Y-104520409D01*
X170228393Y-104486431D01*
X170245134Y-104455110D01*
X170267661Y-104427661D01*
X170295110Y-104405134D01*
X170326431Y-104388393D01*
X170360409Y-104378085D01*
X170401890Y-104374000D01*
X171078110Y-104374000D01*
X171119591Y-104378085D01*
X171119591Y-104378085D01*
G37*
G36*
X177560000Y-104860000D02*
G01*
X175440000Y-104860000D01*
X175440000Y-104140000D01*
X177560000Y-104140000D01*
X177560000Y-104860000D01*
X177560000Y-104860000D01*
G37*
G36*
X177560000Y-103860000D02*
G01*
X175440000Y-103860000D01*
X175440000Y-103140000D01*
X177560000Y-103140000D01*
X177560000Y-103860000D01*
X177560000Y-103860000D01*
G37*
G36*
X138501000Y-103401000D02*
G01*
X137499000Y-103401000D01*
X137499000Y-102499000D01*
X138501000Y-102499000D01*
X138501000Y-103401000D01*
X138501000Y-103401000D01*
G37*
G36*
X141379591Y-102303085D02*
G01*
X141413569Y-102313393D01*
X141444890Y-102330134D01*
X141472339Y-102352661D01*
X141494866Y-102380110D01*
X141511607Y-102411431D01*
X141521915Y-102445409D01*
X141526000Y-102486890D01*
X141526000Y-103088110D01*
X141521915Y-103129591D01*
X141511607Y-103163569D01*
X141494866Y-103194890D01*
X141472339Y-103222339D01*
X141444890Y-103244866D01*
X141413569Y-103261607D01*
X141379591Y-103271915D01*
X141338110Y-103276000D01*
X140661890Y-103276000D01*
X140620409Y-103271915D01*
X140586431Y-103261607D01*
X140555110Y-103244866D01*
X140527661Y-103222339D01*
X140505134Y-103194890D01*
X140488393Y-103163569D01*
X140478085Y-103129591D01*
X140474000Y-103088110D01*
X140474000Y-102486890D01*
X140478085Y-102445409D01*
X140488393Y-102411431D01*
X140505134Y-102380110D01*
X140527661Y-102352661D01*
X140555110Y-102330134D01*
X140586431Y-102313393D01*
X140620409Y-102303085D01*
X140661890Y-102299000D01*
X141338110Y-102299000D01*
X141379591Y-102303085D01*
X141379591Y-102303085D01*
G37*
G36*
X174329591Y-102148085D02*
G01*
X174363569Y-102158393D01*
X174394890Y-102175134D01*
X174422339Y-102197661D01*
X174444866Y-102225110D01*
X174461607Y-102256431D01*
X174471915Y-102290409D01*
X174476000Y-102331890D01*
X174476000Y-103008110D01*
X174471915Y-103049591D01*
X174461607Y-103083569D01*
X174444866Y-103114890D01*
X174422339Y-103142339D01*
X174394890Y-103164866D01*
X174363569Y-103181607D01*
X174329591Y-103191915D01*
X174288110Y-103196000D01*
X173686890Y-103196000D01*
X173645409Y-103191915D01*
X173611431Y-103181607D01*
X173580110Y-103164866D01*
X173552661Y-103142339D01*
X173530134Y-103114890D01*
X173513393Y-103083569D01*
X173503085Y-103049591D01*
X173499000Y-103008110D01*
X173499000Y-102331890D01*
X173503085Y-102290409D01*
X173513393Y-102256431D01*
X173530134Y-102225110D01*
X173552661Y-102197661D01*
X173580110Y-102175134D01*
X173611431Y-102158393D01*
X173645409Y-102148085D01*
X173686890Y-102144000D01*
X174288110Y-102144000D01*
X174329591Y-102148085D01*
X174329591Y-102148085D01*
G37*
G36*
X172754591Y-102148085D02*
G01*
X172788569Y-102158393D01*
X172819890Y-102175134D01*
X172847339Y-102197661D01*
X172869866Y-102225110D01*
X172886607Y-102256431D01*
X172896915Y-102290409D01*
X172901000Y-102331890D01*
X172901000Y-103008110D01*
X172896915Y-103049591D01*
X172886607Y-103083569D01*
X172869866Y-103114890D01*
X172847339Y-103142339D01*
X172819890Y-103164866D01*
X172788569Y-103181607D01*
X172754591Y-103191915D01*
X172713110Y-103196000D01*
X172111890Y-103196000D01*
X172070409Y-103191915D01*
X172036431Y-103181607D01*
X172005110Y-103164866D01*
X171977661Y-103142339D01*
X171955134Y-103114890D01*
X171938393Y-103083569D01*
X171928085Y-103049591D01*
X171924000Y-103008110D01*
X171924000Y-102331890D01*
X171928085Y-102290409D01*
X171938393Y-102256431D01*
X171955134Y-102225110D01*
X171977661Y-102197661D01*
X172005110Y-102175134D01*
X172036431Y-102158393D01*
X172070409Y-102148085D01*
X172111890Y-102144000D01*
X172713110Y-102144000D01*
X172754591Y-102148085D01*
X172754591Y-102148085D01*
G37*
G36*
X171119591Y-101943085D02*
G01*
X171153569Y-101953393D01*
X171184890Y-101970134D01*
X171212339Y-101992661D01*
X171234866Y-102020110D01*
X171251607Y-102051431D01*
X171261915Y-102085409D01*
X171266000Y-102126890D01*
X171266000Y-102728110D01*
X171261915Y-102769591D01*
X171251607Y-102803569D01*
X171234866Y-102834890D01*
X171212339Y-102862339D01*
X171184890Y-102884866D01*
X171153569Y-102901607D01*
X171119591Y-102911915D01*
X171078110Y-102916000D01*
X170401890Y-102916000D01*
X170360409Y-102911915D01*
X170326431Y-102901607D01*
X170295110Y-102884866D01*
X170267661Y-102862339D01*
X170245134Y-102834890D01*
X170228393Y-102803569D01*
X170218085Y-102769591D01*
X170214000Y-102728110D01*
X170214000Y-102126890D01*
X170218085Y-102085409D01*
X170228393Y-102051431D01*
X170245134Y-102020110D01*
X170267661Y-101992661D01*
X170295110Y-101970134D01*
X170326431Y-101953393D01*
X170360409Y-101943085D01*
X170401890Y-101939000D01*
X171078110Y-101939000D01*
X171119591Y-101943085D01*
X171119591Y-101943085D01*
G37*
G36*
X177560000Y-102860000D02*
G01*
X175440000Y-102860000D01*
X175440000Y-102140000D01*
X177560000Y-102140000D01*
X177560000Y-102860000D01*
X177560000Y-102860000D01*
G37*
G36*
X132719059Y-101277860D02*
G01*
X132836745Y-101326607D01*
X132855732Y-101334472D01*
X132978735Y-101416660D01*
X133083340Y-101521265D01*
X133118576Y-101574000D01*
X133165529Y-101644270D01*
X133222140Y-101780941D01*
X133251000Y-101926032D01*
X133251000Y-102073968D01*
X133222140Y-102219059D01*
X133171977Y-102340164D01*
X133165528Y-102355732D01*
X133083340Y-102478735D01*
X132978735Y-102583340D01*
X132855732Y-102665528D01*
X132855731Y-102665529D01*
X132855730Y-102665529D01*
X132719059Y-102722140D01*
X132573968Y-102751000D01*
X132426032Y-102751000D01*
X132280941Y-102722140D01*
X132144270Y-102665529D01*
X132144269Y-102665529D01*
X132144268Y-102665528D01*
X132021265Y-102583340D01*
X131916660Y-102478735D01*
X131834472Y-102355732D01*
X131828024Y-102340164D01*
X131777860Y-102219059D01*
X131749000Y-102073968D01*
X131749000Y-101926032D01*
X131777860Y-101780941D01*
X131834471Y-101644270D01*
X131881424Y-101574000D01*
X131916660Y-101521265D01*
X132021265Y-101416660D01*
X132144268Y-101334472D01*
X132163256Y-101326607D01*
X132280941Y-101277860D01*
X132426032Y-101249000D01*
X132573968Y-101249000D01*
X132719059Y-101277860D01*
X132719059Y-101277860D01*
G37*
G36*
X130179059Y-101277860D02*
G01*
X130296745Y-101326607D01*
X130315732Y-101334472D01*
X130438735Y-101416660D01*
X130543340Y-101521265D01*
X130578576Y-101574000D01*
X130625529Y-101644270D01*
X130682140Y-101780941D01*
X130711000Y-101926032D01*
X130711000Y-102073968D01*
X130682140Y-102219059D01*
X130631977Y-102340164D01*
X130625528Y-102355732D01*
X130543340Y-102478735D01*
X130438735Y-102583340D01*
X130315732Y-102665528D01*
X130315731Y-102665529D01*
X130315730Y-102665529D01*
X130179059Y-102722140D01*
X130033968Y-102751000D01*
X129886032Y-102751000D01*
X129740941Y-102722140D01*
X129604270Y-102665529D01*
X129604269Y-102665529D01*
X129604268Y-102665528D01*
X129481265Y-102583340D01*
X129376660Y-102478735D01*
X129294472Y-102355732D01*
X129288024Y-102340164D01*
X129237860Y-102219059D01*
X129209000Y-102073968D01*
X129209000Y-101926032D01*
X129237860Y-101780941D01*
X129294471Y-101644270D01*
X129341424Y-101574000D01*
X129376660Y-101521265D01*
X129481265Y-101416660D01*
X129604268Y-101334472D01*
X129623256Y-101326607D01*
X129740941Y-101277860D01*
X129886032Y-101249000D01*
X130033968Y-101249000D01*
X130179059Y-101277860D01*
X130179059Y-101277860D01*
G37*
G36*
X136501000Y-102451000D02*
G01*
X135499000Y-102451000D01*
X135499000Y-101549000D01*
X136501000Y-101549000D01*
X136501000Y-102451000D01*
X136501000Y-102451000D01*
G37*
G36*
X164481000Y-102326000D02*
G01*
X163319000Y-102326000D01*
X163319000Y-101574000D01*
X164481000Y-101574000D01*
X164481000Y-102326000D01*
X164481000Y-102326000D01*
G37*
G36*
X166681000Y-102326000D02*
G01*
X165519000Y-102326000D01*
X165519000Y-99674000D01*
X166681000Y-99674000D01*
X166681000Y-102326000D01*
X166681000Y-102326000D01*
G37*
G36*
X155926000Y-102051000D02*
G01*
X150074000Y-102051000D01*
X150074000Y-100649000D01*
X155926000Y-100649000D01*
X155926000Y-102051000D01*
X155926000Y-102051000D01*
G37*
G36*
X177560000Y-101860000D02*
G01*
X175440000Y-101860000D01*
X175440000Y-101140000D01*
X177560000Y-101140000D01*
X177560000Y-101860000D01*
X177560000Y-101860000D01*
G37*
G36*
X141379591Y-100728085D02*
G01*
X141413569Y-100738393D01*
X141444890Y-100755134D01*
X141472339Y-100777661D01*
X141494866Y-100805110D01*
X141511607Y-100836431D01*
X141521915Y-100870409D01*
X141526000Y-100911890D01*
X141526000Y-101513110D01*
X141521915Y-101554591D01*
X141511607Y-101588569D01*
X141494866Y-101619890D01*
X141472339Y-101647339D01*
X141444890Y-101669866D01*
X141413569Y-101686607D01*
X141379591Y-101696915D01*
X141338110Y-101701000D01*
X140661890Y-101701000D01*
X140620409Y-101696915D01*
X140586431Y-101686607D01*
X140555110Y-101669866D01*
X140527661Y-101647339D01*
X140505134Y-101619890D01*
X140488393Y-101588569D01*
X140478085Y-101554591D01*
X140474000Y-101513110D01*
X140474000Y-100911890D01*
X140478085Y-100870409D01*
X140488393Y-100836431D01*
X140505134Y-100805110D01*
X140527661Y-100777661D01*
X140555110Y-100755134D01*
X140586431Y-100738393D01*
X140620409Y-100728085D01*
X140661890Y-100724000D01*
X141338110Y-100724000D01*
X141379591Y-100728085D01*
X141379591Y-100728085D01*
G37*
G36*
X138501000Y-101501000D02*
G01*
X137499000Y-101501000D01*
X137499000Y-100599000D01*
X138501000Y-100599000D01*
X138501000Y-101501000D01*
X138501000Y-101501000D01*
G37*
G36*
X171119591Y-100368085D02*
G01*
X171153569Y-100378393D01*
X171184890Y-100395134D01*
X171212339Y-100417661D01*
X171234866Y-100445110D01*
X171251607Y-100476431D01*
X171261915Y-100510409D01*
X171266000Y-100551890D01*
X171266000Y-101153110D01*
X171261915Y-101194591D01*
X171251607Y-101228569D01*
X171234866Y-101259890D01*
X171212339Y-101287339D01*
X171184890Y-101309866D01*
X171153569Y-101326607D01*
X171119591Y-101336915D01*
X171078110Y-101341000D01*
X170401890Y-101341000D01*
X170360409Y-101336915D01*
X170326431Y-101326607D01*
X170295110Y-101309866D01*
X170267661Y-101287339D01*
X170245134Y-101259890D01*
X170228393Y-101228569D01*
X170218085Y-101194591D01*
X170214000Y-101153110D01*
X170214000Y-100551890D01*
X170218085Y-100510409D01*
X170228393Y-100476431D01*
X170245134Y-100445110D01*
X170267661Y-100417661D01*
X170295110Y-100395134D01*
X170326431Y-100378393D01*
X170360409Y-100368085D01*
X170401890Y-100364000D01*
X171078110Y-100364000D01*
X171119591Y-100368085D01*
X171119591Y-100368085D01*
G37*
G36*
X162379591Y-100303085D02*
G01*
X162413569Y-100313393D01*
X162444890Y-100330134D01*
X162472339Y-100352661D01*
X162494866Y-100380110D01*
X162511607Y-100411431D01*
X162521915Y-100445409D01*
X162526000Y-100486890D01*
X162526000Y-101088110D01*
X162521915Y-101129591D01*
X162511607Y-101163569D01*
X162494866Y-101194890D01*
X162472339Y-101222339D01*
X162444890Y-101244866D01*
X162413569Y-101261607D01*
X162379591Y-101271915D01*
X162338110Y-101276000D01*
X161661890Y-101276000D01*
X161620409Y-101271915D01*
X161586431Y-101261607D01*
X161555110Y-101244866D01*
X161527661Y-101222339D01*
X161505134Y-101194890D01*
X161488393Y-101163569D01*
X161478085Y-101129591D01*
X161474000Y-101088110D01*
X161474000Y-100486890D01*
X161478085Y-100445409D01*
X161488393Y-100411431D01*
X161505134Y-100380110D01*
X161527661Y-100352661D01*
X161555110Y-100330134D01*
X161586431Y-100313393D01*
X161620409Y-100303085D01*
X161661890Y-100299000D01*
X162338110Y-100299000D01*
X162379591Y-100303085D01*
X162379591Y-100303085D01*
G37*
G36*
X180750000Y-99900000D02*
G01*
X177684999Y-99900000D01*
X177660613Y-99902402D01*
X177637164Y-99909515D01*
X177615553Y-99921066D01*
X177596611Y-99936611D01*
X177581066Y-99955553D01*
X177569515Y-99977164D01*
X177562402Y-100000613D01*
X177560000Y-100024999D01*
X177560000Y-100860000D01*
X175440000Y-100860000D01*
X175440000Y-100140000D01*
X176325001Y-100140000D01*
X176349387Y-100137598D01*
X176372836Y-100130485D01*
X176394447Y-100118934D01*
X176413389Y-100103389D01*
X176428934Y-100084447D01*
X176440485Y-100062836D01*
X176447598Y-100039387D01*
X176450000Y-100015001D01*
X176450000Y-99100000D01*
X180750000Y-99100000D01*
X180750000Y-99900000D01*
X180750000Y-99900000D01*
G37*
G36*
X143554591Y-99478085D02*
G01*
X143588569Y-99488393D01*
X143619890Y-99505134D01*
X143647339Y-99527661D01*
X143669866Y-99555110D01*
X143686607Y-99586431D01*
X143696915Y-99620409D01*
X143701000Y-99661890D01*
X143701000Y-100338110D01*
X143696915Y-100379591D01*
X143686607Y-100413569D01*
X143669866Y-100444890D01*
X143647339Y-100472339D01*
X143619890Y-100494866D01*
X143588569Y-100511607D01*
X143554591Y-100521915D01*
X143513110Y-100526000D01*
X142911890Y-100526000D01*
X142870409Y-100521915D01*
X142836431Y-100511607D01*
X142805110Y-100494866D01*
X142777661Y-100472339D01*
X142755134Y-100444890D01*
X142738393Y-100413569D01*
X142728085Y-100379591D01*
X142724000Y-100338110D01*
X142724000Y-99661890D01*
X142728085Y-99620409D01*
X142738393Y-99586431D01*
X142755134Y-99555110D01*
X142777661Y-99527661D01*
X142805110Y-99505134D01*
X142836431Y-99488393D01*
X142870409Y-99478085D01*
X142911890Y-99474000D01*
X143513110Y-99474000D01*
X143554591Y-99478085D01*
X143554591Y-99478085D01*
G37*
G36*
X145129591Y-99478085D02*
G01*
X145163569Y-99488393D01*
X145194890Y-99505134D01*
X145222339Y-99527661D01*
X145244866Y-99555110D01*
X145261607Y-99586431D01*
X145271915Y-99620409D01*
X145276000Y-99661890D01*
X145276000Y-100338110D01*
X145271915Y-100379591D01*
X145261607Y-100413569D01*
X145244866Y-100444890D01*
X145222339Y-100472339D01*
X145194890Y-100494866D01*
X145163569Y-100511607D01*
X145129591Y-100521915D01*
X145088110Y-100526000D01*
X144486890Y-100526000D01*
X144445409Y-100521915D01*
X144411431Y-100511607D01*
X144380110Y-100494866D01*
X144352661Y-100472339D01*
X144330134Y-100444890D01*
X144313393Y-100413569D01*
X144303085Y-100379591D01*
X144299000Y-100338110D01*
X144299000Y-99661890D01*
X144303085Y-99620409D01*
X144313393Y-99586431D01*
X144330134Y-99555110D01*
X144352661Y-99527661D01*
X144380110Y-99505134D01*
X144411431Y-99488393D01*
X144445409Y-99478085D01*
X144486890Y-99474000D01*
X145088110Y-99474000D01*
X145129591Y-99478085D01*
X145129591Y-99478085D01*
G37*
G36*
X164481000Y-100426000D02*
G01*
X163319000Y-100426000D01*
X163319000Y-99674000D01*
X164481000Y-99674000D01*
X164481000Y-100426000D01*
X164481000Y-100426000D01*
G37*
G36*
X149351000Y-99926000D02*
G01*
X147949000Y-99926000D01*
X147949000Y-94074000D01*
X149351000Y-94074000D01*
X149351000Y-99926000D01*
X149351000Y-99926000D01*
G37*
G36*
X158051000Y-99926000D02*
G01*
X156649000Y-99926000D01*
X156649000Y-94074000D01*
X158051000Y-94074000D01*
X158051000Y-99926000D01*
X158051000Y-99926000D01*
G37*
G36*
X162379591Y-98728085D02*
G01*
X162413569Y-98738393D01*
X162444890Y-98755134D01*
X162472339Y-98777661D01*
X162494866Y-98805110D01*
X162511607Y-98836431D01*
X162521915Y-98870409D01*
X162526000Y-98911890D01*
X162526000Y-99513110D01*
X162521915Y-99554591D01*
X162511607Y-99588569D01*
X162494866Y-99619890D01*
X162472339Y-99647339D01*
X162444890Y-99669866D01*
X162413569Y-99686607D01*
X162379591Y-99696915D01*
X162338110Y-99701000D01*
X161661890Y-99701000D01*
X161620409Y-99696915D01*
X161586431Y-99686607D01*
X161555110Y-99669866D01*
X161527661Y-99647339D01*
X161505134Y-99619890D01*
X161488393Y-99588569D01*
X161478085Y-99554591D01*
X161474000Y-99513110D01*
X161474000Y-98911890D01*
X161478085Y-98870409D01*
X161488393Y-98836431D01*
X161505134Y-98805110D01*
X161527661Y-98777661D01*
X161555110Y-98755134D01*
X161586431Y-98738393D01*
X161620409Y-98728085D01*
X161661890Y-98724000D01*
X162338110Y-98724000D01*
X162379591Y-98728085D01*
X162379591Y-98728085D01*
G37*
G36*
X138501000Y-99401000D02*
G01*
X137499000Y-99401000D01*
X137499000Y-98499000D01*
X138501000Y-98499000D01*
X138501000Y-99401000D01*
X138501000Y-99401000D01*
G37*
G36*
X141379591Y-98090585D02*
G01*
X141413569Y-98100893D01*
X141444890Y-98117634D01*
X141472339Y-98140161D01*
X141494866Y-98167610D01*
X141511607Y-98198931D01*
X141521915Y-98232909D01*
X141526000Y-98274390D01*
X141526000Y-98875610D01*
X141521915Y-98917091D01*
X141511607Y-98951069D01*
X141494866Y-98982390D01*
X141472339Y-99009839D01*
X141444890Y-99032366D01*
X141413569Y-99049107D01*
X141379591Y-99059415D01*
X141338110Y-99063500D01*
X140661890Y-99063500D01*
X140620409Y-99059415D01*
X140586431Y-99049107D01*
X140555110Y-99032366D01*
X140527661Y-99009839D01*
X140505134Y-98982390D01*
X140488393Y-98951069D01*
X140478085Y-98917091D01*
X140474000Y-98875610D01*
X140474000Y-98274390D01*
X140478085Y-98232909D01*
X140488393Y-98198931D01*
X140505134Y-98167610D01*
X140527661Y-98140161D01*
X140555110Y-98117634D01*
X140586431Y-98100893D01*
X140620409Y-98090585D01*
X140661890Y-98086500D01*
X141338110Y-98086500D01*
X141379591Y-98090585D01*
X141379591Y-98090585D01*
G37*
G36*
X130179059Y-97277860D02*
G01*
X130315732Y-97334472D01*
X130438735Y-97416660D01*
X130543340Y-97521265D01*
X130625528Y-97644268D01*
X130625529Y-97644270D01*
X130682140Y-97780941D01*
X130711000Y-97926032D01*
X130711000Y-98073968D01*
X130682140Y-98219059D01*
X130656173Y-98281750D01*
X130625528Y-98355732D01*
X130543340Y-98478735D01*
X130438735Y-98583340D01*
X130315732Y-98665528D01*
X130315731Y-98665529D01*
X130315730Y-98665529D01*
X130179059Y-98722140D01*
X130033968Y-98751000D01*
X129886032Y-98751000D01*
X129740941Y-98722140D01*
X129604270Y-98665529D01*
X129604269Y-98665529D01*
X129604268Y-98665528D01*
X129481265Y-98583340D01*
X129376660Y-98478735D01*
X129294472Y-98355732D01*
X129263828Y-98281750D01*
X129237860Y-98219059D01*
X129209000Y-98073968D01*
X129209000Y-97926032D01*
X129237860Y-97780941D01*
X129294471Y-97644270D01*
X129294472Y-97644268D01*
X129376660Y-97521265D01*
X129481265Y-97416660D01*
X129604268Y-97334472D01*
X129740941Y-97277860D01*
X129886032Y-97249000D01*
X130033968Y-97249000D01*
X130179059Y-97277860D01*
X130179059Y-97277860D01*
G37*
G36*
X132719059Y-97277860D02*
G01*
X132855732Y-97334472D01*
X132978735Y-97416660D01*
X133083340Y-97521265D01*
X133165528Y-97644268D01*
X133165529Y-97644270D01*
X133222140Y-97780941D01*
X133251000Y-97926032D01*
X133251000Y-98073968D01*
X133222140Y-98219059D01*
X133196173Y-98281750D01*
X133165528Y-98355732D01*
X133083340Y-98478735D01*
X132978735Y-98583340D01*
X132855732Y-98665528D01*
X132855731Y-98665529D01*
X132855730Y-98665529D01*
X132719059Y-98722140D01*
X132573968Y-98751000D01*
X132426032Y-98751000D01*
X132280941Y-98722140D01*
X132144270Y-98665529D01*
X132144269Y-98665529D01*
X132144268Y-98665528D01*
X132021265Y-98583340D01*
X131916660Y-98478735D01*
X131834472Y-98355732D01*
X131803828Y-98281750D01*
X131777860Y-98219059D01*
X131749000Y-98073968D01*
X131749000Y-97926032D01*
X131777860Y-97780941D01*
X131834471Y-97644270D01*
X131834472Y-97644268D01*
X131916660Y-97521265D01*
X132021265Y-97416660D01*
X132144268Y-97334472D01*
X132280941Y-97277860D01*
X132426032Y-97249000D01*
X132573968Y-97249000D01*
X132719059Y-97277860D01*
X132719059Y-97277860D01*
G37*
G36*
X164554591Y-97478085D02*
G01*
X164588569Y-97488393D01*
X164619890Y-97505134D01*
X164647339Y-97527661D01*
X164669866Y-97555110D01*
X164686607Y-97586431D01*
X164696915Y-97620409D01*
X164701000Y-97661890D01*
X164701000Y-98338110D01*
X164696915Y-98379591D01*
X164686607Y-98413569D01*
X164669866Y-98444890D01*
X164647339Y-98472339D01*
X164619890Y-98494866D01*
X164588569Y-98511607D01*
X164554591Y-98521915D01*
X164513110Y-98526000D01*
X163911890Y-98526000D01*
X163870409Y-98521915D01*
X163836431Y-98511607D01*
X163805110Y-98494866D01*
X163777661Y-98472339D01*
X163755134Y-98444890D01*
X163738393Y-98413569D01*
X163728085Y-98379591D01*
X163724000Y-98338110D01*
X163724000Y-97661890D01*
X163728085Y-97620409D01*
X163738393Y-97586431D01*
X163755134Y-97555110D01*
X163777661Y-97527661D01*
X163805110Y-97505134D01*
X163836431Y-97488393D01*
X163870409Y-97478085D01*
X163911890Y-97474000D01*
X164513110Y-97474000D01*
X164554591Y-97478085D01*
X164554591Y-97478085D01*
G37*
G36*
X143554591Y-97478085D02*
G01*
X143588569Y-97488393D01*
X143619890Y-97505134D01*
X143647339Y-97527661D01*
X143669866Y-97555110D01*
X143686607Y-97586431D01*
X143696915Y-97620409D01*
X143701000Y-97661890D01*
X143701000Y-98338110D01*
X143696915Y-98379591D01*
X143686607Y-98413569D01*
X143669866Y-98444890D01*
X143647339Y-98472339D01*
X143619890Y-98494866D01*
X143588569Y-98511607D01*
X143554591Y-98521915D01*
X143513110Y-98526000D01*
X142911890Y-98526000D01*
X142870409Y-98521915D01*
X142836431Y-98511607D01*
X142805110Y-98494866D01*
X142777661Y-98472339D01*
X142755134Y-98444890D01*
X142738393Y-98413569D01*
X142728085Y-98379591D01*
X142724000Y-98338110D01*
X142724000Y-97661890D01*
X142728085Y-97620409D01*
X142738393Y-97586431D01*
X142755134Y-97555110D01*
X142777661Y-97527661D01*
X142805110Y-97505134D01*
X142836431Y-97488393D01*
X142870409Y-97478085D01*
X142911890Y-97474000D01*
X143513110Y-97474000D01*
X143554591Y-97478085D01*
X143554591Y-97478085D01*
G37*
G36*
X145129591Y-97478085D02*
G01*
X145163569Y-97488393D01*
X145194890Y-97505134D01*
X145222339Y-97527661D01*
X145244866Y-97555110D01*
X145261607Y-97586431D01*
X145271915Y-97620409D01*
X145276000Y-97661890D01*
X145276000Y-98338110D01*
X145271915Y-98379591D01*
X145261607Y-98413569D01*
X145244866Y-98444890D01*
X145222339Y-98472339D01*
X145194890Y-98494866D01*
X145163569Y-98511607D01*
X145129591Y-98521915D01*
X145088110Y-98526000D01*
X144486890Y-98526000D01*
X144445409Y-98521915D01*
X144411431Y-98511607D01*
X144380110Y-98494866D01*
X144352661Y-98472339D01*
X144330134Y-98444890D01*
X144313393Y-98413569D01*
X144303085Y-98379591D01*
X144299000Y-98338110D01*
X144299000Y-97661890D01*
X144303085Y-97620409D01*
X144313393Y-97586431D01*
X144330134Y-97555110D01*
X144352661Y-97527661D01*
X144380110Y-97505134D01*
X144411431Y-97488393D01*
X144445409Y-97478085D01*
X144486890Y-97474000D01*
X145088110Y-97474000D01*
X145129591Y-97478085D01*
X145129591Y-97478085D01*
G37*
G36*
X166129591Y-97478085D02*
G01*
X166163569Y-97488393D01*
X166194890Y-97505134D01*
X166222339Y-97527661D01*
X166244866Y-97555110D01*
X166261607Y-97586431D01*
X166271915Y-97620409D01*
X166276000Y-97661890D01*
X166276000Y-98338110D01*
X166271915Y-98379591D01*
X166261607Y-98413569D01*
X166244866Y-98444890D01*
X166222339Y-98472339D01*
X166194890Y-98494866D01*
X166163569Y-98511607D01*
X166129591Y-98521915D01*
X166088110Y-98526000D01*
X165486890Y-98526000D01*
X165445409Y-98521915D01*
X165411431Y-98511607D01*
X165380110Y-98494866D01*
X165352661Y-98472339D01*
X165330134Y-98444890D01*
X165313393Y-98413569D01*
X165303085Y-98379591D01*
X165299000Y-98338110D01*
X165299000Y-97661890D01*
X165303085Y-97620409D01*
X165313393Y-97586431D01*
X165330134Y-97555110D01*
X165352661Y-97527661D01*
X165380110Y-97505134D01*
X165411431Y-97488393D01*
X165445409Y-97478085D01*
X165486890Y-97474000D01*
X166088110Y-97474000D01*
X166129591Y-97478085D01*
X166129591Y-97478085D01*
G37*
G36*
X170129591Y-97478085D02*
G01*
X170163569Y-97488393D01*
X170194890Y-97505134D01*
X170222339Y-97527661D01*
X170244866Y-97555110D01*
X170261607Y-97586431D01*
X170271915Y-97620409D01*
X170276000Y-97661890D01*
X170276000Y-98338110D01*
X170271915Y-98379591D01*
X170261607Y-98413569D01*
X170244866Y-98444890D01*
X170222339Y-98472339D01*
X170194890Y-98494866D01*
X170163569Y-98511607D01*
X170129591Y-98521915D01*
X170088110Y-98526000D01*
X169486890Y-98526000D01*
X169445409Y-98521915D01*
X169411431Y-98511607D01*
X169380110Y-98494866D01*
X169352661Y-98472339D01*
X169330134Y-98444890D01*
X169313393Y-98413569D01*
X169303085Y-98379591D01*
X169299000Y-98338110D01*
X169299000Y-97661890D01*
X169303085Y-97620409D01*
X169313393Y-97586431D01*
X169330134Y-97555110D01*
X169352661Y-97527661D01*
X169380110Y-97505134D01*
X169411431Y-97488393D01*
X169445409Y-97478085D01*
X169486890Y-97474000D01*
X170088110Y-97474000D01*
X170129591Y-97478085D01*
X170129591Y-97478085D01*
G37*
G36*
X168554591Y-97478085D02*
G01*
X168588569Y-97488393D01*
X168619890Y-97505134D01*
X168647339Y-97527661D01*
X168669866Y-97555110D01*
X168686607Y-97586431D01*
X168696915Y-97620409D01*
X168701000Y-97661890D01*
X168701000Y-98338110D01*
X168696915Y-98379591D01*
X168686607Y-98413569D01*
X168669866Y-98444890D01*
X168647339Y-98472339D01*
X168619890Y-98494866D01*
X168588569Y-98511607D01*
X168554591Y-98521915D01*
X168513110Y-98526000D01*
X167911890Y-98526000D01*
X167870409Y-98521915D01*
X167836431Y-98511607D01*
X167805110Y-98494866D01*
X167777661Y-98472339D01*
X167755134Y-98444890D01*
X167738393Y-98413569D01*
X167728085Y-98379591D01*
X167724000Y-98338110D01*
X167724000Y-97661890D01*
X167728085Y-97620409D01*
X167738393Y-97586431D01*
X167755134Y-97555110D01*
X167777661Y-97527661D01*
X167805110Y-97505134D01*
X167836431Y-97488393D01*
X167870409Y-97478085D01*
X167911890Y-97474000D01*
X168513110Y-97474000D01*
X168554591Y-97478085D01*
X168554591Y-97478085D01*
G37*
G36*
X136501000Y-98451000D02*
G01*
X135499000Y-98451000D01*
X135499000Y-97549000D01*
X136501000Y-97549000D01*
X136501000Y-98451000D01*
X136501000Y-98451000D01*
G37*
G36*
X172651000Y-97751000D02*
G01*
X171199000Y-97751000D01*
X171199000Y-94249000D01*
X172651000Y-94249000D01*
X172651000Y-97751000D01*
X172651000Y-97751000D01*
G37*
G36*
X174801000Y-97751000D02*
G01*
X173349000Y-97751000D01*
X173349000Y-94249000D01*
X174801000Y-94249000D01*
X174801000Y-97751000D01*
X174801000Y-97751000D01*
G37*
G36*
X138501000Y-97501000D02*
G01*
X137499000Y-97501000D01*
X137499000Y-96599000D01*
X138501000Y-96599000D01*
X138501000Y-97501000D01*
X138501000Y-97501000D01*
G37*
G36*
X141379591Y-96515585D02*
G01*
X141413569Y-96525893D01*
X141444890Y-96542634D01*
X141472339Y-96565161D01*
X141494866Y-96592610D01*
X141511607Y-96623931D01*
X141521915Y-96657909D01*
X141526000Y-96699390D01*
X141526000Y-97300610D01*
X141521915Y-97342091D01*
X141511607Y-97376069D01*
X141494866Y-97407390D01*
X141472339Y-97434839D01*
X141444890Y-97457366D01*
X141413569Y-97474107D01*
X141379591Y-97484415D01*
X141338110Y-97488500D01*
X140661890Y-97488500D01*
X140620409Y-97484415D01*
X140586431Y-97474107D01*
X140555110Y-97457366D01*
X140527661Y-97434839D01*
X140505134Y-97407390D01*
X140488393Y-97376069D01*
X140478085Y-97342091D01*
X140474000Y-97300610D01*
X140474000Y-96699390D01*
X140478085Y-96657909D01*
X140488393Y-96623931D01*
X140505134Y-96592610D01*
X140527661Y-96565161D01*
X140555110Y-96542634D01*
X140586431Y-96525893D01*
X140620409Y-96515585D01*
X140661890Y-96511500D01*
X141338110Y-96511500D01*
X141379591Y-96515585D01*
X141379591Y-96515585D01*
G37*
G36*
X170129591Y-95478085D02*
G01*
X170163569Y-95488393D01*
X170194890Y-95505134D01*
X170222339Y-95527661D01*
X170244866Y-95555110D01*
X170261607Y-95586431D01*
X170271915Y-95620409D01*
X170276000Y-95661890D01*
X170276000Y-96338110D01*
X170271915Y-96379591D01*
X170261607Y-96413569D01*
X170244866Y-96444890D01*
X170222339Y-96472339D01*
X170194890Y-96494866D01*
X170163569Y-96511607D01*
X170129591Y-96521915D01*
X170088110Y-96526000D01*
X169486890Y-96526000D01*
X169445409Y-96521915D01*
X169411431Y-96511607D01*
X169380110Y-96494866D01*
X169352661Y-96472339D01*
X169330134Y-96444890D01*
X169313393Y-96413569D01*
X169303085Y-96379591D01*
X169299000Y-96338110D01*
X169299000Y-95661890D01*
X169303085Y-95620409D01*
X169313393Y-95586431D01*
X169330134Y-95555110D01*
X169352661Y-95527661D01*
X169380110Y-95505134D01*
X169411431Y-95488393D01*
X169445409Y-95478085D01*
X169486890Y-95474000D01*
X170088110Y-95474000D01*
X170129591Y-95478085D01*
X170129591Y-95478085D01*
G37*
G36*
X143554591Y-95478085D02*
G01*
X143588569Y-95488393D01*
X143619890Y-95505134D01*
X143647339Y-95527661D01*
X143669866Y-95555110D01*
X143686607Y-95586431D01*
X143696915Y-95620409D01*
X143701000Y-95661890D01*
X143701000Y-96338110D01*
X143696915Y-96379591D01*
X143686607Y-96413569D01*
X143669866Y-96444890D01*
X143647339Y-96472339D01*
X143619890Y-96494866D01*
X143588569Y-96511607D01*
X143554591Y-96521915D01*
X143513110Y-96526000D01*
X142911890Y-96526000D01*
X142870409Y-96521915D01*
X142836431Y-96511607D01*
X142805110Y-96494866D01*
X142777661Y-96472339D01*
X142755134Y-96444890D01*
X142738393Y-96413569D01*
X142728085Y-96379591D01*
X142724000Y-96338110D01*
X142724000Y-95661890D01*
X142728085Y-95620409D01*
X142738393Y-95586431D01*
X142755134Y-95555110D01*
X142777661Y-95527661D01*
X142805110Y-95505134D01*
X142836431Y-95488393D01*
X142870409Y-95478085D01*
X142911890Y-95474000D01*
X143513110Y-95474000D01*
X143554591Y-95478085D01*
X143554591Y-95478085D01*
G37*
G36*
X145129591Y-95478085D02*
G01*
X145163569Y-95488393D01*
X145194890Y-95505134D01*
X145222339Y-95527661D01*
X145244866Y-95555110D01*
X145261607Y-95586431D01*
X145271915Y-95620409D01*
X145276000Y-95661890D01*
X145276000Y-96338110D01*
X145271915Y-96379591D01*
X145261607Y-96413569D01*
X145244866Y-96444890D01*
X145222339Y-96472339D01*
X145194890Y-96494866D01*
X145163569Y-96511607D01*
X145129591Y-96521915D01*
X145088110Y-96526000D01*
X144486890Y-96526000D01*
X144445409Y-96521915D01*
X144411431Y-96511607D01*
X144380110Y-96494866D01*
X144352661Y-96472339D01*
X144330134Y-96444890D01*
X144313393Y-96413569D01*
X144303085Y-96379591D01*
X144299000Y-96338110D01*
X144299000Y-95661890D01*
X144303085Y-95620409D01*
X144313393Y-95586431D01*
X144330134Y-95555110D01*
X144352661Y-95527661D01*
X144380110Y-95505134D01*
X144411431Y-95488393D01*
X144445409Y-95478085D01*
X144486890Y-95474000D01*
X145088110Y-95474000D01*
X145129591Y-95478085D01*
X145129591Y-95478085D01*
G37*
G36*
X168554591Y-95478085D02*
G01*
X168588569Y-95488393D01*
X168619890Y-95505134D01*
X168647339Y-95527661D01*
X168669866Y-95555110D01*
X168686607Y-95586431D01*
X168696915Y-95620409D01*
X168701000Y-95661890D01*
X168701000Y-96338110D01*
X168696915Y-96379591D01*
X168686607Y-96413569D01*
X168669866Y-96444890D01*
X168647339Y-96472339D01*
X168619890Y-96494866D01*
X168588569Y-96511607D01*
X168554591Y-96521915D01*
X168513110Y-96526000D01*
X167911890Y-96526000D01*
X167870409Y-96521915D01*
X167836431Y-96511607D01*
X167805110Y-96494866D01*
X167777661Y-96472339D01*
X167755134Y-96444890D01*
X167738393Y-96413569D01*
X167728085Y-96379591D01*
X167724000Y-96338110D01*
X167724000Y-95661890D01*
X167728085Y-95620409D01*
X167738393Y-95586431D01*
X167755134Y-95555110D01*
X167777661Y-95527661D01*
X167805110Y-95505134D01*
X167836431Y-95488393D01*
X167870409Y-95478085D01*
X167911890Y-95474000D01*
X168513110Y-95474000D01*
X168554591Y-95478085D01*
X168554591Y-95478085D01*
G37*
G36*
X179598254Y-91027818D02*
G01*
X179971511Y-91182426D01*
X179971513Y-91182427D01*
X180266589Y-91379591D01*
X180307436Y-91406884D01*
X180593116Y-91692564D01*
X180817574Y-92028489D01*
X180972182Y-92401746D01*
X181051000Y-92797993D01*
X181051000Y-93202007D01*
X180972182Y-93598254D01*
X180911453Y-93744866D01*
X180817573Y-93971513D01*
X180593116Y-94307436D01*
X180307436Y-94593116D01*
X179971513Y-94817573D01*
X179971512Y-94817574D01*
X179971511Y-94817574D01*
X179598254Y-94972182D01*
X179202007Y-95051000D01*
X178797993Y-95051000D01*
X178401746Y-94972182D01*
X178028489Y-94817574D01*
X178028488Y-94817574D01*
X178028487Y-94817573D01*
X177692564Y-94593116D01*
X177406884Y-94307436D01*
X177182427Y-93971513D01*
X177088547Y-93744866D01*
X177027818Y-93598254D01*
X176949000Y-93202007D01*
X176949000Y-92797993D01*
X177027818Y-92401746D01*
X177182426Y-92028489D01*
X177406884Y-91692564D01*
X177692564Y-91406884D01*
X177733411Y-91379591D01*
X178028487Y-91182427D01*
X178028489Y-91182426D01*
X178401746Y-91027818D01*
X178797993Y-90949000D01*
X179202007Y-90949000D01*
X179598254Y-91027818D01*
X179598254Y-91027818D01*
G37*
G36*
X168379591Y-93303085D02*
G01*
X168413569Y-93313393D01*
X168444890Y-93330134D01*
X168472339Y-93352661D01*
X168494866Y-93380110D01*
X168511607Y-93411431D01*
X168521915Y-93445409D01*
X168526000Y-93486890D01*
X168526000Y-94088110D01*
X168521915Y-94129591D01*
X168511607Y-94163569D01*
X168494866Y-94194890D01*
X168472339Y-94222339D01*
X168444890Y-94244866D01*
X168413569Y-94261607D01*
X168379591Y-94271915D01*
X168338110Y-94276000D01*
X167661890Y-94276000D01*
X167620409Y-94271915D01*
X167586431Y-94261607D01*
X167555110Y-94244866D01*
X167527661Y-94222339D01*
X167505134Y-94194890D01*
X167488393Y-94163569D01*
X167478085Y-94129591D01*
X167474000Y-94088110D01*
X167474000Y-93486890D01*
X167478085Y-93445409D01*
X167488393Y-93411431D01*
X167505134Y-93380110D01*
X167527661Y-93352661D01*
X167555110Y-93330134D01*
X167586431Y-93313393D01*
X167620409Y-93303085D01*
X167661890Y-93299000D01*
X168338110Y-93299000D01*
X168379591Y-93303085D01*
X168379591Y-93303085D01*
G37*
G36*
X145951000Y-94051000D02*
G01*
X144049000Y-94051000D01*
X144049000Y-92949000D01*
X145951000Y-92949000D01*
X145951000Y-94051000D01*
X145951000Y-94051000D01*
G37*
G36*
X140304591Y-92728085D02*
G01*
X140338569Y-92738393D01*
X140369890Y-92755134D01*
X140397339Y-92777661D01*
X140419866Y-92805110D01*
X140436607Y-92836431D01*
X140446915Y-92870409D01*
X140451000Y-92911890D01*
X140451000Y-93588110D01*
X140446915Y-93629591D01*
X140436607Y-93663569D01*
X140419866Y-93694890D01*
X140397339Y-93722339D01*
X140369890Y-93744866D01*
X140338569Y-93761607D01*
X140304591Y-93771915D01*
X140263110Y-93776000D01*
X139661890Y-93776000D01*
X139620409Y-93771915D01*
X139586431Y-93761607D01*
X139555110Y-93744866D01*
X139527661Y-93722339D01*
X139505134Y-93694890D01*
X139488393Y-93663569D01*
X139478085Y-93629591D01*
X139474000Y-93588110D01*
X139474000Y-92911890D01*
X139478085Y-92870409D01*
X139488393Y-92836431D01*
X139505134Y-92805110D01*
X139527661Y-92777661D01*
X139555110Y-92755134D01*
X139586431Y-92738393D01*
X139620409Y-92728085D01*
X139661890Y-92724000D01*
X140263110Y-92724000D01*
X140304591Y-92728085D01*
X140304591Y-92728085D01*
G37*
G36*
X141879591Y-92728085D02*
G01*
X141913569Y-92738393D01*
X141944890Y-92755134D01*
X141972339Y-92777661D01*
X141994866Y-92805110D01*
X142011607Y-92836431D01*
X142021915Y-92870409D01*
X142026000Y-92911890D01*
X142026000Y-93588110D01*
X142021915Y-93629591D01*
X142011607Y-93663569D01*
X141994866Y-93694890D01*
X141972339Y-93722339D01*
X141944890Y-93744866D01*
X141913569Y-93761607D01*
X141879591Y-93771915D01*
X141838110Y-93776000D01*
X141236890Y-93776000D01*
X141195409Y-93771915D01*
X141161431Y-93761607D01*
X141130110Y-93744866D01*
X141102661Y-93722339D01*
X141080134Y-93694890D01*
X141063393Y-93663569D01*
X141053085Y-93629591D01*
X141049000Y-93588110D01*
X141049000Y-92911890D01*
X141053085Y-92870409D01*
X141063393Y-92836431D01*
X141080134Y-92805110D01*
X141102661Y-92777661D01*
X141130110Y-92755134D01*
X141161431Y-92738393D01*
X141195409Y-92728085D01*
X141236890Y-92724000D01*
X141838110Y-92724000D01*
X141879591Y-92728085D01*
X141879591Y-92728085D01*
G37*
G36*
X161554591Y-92478085D02*
G01*
X161588569Y-92488393D01*
X161619890Y-92505134D01*
X161647339Y-92527661D01*
X161669866Y-92555110D01*
X161686607Y-92586431D01*
X161696915Y-92620409D01*
X161701000Y-92661890D01*
X161701000Y-93338110D01*
X161696915Y-93379591D01*
X161686607Y-93413569D01*
X161669866Y-93444890D01*
X161647339Y-93472339D01*
X161619890Y-93494866D01*
X161588569Y-93511607D01*
X161554591Y-93521915D01*
X161513110Y-93526000D01*
X160911890Y-93526000D01*
X160870409Y-93521915D01*
X160836431Y-93511607D01*
X160805110Y-93494866D01*
X160777661Y-93472339D01*
X160755134Y-93444890D01*
X160738393Y-93413569D01*
X160728085Y-93379591D01*
X160724000Y-93338110D01*
X160724000Y-92661890D01*
X160728085Y-92620409D01*
X160738393Y-92586431D01*
X160755134Y-92555110D01*
X160777661Y-92527661D01*
X160805110Y-92505134D01*
X160836431Y-92488393D01*
X160870409Y-92478085D01*
X160911890Y-92474000D01*
X161513110Y-92474000D01*
X161554591Y-92478085D01*
X161554591Y-92478085D01*
G37*
G36*
X163129591Y-92478085D02*
G01*
X163163569Y-92488393D01*
X163194890Y-92505134D01*
X163222339Y-92527661D01*
X163244866Y-92555110D01*
X163261607Y-92586431D01*
X163271915Y-92620409D01*
X163276000Y-92661890D01*
X163276000Y-93338110D01*
X163271915Y-93379591D01*
X163261607Y-93413569D01*
X163244866Y-93444890D01*
X163222339Y-93472339D01*
X163194890Y-93494866D01*
X163163569Y-93511607D01*
X163129591Y-93521915D01*
X163088110Y-93526000D01*
X162486890Y-93526000D01*
X162445409Y-93521915D01*
X162411431Y-93511607D01*
X162380110Y-93494866D01*
X162352661Y-93472339D01*
X162330134Y-93444890D01*
X162313393Y-93413569D01*
X162303085Y-93379591D01*
X162299000Y-93338110D01*
X162299000Y-92661890D01*
X162303085Y-92620409D01*
X162313393Y-92586431D01*
X162330134Y-92555110D01*
X162352661Y-92527661D01*
X162380110Y-92505134D01*
X162411431Y-92488393D01*
X162445409Y-92478085D01*
X162486890Y-92474000D01*
X163088110Y-92474000D01*
X163129591Y-92478085D01*
X163129591Y-92478085D01*
G37*
G36*
X155926000Y-93351000D02*
G01*
X150074000Y-93351000D01*
X150074000Y-91949000D01*
X155926000Y-91949000D01*
X155926000Y-93351000D01*
X155926000Y-93351000D01*
G37*
G36*
X168379591Y-91728085D02*
G01*
X168413569Y-91738393D01*
X168444890Y-91755134D01*
X168472339Y-91777661D01*
X168494866Y-91805110D01*
X168511607Y-91836431D01*
X168521915Y-91870409D01*
X168526000Y-91911890D01*
X168526000Y-92513110D01*
X168521915Y-92554591D01*
X168511607Y-92588569D01*
X168494866Y-92619890D01*
X168472339Y-92647339D01*
X168444890Y-92669866D01*
X168413569Y-92686607D01*
X168379591Y-92696915D01*
X168338110Y-92701000D01*
X167661890Y-92701000D01*
X167620409Y-92696915D01*
X167586431Y-92686607D01*
X167555110Y-92669866D01*
X167527661Y-92647339D01*
X167505134Y-92619890D01*
X167488393Y-92588569D01*
X167478085Y-92554591D01*
X167474000Y-92513110D01*
X167474000Y-91911890D01*
X167478085Y-91870409D01*
X167488393Y-91836431D01*
X167505134Y-91805110D01*
X167527661Y-91777661D01*
X167555110Y-91755134D01*
X167586431Y-91738393D01*
X167620409Y-91728085D01*
X167661890Y-91724000D01*
X168338110Y-91724000D01*
X168379591Y-91728085D01*
X168379591Y-91728085D01*
G37*
G36*
X173326000Y-90361672D02*
G01*
X173306553Y-90372066D01*
X173287611Y-90387611D01*
X173272066Y-90406553D01*
X173260515Y-90428164D01*
X173253402Y-90451613D01*
X173251000Y-90475999D01*
X173251000Y-91524001D01*
X173253402Y-91548387D01*
X173260515Y-91571836D01*
X173272066Y-91593447D01*
X173287611Y-91612389D01*
X173306553Y-91627934D01*
X173326000Y-91638328D01*
X173326000Y-92251000D01*
X171474000Y-92251000D01*
X171474000Y-91638328D01*
X171493447Y-91627934D01*
X171512389Y-91612389D01*
X171527934Y-91593447D01*
X171539485Y-91571836D01*
X171546598Y-91548387D01*
X171549000Y-91524001D01*
X171549000Y-90475999D01*
X171546598Y-90451613D01*
X171539485Y-90428164D01*
X171527934Y-90406553D01*
X171512389Y-90387611D01*
X171493447Y-90372066D01*
X171474000Y-90361672D01*
X171474000Y-89749000D01*
X173326000Y-89749000D01*
X173326000Y-90361672D01*
X173326000Y-90361672D01*
G37*
G36*
X145951000Y-91551000D02*
G01*
X144049000Y-91551000D01*
X144049000Y-90449000D01*
X145951000Y-90449000D01*
X145951000Y-91551000D01*
X145951000Y-91551000D01*
G37*
G36*
X161434591Y-90478085D02*
G01*
X161468569Y-90488393D01*
X161499890Y-90505134D01*
X161527339Y-90527661D01*
X161549866Y-90555110D01*
X161566607Y-90586431D01*
X161576915Y-90620409D01*
X161581000Y-90661890D01*
X161581000Y-91338110D01*
X161576915Y-91379591D01*
X161566607Y-91413569D01*
X161549866Y-91444890D01*
X161527339Y-91472339D01*
X161499890Y-91494866D01*
X161468569Y-91511607D01*
X161434591Y-91521915D01*
X161393110Y-91526000D01*
X160791890Y-91526000D01*
X160750409Y-91521915D01*
X160716431Y-91511607D01*
X160685110Y-91494866D01*
X160657661Y-91472339D01*
X160635134Y-91444890D01*
X160618393Y-91413569D01*
X160608085Y-91379591D01*
X160604000Y-91338110D01*
X160604000Y-90661890D01*
X160608085Y-90620409D01*
X160618393Y-90586431D01*
X160635134Y-90555110D01*
X160657661Y-90527661D01*
X160685110Y-90505134D01*
X160716431Y-90488393D01*
X160750409Y-90478085D01*
X160791890Y-90474000D01*
X161393110Y-90474000D01*
X161434591Y-90478085D01*
X161434591Y-90478085D01*
G37*
G36*
X163009591Y-90478085D02*
G01*
X163043569Y-90488393D01*
X163074890Y-90505134D01*
X163102339Y-90527661D01*
X163124866Y-90555110D01*
X163141607Y-90586431D01*
X163151915Y-90620409D01*
X163156000Y-90661890D01*
X163156000Y-91338110D01*
X163151915Y-91379591D01*
X163141607Y-91413569D01*
X163124866Y-91444890D01*
X163102339Y-91472339D01*
X163074890Y-91494866D01*
X163043569Y-91511607D01*
X163009591Y-91521915D01*
X162968110Y-91526000D01*
X162366890Y-91526000D01*
X162325409Y-91521915D01*
X162291431Y-91511607D01*
X162260110Y-91494866D01*
X162232661Y-91472339D01*
X162210134Y-91444890D01*
X162193393Y-91413569D01*
X162183085Y-91379591D01*
X162179000Y-91338110D01*
X162179000Y-90661890D01*
X162183085Y-90620409D01*
X162193393Y-90586431D01*
X162210134Y-90555110D01*
X162232661Y-90527661D01*
X162260110Y-90505134D01*
X162291431Y-90488393D01*
X162325409Y-90478085D01*
X162366890Y-90474000D01*
X162968110Y-90474000D01*
X163009591Y-90478085D01*
X163009591Y-90478085D01*
G37*
G36*
X140304591Y-90228085D02*
G01*
X140338569Y-90238393D01*
X140369890Y-90255134D01*
X140397339Y-90277661D01*
X140419866Y-90305110D01*
X140436607Y-90336431D01*
X140446915Y-90370409D01*
X140451000Y-90411890D01*
X140451000Y-91088110D01*
X140446915Y-91129591D01*
X140436607Y-91163569D01*
X140419866Y-91194890D01*
X140397339Y-91222339D01*
X140369890Y-91244866D01*
X140338569Y-91261607D01*
X140304591Y-91271915D01*
X140263110Y-91276000D01*
X139661890Y-91276000D01*
X139620409Y-91271915D01*
X139586431Y-91261607D01*
X139555110Y-91244866D01*
X139527661Y-91222339D01*
X139505134Y-91194890D01*
X139488393Y-91163569D01*
X139478085Y-91129591D01*
X139474000Y-91088110D01*
X139474000Y-90411890D01*
X139478085Y-90370409D01*
X139488393Y-90336431D01*
X139505134Y-90305110D01*
X139527661Y-90277661D01*
X139555110Y-90255134D01*
X139586431Y-90238393D01*
X139620409Y-90228085D01*
X139661890Y-90224000D01*
X140263110Y-90224000D01*
X140304591Y-90228085D01*
X140304591Y-90228085D01*
G37*
G36*
X141879591Y-90228085D02*
G01*
X141913569Y-90238393D01*
X141944890Y-90255134D01*
X141972339Y-90277661D01*
X141994866Y-90305110D01*
X142011607Y-90336431D01*
X142021915Y-90370409D01*
X142026000Y-90411890D01*
X142026000Y-91088110D01*
X142021915Y-91129591D01*
X142011607Y-91163569D01*
X141994866Y-91194890D01*
X141972339Y-91222339D01*
X141944890Y-91244866D01*
X141913569Y-91261607D01*
X141879591Y-91271915D01*
X141838110Y-91276000D01*
X141236890Y-91276000D01*
X141195409Y-91271915D01*
X141161431Y-91261607D01*
X141130110Y-91244866D01*
X141102661Y-91222339D01*
X141080134Y-91194890D01*
X141063393Y-91163569D01*
X141053085Y-91129591D01*
X141049000Y-91088110D01*
X141049000Y-90411890D01*
X141053085Y-90370409D01*
X141063393Y-90336431D01*
X141080134Y-90305110D01*
X141102661Y-90277661D01*
X141130110Y-90255134D01*
X141161431Y-90238393D01*
X141195409Y-90228085D01*
X141236890Y-90224000D01*
X141838110Y-90224000D01*
X141879591Y-90228085D01*
X141879591Y-90228085D01*
G37*
G36*
X153379591Y-88303085D02*
G01*
X153413569Y-88313393D01*
X153444890Y-88330134D01*
X153472339Y-88352661D01*
X153494866Y-88380110D01*
X153511607Y-88411431D01*
X153521915Y-88445409D01*
X153526000Y-88486890D01*
X153526000Y-89088110D01*
X153521915Y-89129591D01*
X153511607Y-89163569D01*
X153494866Y-89194890D01*
X153472339Y-89222339D01*
X153444890Y-89244866D01*
X153413569Y-89261607D01*
X153379591Y-89271915D01*
X153338110Y-89276000D01*
X152661890Y-89276000D01*
X152620409Y-89271915D01*
X152586431Y-89261607D01*
X152555110Y-89244866D01*
X152527661Y-89222339D01*
X152505134Y-89194890D01*
X152488393Y-89163569D01*
X152478085Y-89129591D01*
X152474000Y-89088110D01*
X152474000Y-88486890D01*
X152478085Y-88445409D01*
X152488393Y-88411431D01*
X152505134Y-88380110D01*
X152527661Y-88352661D01*
X152555110Y-88330134D01*
X152586431Y-88313393D01*
X152620409Y-88303085D01*
X152661890Y-88299000D01*
X153338110Y-88299000D01*
X153379591Y-88303085D01*
X153379591Y-88303085D01*
G37*
G36*
X155379591Y-88303085D02*
G01*
X155413569Y-88313393D01*
X155444890Y-88330134D01*
X155472339Y-88352661D01*
X155494866Y-88380110D01*
X155511607Y-88411431D01*
X155521915Y-88445409D01*
X155526000Y-88486890D01*
X155526000Y-89088110D01*
X155521915Y-89129591D01*
X155511607Y-89163569D01*
X155494866Y-89194890D01*
X155472339Y-89222339D01*
X155444890Y-89244866D01*
X155413569Y-89261607D01*
X155379591Y-89271915D01*
X155338110Y-89276000D01*
X154661890Y-89276000D01*
X154620409Y-89271915D01*
X154586431Y-89261607D01*
X154555110Y-89244866D01*
X154527661Y-89222339D01*
X154505134Y-89194890D01*
X154488393Y-89163569D01*
X154478085Y-89129591D01*
X154474000Y-89088110D01*
X154474000Y-88486890D01*
X154478085Y-88445409D01*
X154488393Y-88411431D01*
X154505134Y-88380110D01*
X154527661Y-88352661D01*
X154555110Y-88330134D01*
X154586431Y-88313393D01*
X154620409Y-88303085D01*
X154661890Y-88299000D01*
X155338110Y-88299000D01*
X155379591Y-88303085D01*
X155379591Y-88303085D01*
G37*
G36*
X155379591Y-86728085D02*
G01*
X155413569Y-86738393D01*
X155444890Y-86755134D01*
X155472339Y-86777661D01*
X155494866Y-86805110D01*
X155511607Y-86836431D01*
X155521915Y-86870409D01*
X155526000Y-86911890D01*
X155526000Y-87513110D01*
X155521915Y-87554591D01*
X155511607Y-87588569D01*
X155494866Y-87619890D01*
X155472339Y-87647339D01*
X155444890Y-87669866D01*
X155413569Y-87686607D01*
X155379591Y-87696915D01*
X155338110Y-87701000D01*
X154661890Y-87701000D01*
X154620409Y-87696915D01*
X154586431Y-87686607D01*
X154555110Y-87669866D01*
X154527661Y-87647339D01*
X154505134Y-87619890D01*
X154488393Y-87588569D01*
X154478085Y-87554591D01*
X154474000Y-87513110D01*
X154474000Y-86911890D01*
X154478085Y-86870409D01*
X154488393Y-86836431D01*
X154505134Y-86805110D01*
X154527661Y-86777661D01*
X154555110Y-86755134D01*
X154586431Y-86738393D01*
X154620409Y-86728085D01*
X154661890Y-86724000D01*
X155338110Y-86724000D01*
X155379591Y-86728085D01*
X155379591Y-86728085D01*
G37*
G36*
X153379591Y-86728085D02*
G01*
X153413569Y-86738393D01*
X153444890Y-86755134D01*
X153472339Y-86777661D01*
X153494866Y-86805110D01*
X153511607Y-86836431D01*
X153521915Y-86870409D01*
X153526000Y-86911890D01*
X153526000Y-87513110D01*
X153521915Y-87554591D01*
X153511607Y-87588569D01*
X153494866Y-87619890D01*
X153472339Y-87647339D01*
X153444890Y-87669866D01*
X153413569Y-87686607D01*
X153379591Y-87696915D01*
X153338110Y-87701000D01*
X152661890Y-87701000D01*
X152620409Y-87696915D01*
X152586431Y-87686607D01*
X152555110Y-87669866D01*
X152527661Y-87647339D01*
X152505134Y-87619890D01*
X152488393Y-87588569D01*
X152478085Y-87554591D01*
X152474000Y-87513110D01*
X152474000Y-86911890D01*
X152478085Y-86870409D01*
X152488393Y-86836431D01*
X152505134Y-86805110D01*
X152527661Y-86777661D01*
X152555110Y-86755134D01*
X152586431Y-86738393D01*
X152620409Y-86728085D01*
X152661890Y-86724000D01*
X153338110Y-86724000D01*
X153379591Y-86728085D01*
X153379591Y-86728085D01*
G37*
G36*
X171379591Y-86303085D02*
G01*
X171413569Y-86313393D01*
X171444890Y-86330134D01*
X171472339Y-86352661D01*
X171494866Y-86380110D01*
X171511607Y-86411431D01*
X171521915Y-86445409D01*
X171526000Y-86486890D01*
X171526000Y-87088110D01*
X171521915Y-87129591D01*
X171511607Y-87163569D01*
X171494866Y-87194890D01*
X171472339Y-87222339D01*
X171444890Y-87244866D01*
X171413569Y-87261607D01*
X171379591Y-87271915D01*
X171338110Y-87276000D01*
X170661890Y-87276000D01*
X170620409Y-87271915D01*
X170586431Y-87261607D01*
X170555110Y-87244866D01*
X170527661Y-87222339D01*
X170505134Y-87194890D01*
X170488393Y-87163569D01*
X170478085Y-87129591D01*
X170474000Y-87088110D01*
X170474000Y-86486890D01*
X170478085Y-86445409D01*
X170488393Y-86411431D01*
X170505134Y-86380110D01*
X170527661Y-86352661D01*
X170555110Y-86330134D01*
X170586431Y-86313393D01*
X170620409Y-86303085D01*
X170661890Y-86299000D01*
X171338110Y-86299000D01*
X171379591Y-86303085D01*
X171379591Y-86303085D01*
G37*
G36*
X169379591Y-86303085D02*
G01*
X169413569Y-86313393D01*
X169444890Y-86330134D01*
X169472339Y-86352661D01*
X169494866Y-86380110D01*
X169511607Y-86411431D01*
X169521915Y-86445409D01*
X169526000Y-86486890D01*
X169526000Y-87088110D01*
X169521915Y-87129591D01*
X169511607Y-87163569D01*
X169494866Y-87194890D01*
X169472339Y-87222339D01*
X169444890Y-87244866D01*
X169413569Y-87261607D01*
X169379591Y-87271915D01*
X169338110Y-87276000D01*
X168661890Y-87276000D01*
X168620409Y-87271915D01*
X168586431Y-87261607D01*
X168555110Y-87244866D01*
X168527661Y-87222339D01*
X168505134Y-87194890D01*
X168488393Y-87163569D01*
X168478085Y-87129591D01*
X168474000Y-87088110D01*
X168474000Y-86486890D01*
X168478085Y-86445409D01*
X168488393Y-86411431D01*
X168505134Y-86380110D01*
X168527661Y-86352661D01*
X168555110Y-86330134D01*
X168586431Y-86313393D01*
X168620409Y-86303085D01*
X168661890Y-86299000D01*
X169338110Y-86299000D01*
X169379591Y-86303085D01*
X169379591Y-86303085D01*
G37*
G36*
X179598254Y-83027818D02*
G01*
X179971511Y-83182426D01*
X179971513Y-83182427D01*
X180307436Y-83406884D01*
X180593116Y-83692564D01*
X180817574Y-84028489D01*
X180972182Y-84401746D01*
X181051000Y-84797993D01*
X181051000Y-85202007D01*
X180972182Y-85598254D01*
X180942519Y-85669866D01*
X180817573Y-85971513D01*
X180593116Y-86307436D01*
X180307436Y-86593116D01*
X179971513Y-86817573D01*
X179971512Y-86817574D01*
X179971511Y-86817574D01*
X179598254Y-86972182D01*
X179202007Y-87051000D01*
X178797993Y-87051000D01*
X178401746Y-86972182D01*
X178028489Y-86817574D01*
X178028488Y-86817574D01*
X178028487Y-86817573D01*
X177692564Y-86593116D01*
X177406884Y-86307436D01*
X177182427Y-85971513D01*
X177057481Y-85669866D01*
X177027818Y-85598254D01*
X176949000Y-85202007D01*
X176949000Y-84797993D01*
X177027818Y-84401746D01*
X177182426Y-84028489D01*
X177406884Y-83692564D01*
X177692564Y-83406884D01*
X178028487Y-83182427D01*
X178028489Y-83182426D01*
X178401746Y-83027818D01*
X178797993Y-82949000D01*
X179202007Y-82949000D01*
X179598254Y-83027818D01*
X179598254Y-83027818D01*
G37*
G36*
X174826000Y-86901000D02*
G01*
X174324000Y-86901000D01*
X174324000Y-85899000D01*
X174826000Y-85899000D01*
X174826000Y-86901000D01*
X174826000Y-86901000D01*
G37*
G36*
X173676000Y-86901000D02*
G01*
X173174000Y-86901000D01*
X173174000Y-85899000D01*
X173676000Y-85899000D01*
X173676000Y-86901000D01*
X173676000Y-86901000D01*
G37*
G36*
X169379591Y-84728085D02*
G01*
X169413569Y-84738393D01*
X169444890Y-84755134D01*
X169472339Y-84777661D01*
X169494866Y-84805110D01*
X169511607Y-84836431D01*
X169521915Y-84870409D01*
X169526000Y-84911890D01*
X169526000Y-85513110D01*
X169521915Y-85554591D01*
X169511607Y-85588569D01*
X169494866Y-85619890D01*
X169472339Y-85647339D01*
X169444890Y-85669866D01*
X169413569Y-85686607D01*
X169379591Y-85696915D01*
X169338110Y-85701000D01*
X168661890Y-85701000D01*
X168620409Y-85696915D01*
X168586431Y-85686607D01*
X168555110Y-85669866D01*
X168527661Y-85647339D01*
X168505134Y-85619890D01*
X168488393Y-85588569D01*
X168478085Y-85554591D01*
X168474000Y-85513110D01*
X168474000Y-84911890D01*
X168478085Y-84870409D01*
X168488393Y-84836431D01*
X168505134Y-84805110D01*
X168527661Y-84777661D01*
X168555110Y-84755134D01*
X168586431Y-84738393D01*
X168620409Y-84728085D01*
X168661890Y-84724000D01*
X169338110Y-84724000D01*
X169379591Y-84728085D01*
X169379591Y-84728085D01*
G37*
G36*
X171379591Y-84728085D02*
G01*
X171413569Y-84738393D01*
X171444890Y-84755134D01*
X171472339Y-84777661D01*
X171494866Y-84805110D01*
X171511607Y-84836431D01*
X171521915Y-84870409D01*
X171526000Y-84911890D01*
X171526000Y-85513110D01*
X171521915Y-85554591D01*
X171511607Y-85588569D01*
X171494866Y-85619890D01*
X171472339Y-85647339D01*
X171444890Y-85669866D01*
X171413569Y-85686607D01*
X171379591Y-85696915D01*
X171338110Y-85701000D01*
X170661890Y-85701000D01*
X170620409Y-85696915D01*
X170586431Y-85686607D01*
X170555110Y-85669866D01*
X170527661Y-85647339D01*
X170505134Y-85619890D01*
X170488393Y-85588569D01*
X170478085Y-85554591D01*
X170474000Y-85513110D01*
X170474000Y-84911890D01*
X170478085Y-84870409D01*
X170488393Y-84836431D01*
X170505134Y-84805110D01*
X170527661Y-84777661D01*
X170555110Y-84755134D01*
X170586431Y-84738393D01*
X170620409Y-84728085D01*
X170661890Y-84724000D01*
X171338110Y-84724000D01*
X171379591Y-84728085D01*
X171379591Y-84728085D01*
G37*
G36*
X173676000Y-84101000D02*
G01*
X173174000Y-84101000D01*
X173174000Y-83099000D01*
X173676000Y-83099000D01*
X173676000Y-84101000D01*
X173676000Y-84101000D01*
G37*
G36*
X174826000Y-84101000D02*
G01*
X174324000Y-84101000D01*
X174324000Y-83099000D01*
X174826000Y-83099000D01*
X174826000Y-84101000D01*
X174826000Y-84101000D01*
G37*
M02*
